<?xml version="1.0" encoding="utf-8"?>
<!-- Generator: Adobe Illustrator 22.0.1, SVG Export Plug-In . SVG Version: 6.00 Build 0)  -->
<svg version="1.1" id="Laag_1" xmlns="http://www.w3.org/2000/svg" xmlns:xlink="http://www.w3.org/1999/xlink" x="0px" y="0px"
	 viewBox="0 0 50 50" style="enable-background:new 0 0 50 50;" xml:space="preserve">
<style type="text/css">
	.st0{fill:#34313F;}
</style>
<g>
	<path class="st0" d="M26.4,28.5h6.2c1.8,0,2.9-1,2.9-2.5c0-1.5-1.1-2.5-2.9-2.5h-6.2c-0.2,0-0.4,0.2-0.4,0.4v4.4
		C26,28.3,26.2,28.5,26.4,28.5z M26.4,38.5h6.4c2,0,3.2-1,3.2-2.8c0-1.5-1.1-2.8-3.2-2.8h-6.4c-0.2,0-0.4,0.2-0.4,0.4v4.8
		C26,38.4,26.2,38.5,26.4,38.5z"/>
	<path class="st0" d="M49.1,0.5L30.7,18.9h3c4.7,0,7.5,2.9,7.5,6.2c0,2.5-1.7,4.4-3.5,5.2c-0.3,0.1-0.3,0.5,0,0.6
		c2.1,0.8,3.6,3,3.6,5.6c0,3.7-2.4,6.6-7.2,6.6h-13c-0.2,0-0.4-0.2-0.4-0.4V28.9L0.5,49c-0.3,0.3-0.1,0.7,0.3,0.7h48.5
		c0.2,0,0.3-0.1,0.3-0.3V0.8C49.8,0.5,49.4,0.3,49.1,0.5z"/>
</g>
</svg>
