<svg width="24" height="24" viewBox="0 0 24 24" fill="none" xmlns="http://www.w3.org/2000/svg">
<path d="M21.0305 16.7866L18.1266 14.7575C17.8852 14.589 17.6131 14.4697 17.3256 14.4063C17.0381 14.343 16.741 14.3369 16.4512 14.3885C16.1614 14.44 15.8845 14.5481 15.6365 14.7066C15.3885 14.8652 15.1741 15.071 15.0057 15.3124L14.3316 16.2788C13.2021 15.5213 11.9412 14.4635 10.7396 13.2614C9.53839 12.0602 8.48061 10.7994 7.72313 9.66988L8.68858 8.99577C8.93087 8.82815 9.13742 8.61404 9.29624 8.36589C9.45505 8.11774 9.56296 7.8405 9.61369 7.55028C9.66561 7.26033 9.65963 6.96298 9.59608 6.67535C9.53254 6.38772 9.4127 6.11551 9.24346 5.87442L7.21531 2.97091C6.79085 2.36403 6.10598 2.00098 5.38436 2.00098C5.13533 2.00089 4.88826 2.04505 4.65467 2.13141C4.39064 2.22835 4.13751 2.35274 3.89944 2.50253L3.49829 2.7849C3.39901 2.86306 3.3047 2.94734 3.21591 3.03724C2.72647 3.52579 2.37955 4.14522 2.18368 4.8767C1.34777 8.0097 3.41806 12.7477 7.33587 16.6651C10.6257 19.955 14.5776 21.9988 17.6497 21.9988C18.1763 21.9988 18.672 21.9379 19.1243 21.8169C19.8562 21.6214 20.4752 21.2745 20.9642 20.7851C21.0534 20.6959 21.1381 20.6027 21.2291 20.4848L21.5115 20.0818C21.6553 19.8495 21.7751 19.6033 21.8691 19.3468C22.2111 18.4234 21.866 17.3702 21.0305 16.7861V16.7866Z" fill="#E1005B"/>
</svg>
