<svg width="80" height="80" viewBox="0 0 80 80" fill="none" xmlns="http://www.w3.org/2000/svg">
<circle cx="40" cy="40" r="40" fill="#E1005B"/>
<path d="M51.2882 45.983L47.6582 43.4467C47.3566 43.236 47.0163 43.0868 46.657 43.0077C46.2977 42.9285 45.9263 42.9209 45.564 42.9853C45.2017 43.0497 44.8557 43.1849 44.5457 43.3831C44.2356 43.5812 43.9677 43.8385 43.7571 44.1403L42.9145 45.3482C41.5026 44.4014 39.9266 43.0791 38.4245 41.5765C36.923 40.075 35.6008 38.499 34.6539 37.0871L35.8607 36.2445C36.1636 36.0349 36.4218 35.7673 36.6203 35.4571C36.8188 35.1469 36.9537 34.8004 37.0171 34.4376C37.082 34.0752 37.0746 33.7035 36.9951 33.3439C36.9157 32.9844 36.7659 32.6441 36.5544 32.3428L34.0192 28.7134C33.4886 27.9548 32.6325 27.501 31.7305 27.501C31.4192 27.5009 31.1103 27.5561 30.8184 27.664C30.4883 27.7852 30.1719 27.9407 29.8743 28.1279L29.3729 28.4809C29.2488 28.5786 29.1309 28.6839 29.0199 28.7963C28.4081 29.407 27.9745 30.1813 27.7296 31.0956C26.6847 35.0119 29.2726 40.9344 34.1699 45.8312C38.2822 49.9435 43.2221 52.4983 47.0621 52.4983C47.7204 52.4983 48.3401 52.4221 48.9054 52.2708C49.8203 52.0266 50.594 51.5929 51.2053 50.9811C51.3168 50.8696 51.4227 50.7531 51.5364 50.6057L51.8894 50.102C52.0691 49.8117 52.2189 49.5038 52.3364 49.1832C52.7639 48.0291 52.3325 46.7124 51.2882 45.9824V45.983Z" fill="white"/>
</svg>
