<svg width="80" height="80" viewBox="0 0 80 80" fill="none" xmlns="http://www.w3.org/2000/svg">
<path d="M27.4137 23.5729C27.4137 31.1431 33.5726 37.1737 41.0145 37.1737C43.8373 37.1737 46.4035 36.4038 48.4565 34.8641C48.5848 34.8641 48.5848 34.7358 48.7131 34.7358C52.3058 32.2979 54.6153 28.192 54.6153 23.4445C54.6153 15.8743 48.4565 9.84375 41.0145 9.84375C33.5726 9.84375 27.4137 16.0026 27.4137 23.5729ZM65.9066 60.7826C65.9066 50.2612 59.3628 40.8946 49.4829 37.4303C44.3506 40.5097 37.9351 40.638 32.6744 37.4303C22.7946 41.0229 16.2508 50.2612 16.2508 60.7826C16.2508 66.9414 29.0818 70.2775 41.1428 70.2775C53.2039 70.2775 65.9066 66.9414 65.9066 60.7826ZM8.68055 42.691C8.68055 46.9252 12.4015 49.8763 16.1225 49.4914C17.5339 46.2836 19.5869 43.4608 22.153 41.0229C21.3832 38.0718 18.6887 35.8906 15.6093 35.8906C11.76 35.8906 8.68055 38.97 8.68055 42.691ZM0.46875 61.0392C0.46875 61.6808 0.853678 62.3223 1.49523 62.8355C3.9331 64.8885 9.70703 65.915 15.481 65.53C12.4015 63.2205 11.6317 60.7826 11.6317 58.8579C11.6317 55.7785 12.1449 52.9557 13.0431 50.1329C11.6317 50.0046 10.2203 49.6197 8.93717 48.9781C3.67649 50.9028 0.46875 55.6502 0.46875 61.0392Z" fill="white"/>
<path d="M79.5074 62.9638C79.5074 57.5748 76.1713 52.8273 71.1672 50.9027C69.8841 51.6726 68.4727 52.0575 67.0613 52.0575C67.9595 54.752 68.4727 57.7031 68.4727 60.7825C68.4727 63.477 67.0613 65.6583 64.6235 67.4546C69.3709 67.7112 79.5074 66.6848 79.5074 62.9638ZM66.6764 35.8905C63.4687 35.8905 60.9025 37.9435 60.1326 41.0229C62.6988 43.4608 64.7518 46.2836 66.1632 49.6196C70.0125 50.0045 73.4768 46.9251 73.4768 42.8192C73.4768 38.9699 70.3974 35.8905 66.6764 35.8905Z" fill="white"/>
</svg>
