<svg width="100" height="60" viewBox="0 0 100 60" fill="none" xmlns="http://www.w3.org/2000/svg">
<path d="M41.2256 41.5357L48.9131 49.2279L70.0643 28.0718H54.6847L41.2256 41.5357Z" fill="#191919"/>
<path d="M54.6849 5H70.0646L37.3797 37.6896L29.6875 29.9974L54.6849 5Z" fill="#191919"/>
<path d="M48.9131 49.2283L54.6847 54.9951H70.0644L56.6054 41.5361L48.9131 49.2283Z" fill="#191919"/>
<path d="M60.3215 45.2763L56.6054 41.5361L48.9131 49.2283L60.3215 45.2763Z" fill="#191919"/>
<path d="M41.2256 41.5333L48.918 33.8408L56.611 41.5333L48.918 49.2258L41.2256 41.5333Z" fill="#191919"/>
<path d="M70.0646 28.0719L56.6056 41.5358L70.0646 54.9996H54.6849L41.2211 41.5358L54.6849 28.0719H70.0646ZM54.6849 5L29.6875 29.9974L37.3797 37.6896L70.0646 5H54.6849Z" fill="#191919"/>
</svg>
