<svg width="100" height="60" viewBox="0 0 100 60" fill="none" xmlns="http://www.w3.org/2000/svg">
<mask id="mask0_309_34" style="mask-type:luminance" maskUnits="userSpaceOnUse" x="25" y="5" width="50" height="50">
<path d="M75 5H25V55H75V5Z" fill="white"/>
</mask>
<g mask="url(#mask0_309_34)">
<path d="M50.0342 18.6738C43.7416 18.6738 38.6396 23.7758 38.6396 30.0683C38.6396 36.3609 43.7416 41.4629 50.0342 41.4629C56.3267 41.4629 61.4287 36.3609 61.4287 30.0683C61.3947 23.7758 56.2927 18.6738 50.0342 18.6738Z" fill="#191919"/>
<path d="M66.3604 19.6938C69.2345 19.6938 71.5644 17.3639 71.5644 14.4897C71.5644 11.6156 69.2345 9.28564 66.3604 9.28564C63.4862 9.28564 61.1562 11.6156 61.1562 14.4897C61.1562 17.3639 63.4862 19.6938 66.3604 19.6938Z" fill="#191919"/>
<path d="M72.7551 19.6939L72.551 19.2177L72.2109 19.6259C71.3605 20.5782 70.2721 21.3265 69.0816 21.7687L68.7415 21.9048L68.8776 22.2449C69.932 24.7279 70.4422 27.381 70.4422 30.068C70.4422 41.3265 61.2925 50.5102 50 50.5102C38.7075 50.5102 29.5918 41.3265 29.5918 30.068C29.5918 18.8095 38.7415 9.62585 50.034 9.62585C53.0952 9.62585 56.0204 10.3061 58.7755 11.5986L59.0816 11.7347L59.2177 11.3946C59.7279 10.2041 60.5102 9.18367 61.5306 8.36734L61.9388 8.02721L61.4626 7.78911C57.8912 5.95238 54.0476 5 50 5C36.2245 5 25 16.2245 25 30C25 43.7755 36.2245 55 50 55C63.7755 55 75 43.7755 75 30C75 26.4626 74.2517 22.9932 72.7551 19.6939Z" fill="#191919"/>
</g>
</svg>
