<svg width="100" height="60" viewBox="0 0 100 60" fill="none" xmlns="http://www.w3.org/2000/svg">
<path d="M63.937 31.5128C64.0072 39.065 70.5623 41.5782 70.6349 41.6103C70.5795 41.7875 69.5875 45.1918 67.1814 48.7082C65.1014 51.7482 62.9426 54.7772 59.5419 54.8399C56.2003 54.9015 55.1258 52.8584 51.3055 52.8584C47.4863 52.8584 46.2925 54.7772 43.1294 54.9015C39.8468 55.0257 37.3472 51.614 35.2499 48.5851C30.9643 42.3893 27.6893 31.0772 32.0869 23.4413C34.2715 19.6494 38.1756 17.2481 42.4131 17.1865C45.6365 17.125 48.679 19.3551 50.6495 19.3551C52.6187 19.3551 56.316 16.6733 60.2028 17.0671C61.83 17.1348 66.3974 17.7244 69.3303 22.0174C69.0939 22.1639 63.8804 25.1989 63.937 31.5128ZM57.657 12.968C59.3997 10.8585 60.5727 7.92192 60.2527 5C57.7407 5.10096 54.7031 6.67393 52.9013 8.78228C51.2865 10.6493 49.8723 13.6376 50.2539 16.5017C53.0538 16.7183 55.9142 15.0788 57.657 12.968Z" fill="#191919"/>
</svg>
