<?xml version="1.0" encoding="iso-8859-1"?>
<!-- Generator: Adobe Illustrator 19.0.0, SVG Export Plug-In . SVG Version: 6.00 Build 0)  -->
<svg version="1.1" id="Capa_1" xmlns="http://www.w3.org/2000/svg" xmlns:xlink="http://www.w3.org/1999/xlink" x="0px" y="0px"
	 viewBox="0 0 512 512" style="enable-background:new 0 0 512 512;" xml:space="preserve">
<g>
	<g>
		<g>
			<path d="M422.977,407.275c-2.347-2.048-5.504-2.944-8.533-2.496c-2.368,0.363-4.843,0.555-7.339,0.555
				c-9.152,0-16.704-1.152-23.104-2.752V416c0,5.888-4.779,10.667-10.667,10.667H96.001c-5.888,0-10.667-4.779-10.667-10.667V53.333
				c0-5.888,4.779-10.667,10.667-10.667h277.333c5.888,0,10.667,4.779,10.667,10.667v39.509c9.749-4.672,20.501-7.509,32-7.509
				c5.888,0,10.667-4.779,10.667-10.667V53.333C426.668,23.936,402.753,0,373.334,0H96.001C66.582,0,42.668,23.936,42.668,53.333
				v405.333c0,29.397,23.915,53.333,53.333,53.333h277.333c29.419,0,53.333-23.936,53.333-53.333v-43.328
				C426.668,412.224,425.324,409.28,422.977,407.275z M234.668,480c-11.776,0-21.333-9.579-21.333-21.333
				s9.557-21.333,21.333-21.333s21.333,9.579,21.333,21.333S246.444,480,234.668,480z"/>
			<path d="M416.001,106.667c-29.419,0-53.333,23.936-53.333,53.333c0,5.888,4.779,10.667,10.667,10.667
				c29.419,0,53.333-23.936,53.333-53.333C426.668,111.445,421.889,106.667,416.001,106.667z"/>
			<path d="M467.649,301.781c-1.685-2.645-4.459-4.416-7.573-4.821c-15.211-2.027-26.688-14.507-26.688-29.035
				c0-12.693,8.619-23.915,21.483-27.883c3.2-0.981,5.781-3.435,6.891-6.592c1.131-3.157,0.704-6.677-1.152-9.472
				c-12.437-18.816-32.299-31.957-48.299-31.957c-10.709,0-20.352,3.136-28.885,5.888c-6.592,2.133-12.821,4.139-17.941,4.139
				c-5.141,0-11.349-2.027-17.941-4.16c-8.512-2.752-18.176-5.888-28.885-5.888c-24.96,0-62.677,32.277-62.677,80.939
				c0,45.867,35.115,111.061,67.883,111.061c15.68,0,25.259-4.139,32.256-7.147c8.832-3.819,9.941-3.797,18.731,0
				c6.976,3.029,16.555,7.147,32.256,7.147c24.512,0,50.667-37.291,61.76-73.344C469.782,307.669,469.334,304.427,467.649,301.781z"
				/>
		</g>
	</g>
</g>
<g>
</g>
<g>
</g>
<g>
</g>
<g>
</g>
<g>
</g>
<g>
</g>
<g>
</g>
<g>
</g>
<g>
</g>
<g>
</g>
<g>
</g>
<g>
</g>
<g>
</g>
<g>
</g>
<g>
</g>
</svg>
