<svg width="100" height="60" viewBox="0 0 100 60" fill="none" xmlns="http://www.w3.org/2000/svg">
<path d="M57.5114 51C57.3462 51.0003 57.1837 50.9579 57.0399 50.8769C56.8961 50.796 56.7758 50.6792 56.6909 50.5381L49.4691 38.5469L35.9623 42.2016C35.7567 42.2509 35.5404 42.2307 35.3475 42.1443C35.1546 42.0579 34.9961 41.9101 34.8967 41.7243L19.1134 12.1931C19.0405 12.0579 19.0016 11.907 19 11.7535C18.9985 11.6 19.0344 11.4484 19.1045 11.3117C19.1747 11.175 19.2771 11.0573 19.403 10.9686C19.5289 10.88 19.6745 10.823 19.8273 10.8026L33.2276 9.00895C33.4127 8.98347 33.6013 9.01266 33.7699 9.09288C33.9385 9.17311 34.0797 9.30085 34.176 9.46025L50.3536 36.3357L69.1525 31.247L62.8849 22.4332C62.7941 22.308 62.7352 22.1626 62.7136 22.0097C62.6919 21.8568 62.708 21.7009 62.7604 21.5556C62.8129 21.4103 62.9002 21.2799 63.0147 21.1757C63.1293 21.0715 63.2676 20.9967 63.4177 20.9578L72.2137 18.8883C72.3893 18.8467 72.5731 18.8555 72.7439 18.9137C72.9147 18.9719 73.0654 19.0771 73.1785 19.2172L80.7897 28.6675C80.8891 28.7906 80.956 28.9364 80.9845 29.0917C81.013 29.2471 81.0021 29.407 80.9529 29.5571C80.9036 29.7072 80.8176 29.8427 80.7025 29.9514C80.5874 30.0601 80.4469 30.1385 80.2937 30.1795L72.2989 32.3492L79.2969 42.1659C79.3829 42.2861 79.4396 42.4245 79.4625 42.5703C79.4854 42.716 79.4739 42.8651 79.4289 43.0057C79.3839 43.1462 79.3066 43.2744 79.2031 43.3801C79.0997 43.4857 78.9729 43.5659 78.8329 43.6143L57.8166 50.9315C57.7191 50.9675 57.6163 50.9874 57.5124 50.9904L57.5114 51ZM51.3814 38.0271L57.927 48.893L77.003 42.245L70.3402 32.896L51.3814 38.0271ZM21.4412 12.4901L36.2113 40.1659L48.4704 36.8554L32.8585 10.979L21.4412 12.4901ZM65.2757 22.4862L71.1384 30.7157L78.4299 28.7417L72.0868 20.8787L65.2757 22.4862Z" fill="#191919"/>
</svg>
