<svg width="24" height="24" viewBox="0 0 24 24" fill="none" xmlns="http://www.w3.org/2000/svg">
<g clip-path="url(#clip0_10_777)">
<path fill-rule="evenodd" clip-rule="evenodd" d="M7.55625 5.42918C7.55623 5.34767 7.57226 5.26695 7.60343 5.19163C7.63461 5.11631 7.68032 5.04788 7.73794 4.99023C7.79557 4.93258 7.86399 4.88684 7.9393 4.85564C8.0146 4.82444 8.09531 4.80837 8.17683 4.80837H17.5706C17.6521 4.80837 17.7328 4.82442 17.8081 4.85561C17.8834 4.8868 17.9518 4.93252 18.0095 4.99016C18.0671 5.04779 18.1128 5.11621 18.144 5.19152C18.1752 5.26682 18.1912 5.34753 18.1912 5.42904C18.1912 5.51055 18.1752 5.59126 18.144 5.66656C18.1128 5.74186 18.0671 5.81029 18.0095 5.86792C17.9518 5.92555 17.8834 5.97127 17.8081 6.00247C17.7328 6.03366 17.6521 6.04971 17.5706 6.04971H8.17683C8.09534 6.04972 8.01464 6.03367 7.93935 6.00249C7.86405 5.97131 7.79564 5.9256 7.73802 5.86798C7.68039 5.81036 7.63468 5.74195 7.60349 5.66666C7.5723 5.59137 7.55625 5.51067 7.55625 5.42918ZM7.55625 9.32332C7.55623 9.40483 7.57226 9.48555 7.60343 9.56086C7.63461 9.63618 7.68032 9.70461 7.73795 9.76226C7.79558 9.8199 7.864 9.86563 7.9393 9.89683C8.0146 9.92803 8.09532 9.94409 8.17683 9.94409H21.108C21.19 9.9448 21.2713 9.92927 21.3473 9.89839C21.4232 9.86751 21.4923 9.8219 21.5505 9.76418C21.6087 9.70646 21.6549 9.63779 21.6865 9.56212C21.718 9.48645 21.7343 9.40528 21.7343 9.3233C21.7343 9.24132 21.718 9.16015 21.6865 9.08448C21.6549 9.00881 21.6087 8.94013 21.5505 8.88241C21.4923 8.8247 21.4232 8.77908 21.3473 8.7482C21.2713 8.71733 21.19 8.7018 21.108 8.70251H8.17702C8.0955 8.70248 8.01477 8.71852 7.93945 8.7497C7.86413 8.78088 7.79569 8.8266 7.73805 8.88424C7.6804 8.94188 7.63467 9.01031 7.60348 9.08562C7.57229 9.16094 7.55624 9.24166 7.55625 9.32318V9.32332ZM5.28464 13.7848C5.28533 13.8368 5.3063 13.8865 5.34307 13.9232C5.37984 13.96 5.42952 13.981 5.48152 13.9817H18.6403C19.1044 13.977 19.5581 14.1201 19.9355 14.3904L24 17.2399V0.967664C23.9993 0.915631 23.9784 0.865912 23.9416 0.829089C23.9048 0.792267 23.8552 0.771249 23.8031 0.770508H5.48175C5.42972 0.771249 5.38003 0.792267 5.34326 0.829089C5.30649 0.865912 5.28554 0.915631 5.28487 0.967664V13.7848H5.28464ZM0 23.229V6.95698C0.00072752 6.90491 0.0217392 6.85517 0.0585668 6.81835C0.0953943 6.78154 0.145132 6.76054 0.197203 6.75982H4.04348V13.7848C4.04394 14.1661 4.19561 14.5317 4.46524 14.8014C4.73486 15.071 5.10042 15.2228 5.48175 15.2233H18.6405C18.6664 15.2233 18.691 15.224 18.7155 15.2257V19.7738C18.7148 19.8258 18.6938 19.8756 18.6571 19.9124C18.6203 19.9492 18.5707 19.9702 18.5186 19.971H5.35973C4.89555 19.9664 4.44192 20.1095 4.06448 20.3798L0 23.229Z" fill="#E1005B"/>
</g>
<defs>
<clipPath id="clip0_10_777">
<rect width="24" height="24" fill="white"/>
</clipPath>
</defs>
</svg>
