<?xml version="1.0" encoding="utf-8"?>
<!-- Generator: Adobe Illustrator 22.0.1, SVG Export Plug-In . SVG Version: 6.00 Build 0)  -->
<svg version="1.1" id="Layer_1" xmlns="http://www.w3.org/2000/svg" xmlns:xlink="http://www.w3.org/1999/xlink" x="0px" y="0px"
	 viewBox="0 0 50 50" style="enable-background:new 0 0 50 50;" xml:space="preserve">
<g>
	<path d="M44.9,7.8c-0.1-3.7-3.4-4.5-3.4-4.5S30.1,1.5,25.1,0.9c-5-0.6-4.7,4.2-4.7,4.2s1.1,35.3,1.3,39.6c0.1,5.2,5,4.4,5,4.4
		l17.2-3c3.1-0.6,3.3-4.5,3.3-4.5S45,11.9,44.9,7.8C44.7,4,45,11.9,44.9,7.8L44.9,7.8L44.9,7.8z M41,37.7l-12.8,1.3
		c0,0-3.7,0.6-3.8-3.9c-0.1-3.3-0.8-22.4-0.8-22.4s-0.3-3.5,3.6-3.2c3.9,0.3,13.3,1,13.3,1s2.5,0.6,2.6,3.4
		c0.1,3.1,1.2,20.3,1.2,20.3S44.6,37.1,41,37.7L41,37.7L41,37.7z"/>
	<path d="M9.8,32.6l-2.4,0.2c0,0-2.4,0.3-2.4-2.3c0-1.9-0.3-12.8-0.3-12.8s-0.2-2,2.3-1.9c0.6,0,1.5,0.1,2.5,0.2
		c0-1.8-0.1-3.4-0.1-4.6c-1.3-0.1-2.6-0.2-3.5-0.3c-3.2-0.4-3,2.4-3,2.4s0.4,20,0.5,22.4c0.1,2.9,3.2,2.4,3.2,2.4l3.4-0.4
		C9.9,36.5,9.8,34.7,9.8,32.6L9.8,32.6L9.8,32.6z"/>
	<path d="M19.2,14.4c0-0.3-0.1-0.5-0.1-0.7c-1-0.1-3.6-0.8-4.5,0.1c-0.5,0.6-0.3,1.7-0.3,2.4c1.1,0.1,1.9,0.1,1.9,0.1s1.6,0.3,1.7,2
		c0.1,1.8,0.1,11.8,0.1,11.8s0.2,1.6-2.1,2l-1.2,0.1c0,0.4,0,0.6,0,0.9c0,2.9,3.1,1.9,5,1.8c0.2-3-0.1-6.2-0.2-9.2
		C19.4,21.9,19.4,18.2,19.2,14.4C19.2,14.2,19.3,16.7,19.2,14.4L19.2,14.4L19.2,14.4z"/>
	<path d="M20.2,36l-3.4,0.3c0,0-3.2,0.5-3.3-3.2c0-2.7-0.4-18.2-0.4-18.2s-0.2-2.9,3.1-2.6c0.8,0.1,2,0.2,3.3,0.3
		c-0.1-3-0.2-5.3-0.2-6.5c-1.7-0.2-3.4-0.3-4.6-0.5c-4.3-0.5-4.1,3.4-4.1,3.4s0.5,28.3,0.6,31.8c0.1,4.1,4.3,3.5,4.3,3.5l4.9-0.6
		C20.4,42,20.3,39.3,20.2,36L20.2,36L20.2,36z"/>
	<path d="M27.2,10.7c-0.6,0-1.3,0-1.8,0.5c-0.5,0.5-0.5,1.2-0.5,1.8c1.7,0.1,3,0.3,3,0.3s2.2,0.5,2.3,2.8c0.1,2.5,0.7,16.3,0.7,16.3
		s0.2,2.3-2.8,2.8l-2.3,0.2c0.3,3.6,5,2.1,7.4,1.8c-0.2-5.5-1-22.3-1.2-26.3C30.1,10.9,28.4,10.8,27.2,10.7
		C27,10.7,28.4,10.8,27.2,10.7L27.2,10.7L27.2,10.7z"/>
</g>
</svg>
