<svg width="100" height="60" viewBox="0 0 100 60" fill="none" xmlns="http://www.w3.org/2000/svg">
<path d="M37.8854 11.5886C37.8854 8.21597 38.8104 6.38124 43.9177 5.50757C47.3851 4.91341 51.8309 4.83914 55.9779 5.50757C59.2534 6.03613 62.0102 8.42145 62.0102 11.5886V22.7155C62.0102 25.979 59.3336 28.6522 55.9779 28.6522H43.9177C39.8246 28.6522 36.3749 32.0642 36.3749 35.9216V41.2602H32.2281C28.7205 41.2602 26.6782 38.7874 25.8203 35.3274C24.6631 30.6791 24.7122 27.9095 25.8203 23.4577C26.781 19.5741 29.8509 17.525 33.3588 17.525H49.9499V16.0396H37.8851L37.8854 11.5886Z" fill="#191919"/>
<path d="M62.0105 47.197C62.0105 50.5696 59.0166 52.2778 55.9782 53.1297C51.407 54.4141 47.7383 54.2175 43.9179 53.1297C40.7273 52.2211 37.8857 50.3644 37.8857 47.197V36.07C37.8857 32.8677 40.6159 30.1333 43.9179 30.1333H55.9782C59.9954 30.1333 63.521 26.7391 63.521 22.7154V17.5254H68.043C71.5552 17.5254 73.2088 20.0766 74.0753 23.4581C75.2817 28.1545 75.3354 31.6667 74.0753 35.3278C72.8556 38.8839 71.5507 41.2605 68.043 41.2605H49.9502V42.7459H62.0105V47.197Z" fill="#191919"/>
<path d="M40.9014 10.8502C40.9014 9.61829 41.9112 8.62207 43.1626 8.62207C44.4093 8.62207 45.4239 9.61804 45.4239 10.8502C45.4239 12.0781 44.4095 13.0738 43.1626 13.0738C41.9117 13.0738 40.9014 12.0779 40.9014 10.8502ZM54.4716 47.9354C54.4716 46.7075 55.486 45.7118 56.7329 45.7118C57.9838 45.7118 58.9942 46.7078 58.9942 47.9354C58.9942 49.1673 57.9843 50.1636 56.7329 50.1636C55.4863 50.1636 54.4716 49.1676 54.4716 47.9354Z" fill="white"/>
</svg>
