<svg width="80" height="80" viewBox="0 0 80 80" fill="none" xmlns="http://www.w3.org/2000/svg">
<circle cx="40" cy="40" r="40" fill="#E1005B"/>
<g clip-path="url(#clip0_10_823)">
<path d="M54.1083 43.1541C56.2844 33.399 47.7299 24.5443 37.6746 26.2327C32.2343 22.856 24.993 26.683 24.993 33.1739C24.993 34.6746 25.4057 36.1004 26.1186 37.301C24.13 47.0937 32.722 55.8357 42.7773 53.9973C49.8685 57.7493 57.6726 50.2828 54.1083 43.1541ZM44.5783 49.0447C41.9519 50.1328 37.5996 50.1328 34.9732 48.7445C31.2212 46.756 30.5834 42.2536 33.8101 42.2536C36.2489 42.2536 35.461 45.1051 37.9373 46.2307C39.0629 46.756 41.5016 46.7935 42.8899 45.8555C44.2781 44.9175 44.1655 43.4543 43.4151 42.7789C41.4266 40.9404 35.6861 41.6533 33.0597 38.4266C31.9341 37.0384 31.709 34.5621 33.0972 32.7611C35.536 29.6095 42.7023 29.4219 45.7789 31.7856C48.6304 33.9993 47.8425 36.8883 45.5538 36.8883C42.8148 36.8883 44.2406 33.2864 39.7757 33.2864C36.549 33.2864 35.2734 35.5751 37.5621 36.7007C40.6387 38.2765 48.4803 37.7513 48.4803 43.7544C48.4803 46.2307 46.942 48.0692 44.5783 49.0447Z" fill="white"/>
</g>
<defs>
<clipPath id="clip0_10_823">
<rect width="30" height="30" fill="white" transform="translate(25 25)"/>
</clipPath>
</defs>
</svg>
