<svg width="55" height="55" viewBox="0 0 55 55" fill="none" xmlns="http://www.w3.org/2000/svg">
<path d="M7.46273 17.9341H7.32184C5.51575 17.9341 4.04315 19.4114 4.04315 21.2128V35.4877C4.04315 37.2961 5.51575 38.7686 7.32184 38.7686H7.46513C9.27122 38.7686 10.7438 37.2914 10.7438 35.4877V21.2127C10.7414 19.4114 9.26654 17.9341 7.46273 17.9341ZM12.3127 40.9975C12.3127 42.6556 13.6678 44.0061 15.3259 44.0061H18.5459V51.7166C18.5459 53.5274 20.0232 55 21.8246 55H21.9655C23.774 55 25.2489 53.5251 25.2489 51.7166V44.0061H29.7489V51.7166C29.7489 53.5274 31.2308 55 33.0322 55H33.1708C34.9792 55 36.4518 53.5251 36.4518 51.7166V44.0061H39.6741C41.3298 44.0061 42.6851 42.6556 42.6851 40.9975V18.4578H12.3127V40.9975ZM35.0637 4.78882L37.6214 0.840849C37.7858 0.591841 37.713 0.251375 37.4617 0.0892531C37.2128 -0.0751551 36.8722 -0.00699648 36.7101 0.24898L34.0585 4.33327C32.0693 3.51831 29.8475 3.06036 27.5012 3.06036C25.1525 3.06036 22.9354 3.51831 20.9415 4.33327L18.2946 0.24898C18.1326 -0.00699648 17.7896 -0.0751551 17.5383 0.0892531C17.2871 0.251266 17.2142 0.591841 17.3786 0.840849L19.9386 4.78882C15.3235 7.05058 12.2116 11.3133 12.2116 16.2031C12.2116 16.5037 12.2305 16.7997 12.2563 17.0932H42.7483C42.7741 16.7997 42.7906 16.5037 42.7906 16.2031C42.7907 11.3133 39.6764 7.05058 35.0637 4.78882ZM20.4318 11.8582C19.6215 11.8582 18.9639 11.2052 18.9639 10.3926C18.9639 9.58007 19.6215 8.92941 20.4318 8.92941C21.2468 8.92941 21.8997 9.57996 21.8997 10.3926C21.8997 11.2053 21.2421 11.8582 20.4318 11.8582ZM34.5682 11.8582C33.7579 11.8582 33.1003 11.2052 33.1003 10.3926C33.1003 9.58007 33.7579 8.92941 34.5682 8.92941C35.3808 8.92941 36.0337 9.57996 36.0337 10.3926C36.0337 11.2052 35.3808 11.8582 34.5682 11.8582ZM47.6758 17.9341H47.5396C45.7335 17.9341 44.2562 19.4114 44.2562 21.2128V35.4877C44.2562 37.2961 45.7359 38.7686 47.5396 38.7686H47.6782C49.4866 38.7686 50.9569 37.2914 50.9569 35.4877V21.2127C50.9569 19.4114 49.4819 17.9341 47.6758 17.9341Z" fill="#E1005B"/>
</svg>
