<svg width="55" height="55" viewBox="0 0 55 55" fill="none" xmlns="http://www.w3.org/2000/svg">
<path d="M19.1646 54.9963C15.7984 53.5708 12.6485 49.9478 12.641 46.2408C12.6318 42.1992 15.2462 38.7678 18.4979 36.5128C18.107 37.9597 17.8938 39.2832 18.8623 40.5774C19.7626 41.7807 21.3394 42.3654 22.8284 42.0481C26.3074 41.3019 26.467 37.5551 24.4045 35.3721C22.3653 33.2104 20.3926 30.7686 21.1688 27.6336C21.5573 26.062 22.5423 24.59 23.79 23.5378C22.8309 26.007 25.5563 28.4421 27.352 29.6551C30.4669 31.7595 33.8845 33.3499 36.7486 35.8168C39.7612 38.4095 41.9859 41.915 41.5367 45.9808C41.0499 50.3877 37.4754 53.4527 33.4661 55C41.9384 53.168 50.6926 46.726 50.872 37.5207C51.0205 29.9476 45.7176 24.1193 39.1486 20.7826L38.8054 20.599C38.9857 21.0276 39.0447 21.3922 39.0379 21.7185C39.0967 21.4778 39.1367 21.2305 39.1479 20.9753C39.1463 21.2785 39.1059 21.5802 39.0276 21.8735L39.0379 21.7185C38.9404 22.1206 38.7761 22.5042 38.5516 22.8541L38.6479 22.7525C37.3374 24.882 33.7896 25.3445 32.0369 23.1394C29.2194 19.5924 32.0959 15.7682 32.4983 12.0121C33.0021 7.30467 29.9888 2.73473 26.2526 0C28.3104 3.26118 25.5993 7.57573 23.4304 9.98782C21.3272 12.326 18.7694 14.2782 16.4477 16.4026C13.9536 18.6844 11.5559 21.0879 9.50588 23.766C5.40582 29.1263 2.89577 35.8679 4.74035 42.5552C6.58375 49.2378 12.4924 53.4918 19.1648 54.9961L19.1646 54.9963Z" fill="#E1005B"/>
</svg>
