<svg width="100" height="60" viewBox="0 0 100 60" fill="none" xmlns="http://www.w3.org/2000/svg">
<mask id="mask0_309_13" style="mask-type:luminance" maskUnits="userSpaceOnUse" x="25" y="5" width="50" height="50">
<path d="M75 5H25V55H75V5Z" fill="white"/>
</mask>
<g mask="url(#mask0_309_13)">
<path d="M41.328 5.36548L43.578 9.3811C39.3983 11.4686 36.5077 15.4686 36.5077 20.1436H63.492C63.492 15.4874 60.6014 11.4718 56.4248 9.3811L58.6748 5.36548C58.6748 5.36548 58.8358 5.20454 58.5139 5.0436C58.353 4.88266 58.192 5.20454 58.192 5.20454L55.7811 9.22173C53.9119 8.38144 51.8868 7.94384 49.8373 7.93735C47.7879 7.94384 45.7628 8.38144 43.8936 9.22173L41.4873 5.2061C41.4873 5.2061 41.328 5.04673 41.1655 5.04673C41.1824 5.16875 41.239 5.28183 41.3264 5.3686L41.328 5.36548ZM43.5936 13.2343C44.2186 13.2343 44.878 13.8593 44.878 14.5186C44.878 15.178 44.253 15.803 43.5936 15.803C43.4242 15.8055 43.2561 15.7741 43.0991 15.7104C42.9421 15.6467 42.7995 15.5522 42.6798 15.4325C42.56 15.3127 42.4655 15.1701 42.4018 15.0131C42.3382 14.8562 42.3067 14.688 42.3092 14.5186C42.3067 14.3493 42.3382 14.1811 42.4018 14.0242C42.4655 13.8672 42.56 13.7246 42.6798 13.6048C42.7995 13.485 42.9421 13.3905 43.0991 13.3269C43.2561 13.2632 43.4242 13.2317 43.5936 13.2343ZM56.4436 13.2343C57.0686 13.2343 57.728 13.8593 57.728 14.5186C57.728 15.178 57.103 15.803 56.4436 15.803C56.2742 15.8055 56.1061 15.7741 55.9491 15.7104C55.7921 15.6467 55.6495 15.5522 55.5298 15.4325C55.41 15.3127 55.3155 15.1701 55.2518 15.0131C55.1882 14.8562 55.1567 14.688 55.1592 14.5186C55.1567 14.3493 55.1882 14.1811 55.2518 14.0242C55.3155 13.8672 55.41 13.7246 55.5298 13.6048C55.6495 13.485 55.7921 13.3905 55.9491 13.3269C56.1061 13.2632 56.2742 13.2317 56.4436 13.2343ZM36.3467 21.7499V42.3124C36.3467 43.2765 37.6311 44.7218 38.5967 44.7218H41.8092V51.789C41.8092 53.5546 43.0936 55.0015 44.6998 55.0015C46.3061 55.0015 47.5905 53.5561 47.5905 51.789V44.7186H52.2467V51.7858C52.2467 53.5515 53.5311 54.9983 55.1373 54.9983C56.7436 54.9983 58.028 53.553 58.028 51.7858V44.7186H61.2405C62.2045 44.7186 63.4905 43.4343 63.4905 42.3093V21.7499H36.3467Z" fill="#191919"/>
<path d="M31.8486 21.2686C33.4548 21.2686 34.7392 22.7139 34.7392 24.4811V36.6889C34.7392 38.4545 33.4548 39.9014 31.8486 39.9014C30.2423 39.9014 28.958 38.4561 28.958 36.6889V24.4811C28.958 22.7155 30.2423 21.2686 31.8486 21.2686Z" fill="#191919"/>
<path d="M68.1513 21.2686C69.7576 21.2686 71.0419 22.7139 71.0419 24.4811V36.6889C71.0419 38.4545 69.7576 39.9014 68.1513 39.9014C66.5451 39.9014 65.2607 38.4561 65.2607 36.6889V24.4811C65.2607 22.7155 66.5451 21.2686 68.1513 21.2686Z" fill="#191919"/>
</g>
</svg>
