<svg width="24" height="24" viewBox="0 0 24 24" fill="none" xmlns="http://www.w3.org/2000/svg">
<g clip-path="url(#clip0_10_783)">
<path d="M22 5.00005H17V4.00002C17 2.897 16.1031 2 15 2H9C7.89698 2 6.99998 2.89695 6.99998 4.00002V5H2.00002C0.896953 5.00005 2.07905e-08 5.897 2.07905e-08 7.00002V10C2.07905e-08 11.1031 0.896953 12 2.00002 12H10V11.5C9.99999 11.4343 10.0129 11.3693 10.038 11.3086C10.0631 11.2479 10.0999 11.1928 10.1464 11.1464C10.1928 11.0999 10.248 11.0631 10.3086 11.038C10.3693 11.0129 10.4344 11 10.5 11H13.5C13.5657 11 13.6308 11.0129 13.6914 11.038C13.7521 11.0631 13.8073 11.0999 13.8537 11.1464C13.9001 11.1928 13.937 11.2479 13.9621 11.3086C13.9872 11.3693 14.0001 11.4343 14.0001 11.5V12H22.0001C23.103 12 24 11.1031 24 10V7.00002C24 5.897 23.103 5.00005 22 5.00005ZM15 5.00005H9V4.00002H15V5.00005ZM23.7226 12.5396C23.6393 12.4982 23.546 12.481 23.4534 12.4897C23.3608 12.4984 23.2724 12.5327 23.1982 12.5889C22.8427 12.8579 22.4287 13 21.9999 13H14V14.5C14.0001 14.5657 13.9872 14.6307 13.962 14.6914C13.9369 14.7521 13.9001 14.8072 13.8537 14.8537C13.8072 14.9001 13.7521 14.9369 13.6914 14.9621C13.6307 14.9872 13.5657 15.0001 13.5 15H10.5C10.4343 15.0001 10.3693 14.9872 10.3086 14.9621C10.2479 14.9369 10.1928 14.9001 10.1463 14.8537C10.0999 14.8072 10.0631 14.7521 10.038 14.6914C10.0128 14.6307 9.99994 14.5657 9.99998 14.5V13H2.00002C1.5713 13 1.15725 12.8579 0.80175 12.5889C0.727759 12.5323 0.639345 12.4977 0.546609 12.4889C0.453873 12.4802 0.360554 12.4978 0.277313 12.5396C0.193997 12.581 0.123899 12.6449 0.0749073 12.724C0.0259153 12.8031 -2.68095e-05 12.8943 2.07905e-08 12.9874L2.07905e-08 20C2.07905e-08 21.1031 0.896953 22.0001 2.00002 22.0001H22C23.103 22.0001 24 21.1031 24 20V12.9874C24.0001 12.8943 23.9741 12.8031 23.9251 12.724C23.8761 12.6449 23.806 12.581 23.7226 12.5396Z" fill="#E1005B"/>
</g>
<defs>
<clipPath id="clip0_10_783">
<rect width="24" height="24" fill="white"/>
</clipPath>
</defs>
</svg>
