<svg width="75" height="75" viewBox="0 0 75 75" fill="none" xmlns="http://www.w3.org/2000/svg">
<g clip-path="url(#clip0_299_72)">
<path d="M42.5 8.125H32.5V16.875H42.5V8.125Z" fill="#F8D293"/>
<path d="M47.5 56.875H27.5V73.125H47.5V56.875Z" fill="#F8D293"/>
<path d="M47.5 40.625H27.5V58.125H47.5V40.625Z" fill="#DBB072"/>
<path d="M47.5 21.875H27.5V16.875L30 14.375H45L47.5 16.875V21.875Z" fill="#DBB072"/>
<path d="M42.5 8.125H32.5L37.5 0.625L42.5 8.125Z" fill="#DBB072"/>
<path d="M37.5 69.375C36.81 69.375 36.25 68.815 36.25 68.125V63.125C36.25 62.435 36.81 61.875 37.5 61.875C38.19 61.875 38.75 62.435 38.75 63.125V68.125C38.75 68.815 38.19 69.375 37.5 69.375Z" fill="#814F51"/>
<path d="M42.5 69.375C41.81 69.375 41.25 68.815 41.25 68.125V63.125C41.25 62.435 41.81 61.875 42.5 61.875C43.19 61.875 43.75 62.435 43.75 63.125V68.125C43.75 68.815 43.19 69.375 42.5 69.375Z" fill="#814F51"/>
<path d="M32.5 69.375C31.81 69.375 31.25 68.815 31.25 68.125V63.125C31.25 62.435 31.81 61.875 32.5 61.875C33.19 61.875 33.75 62.435 33.75 63.125V68.125C33.75 68.815 33.19 69.375 32.5 69.375Z" fill="#814F51"/>
<path d="M37.5 54.375C36.81 54.375 36.25 53.815 36.25 53.125V48.125C36.25 47.435 36.81 46.875 37.5 46.875C38.19 46.875 38.75 47.435 38.75 48.125V53.125C38.75 53.815 38.19 54.375 37.5 54.375Z" fill="#814F51"/>
<path d="M42.5 54.375C41.81 54.375 41.25 53.815 41.25 53.125V48.125C41.25 47.435 41.81 46.875 42.5 46.875C43.19 46.875 43.75 47.435 43.75 48.125V53.125C43.75 53.815 43.19 54.375 42.5 54.375Z" fill="#814F51"/>
<path d="M32.5 54.375C31.81 54.375 31.25 53.815 31.25 53.125V48.125C31.25 47.435 31.81 46.875 32.5 46.875C33.19 46.875 33.75 47.435 33.75 48.125V53.125C33.75 53.815 33.19 54.375 32.5 54.375Z" fill="#814F51"/>
<path d="M17.5 13.125C17.0225 13.125 16.57 13.2225 16.15 13.385C15.6913 11.0988 13.6725 9.375 11.25 9.375C8.8275 9.375 6.80875 11.0988 6.35 13.385C5.93 13.2225 5.4775 13.125 5 13.125C2.92875 13.125 1.25 14.8038 1.25 16.875C1.25 18.9463 2.92875 20.625 5 20.625H17.5C19.5712 20.625 21.25 18.9463 21.25 16.875C21.25 14.8038 19.5712 13.125 17.5 13.125Z" fill="#E7ECED"/>
<path d="M70 4.375C69.5225 4.375 69.07 4.4725 68.65 4.635C68.1912 2.34875 66.1725 0.625 63.75 0.625C61.3275 0.625 59.3088 2.34875 58.85 4.635C58.43 4.4725 57.9775 4.375 57.5 4.375C55.4288 4.375 53.75 6.05375 53.75 8.125C53.75 10.1963 55.4288 11.875 57.5 11.875H70C72.0712 11.875 73.75 10.1963 73.75 8.125C73.75 6.05375 72.0712 4.375 70 4.375Z" fill="#AFB6BB"/>
<path d="M61.25 33.125C60.56 33.125 60 32.565 60 31.875C60 30.4963 58.8788 29.375 57.5 29.375C56.81 29.375 56.25 28.815 56.25 28.125C56.25 27.435 56.81 26.875 57.5 26.875C58.83 26.875 60.04 27.3975 60.9375 28.2475C62.2175 25.94 64.68 24.375 67.5 24.375C68.19 24.375 68.75 24.935 68.75 25.625C68.75 26.315 68.19 26.875 67.5 26.875C64.7425 26.875 62.5 29.1175 62.5 31.875C62.5 32.565 61.94 33.125 61.25 33.125Z" fill="#1F436D"/>
<path d="M6.25 74.375H1.25C0.56 74.375 0 73.815 0 73.125C0 72.435 0.56 71.875 1.25 71.875H6.25C6.94 71.875 7.5 72.435 7.5 73.125C7.5 73.815 6.94 74.375 6.25 74.375Z" fill="#7383BF"/>
<path d="M73.75 74.375H53.75C53.06 74.375 52.5 73.815 52.5 73.125C52.5 72.435 53.06 71.875 53.75 71.875H73.75C74.44 71.875 75 72.435 75 73.125C75 73.815 74.44 74.375 73.75 74.375Z" fill="#7383BF"/>
<path d="M21.25 74.375H13.75C13.06 74.375 12.5 73.815 12.5 73.125C12.5 72.435 13.06 71.875 13.75 71.875H21.25C21.94 71.875 22.5 72.435 22.5 73.125C22.5 73.815 21.94 74.375 21.25 74.375Z" fill="#7383BF"/>
<path d="M50 20.625H25V43.125H50V20.625Z" fill="#F8D293"/>
<path d="M37.5 39.375C41.6421 39.375 45 36.0171 45 31.875C45 27.7329 41.6421 24.375 37.5 24.375C33.3579 24.375 30 27.7329 30 31.875C30 36.0171 33.3579 39.375 37.5 39.375Z" fill="white"/>
<path d="M37.5 33.125C36.81 33.125 36.25 32.565 36.25 31.875V29.375C36.25 28.685 36.81 28.125 37.5 28.125C38.19 28.125 38.75 28.685 38.75 29.375V31.875C38.75 32.565 38.19 33.125 37.5 33.125Z" fill="#28384C"/>
<path d="M40 33.125H37.5C36.81 33.125 36.25 32.565 36.25 31.875C36.25 31.185 36.81 30.625 37.5 30.625H40C40.69 30.625 41.25 31.185 41.25 31.875C41.25 32.565 40.69 33.125 40 33.125Z" fill="#28384C"/>
</g>
<defs>
<clipPath id="clip0_299_72">
<rect width="75" height="75" fill="white"/>
</clipPath>
</defs>
</svg>
