<svg width="75" height="75" viewBox="0 0 75 75" fill="none" xmlns="http://www.w3.org/2000/svg">
<g clip-path="url(#clip0_299_6)">
<path d="M24.4048 72.7381C24.4048 73.2143 24.0476 73.5714 23.5714 73.5714C23.0952 73.5714 22.7381 73.2143 22.7381 72.7381V1.66665C22.7381 1.19046 23.0952 0.833313 23.5714 0.833313C24.0476 0.833313 24.4048 1.19046 24.4048 1.66665V72.7381Z" fill="#306F96"/>
<path d="M49.5238 73.5714C61.0714 32.1429 37.0238 5.11907 24.0476 4.40479V73.5714H49.5238Z" fill="#4488AA"/>
<path d="M49.5238 73.5714C61.0714 32.1429 37.0238 5.11907 24.0476 4.40479Z" fill="#306F96"/>
<path d="M29.5238 21.7857V73.5714H43.9286C50.4762 50.119 43.8095 30.5952 36.6667 21.7857H29.5238Z" fill="#8EDBDD"/>
<path d="M29.5238 73.5714H43.9286C50.4762 50.119 43.8095 30.5952 36.6667 21.7857" fill="#8BEAEA"/>
<path d="M30.3571 21.7857L45.9524 64.0476C48.6904 45 42.8571 29.4048 36.6666 21.7857H30.3571Z" fill="#71C9C9"/>
<path d="M45.9523 63.9286C47.1428 55.5953 46.6666 47.9762 45.3571 41.3095C44.7619 38.5715 44.0476 35.9524 43.0952 33.5715V33.4524C42.8571 32.7381 42.5 32.0238 42.2619 31.3095C42.2619 31.1905 42.1428 31.1905 42.1428 31.0715C41.7857 30.3572 41.5476 29.6429 41.1904 29.0476C41.1904 29.0476 41.1904 29.0476 41.1904 28.9286C40.8333 28.3334 40.5952 27.6191 40.2381 27.0238C40.2381 27.0238 40.2381 26.9048 40.119 26.9048C39.7619 26.3095 39.5238 25.7143 39.1666 25.2381C39.1666 25.1191 39.0476 25 39.0476 25C38.6904 24.5238 38.4524 24.0476 38.0952 23.5715C38.0952 23.4524 37.9762 23.4524 37.9762 23.3334C37.619 22.8572 37.2619 22.381 36.9047 21.9048L35.119 34.4048L45.9523 63.9286Z" fill="#3DC4C0"/>
<path d="M75 73.2143C75 73.6904 74.6429 74.0476 74.1667 74.0476H0.833333C0.357143 74.0476 0 73.6904 0 73.2143C0 72.7381 0.357143 72.3809 0.833333 72.3809H74.1667C74.6429 72.3809 75 72.8571 75 73.2143Z" fill="#306F96"/>
<path d="M38.0952 22.2619C38.0952 22.5 37.8571 22.7381 37.619 22.7381H20.8333C20.5952 22.7381 20.3571 22.5 20.3571 22.2619C20.3571 22.0238 20.5952 21.7857 20.8333 21.7857H37.5C37.8571 21.7857 38.0952 22.0238 38.0952 22.2619Z" fill="#306F96"/>
<path d="M42.619 25.4762H28.8095V26.0714H42.619V25.4762Z" fill="#306F96"/>
<path d="M42.619 29.1667H28.8095V29.7619H42.619V29.1667Z" fill="#306F96"/>
<path d="M46.3095 32.8571H28.8095V33.4524H46.3095V32.8571Z" fill="#306F96"/>
<path d="M49.5238 36.5476H28.8095V37.1428H49.5238V36.5476Z" fill="#306F96"/>
<path d="M48.3333 40.3571H28.8095V40.9524H48.3333V40.3571Z" fill="#306F96"/>
<path d="M47.5 44.0476H28.8095V44.6428H47.5V44.0476Z" fill="#306F96"/>
<path d="M49.1667 47.7381H28.8095V48.3333H49.1667V47.7381Z" fill="#306F96"/>
<path d="M49.2857 51.4286H28.8095V52.0238H49.2857V51.4286Z" fill="#306F96"/>
<path d="M49.0476 55.119H28.8095V55.7143H49.0476V55.119Z" fill="#306F96"/>
<path d="M50 58.8095H28.8095V59.4047H50V58.8095Z" fill="#306F96"/>
<path d="M47.9762 62.619H28.8095V63.2143H47.9762V62.619Z" fill="#306F96"/>
<path d="M49.0476 66.3095H28.8095V66.9047H49.0476V66.3095Z" fill="#306F96"/>
<path d="M48.3333 70H28.8095V70.5952H48.3333V70Z" fill="#306F96"/>
<path d="M18.0953 73.2143L17.1429 74.1667L16.1905 73.2143L17.1429 66.9048L18.0953 73.2143Z" fill="#306F96"/>
<path d="M17.2619 67.5C17.1429 64.7619 14.881 64.6429 14.4048 65.2381L17.1429 67.9762L17.2619 67.5Z" fill="#4488AA"/>
<path d="M17.1429 67.381C15.1191 65.5953 13.4524 67.0238 13.4524 67.7381H17.2619L17.1429 67.381Z" fill="#4488AA"/>
<path d="M16.7857 67.5C14.8809 67.619 14.7619 69.1667 15.119 69.5238L17.0238 67.619L16.7857 67.5Z" fill="#4488AA"/>
<path d="M17.1429 67.5C17.2619 64.7619 19.5238 64.6429 20 65.2381L17.2619 67.9762L17.1429 67.5Z" fill="#4488AA"/>
<path d="M17.2619 67.381C19.2857 65.5953 20.9524 67.0238 20.9524 67.7381H17.1429L17.2619 67.381Z" fill="#4488AA"/>
<path d="M17.6191 67.5C19.5238 67.619 19.6429 69.1667 19.2857 69.5238L17.381 67.619L17.6191 67.5Z" fill="#4488AA"/>
<path d="M17.1429 67.1429C15.3572 65.1191 16.7857 63.4524 17.5 63.4524V67.2619L17.1429 67.1429Z" fill="#4488AA"/>
<path d="M58.3333 73.2143L57.381 74.1667L56.4286 73.2143L57.381 66.9048L58.3333 73.2143Z" fill="#306F96"/>
<path d="M57.5 67.5C57.381 64.7619 55.1191 64.6429 54.6429 65.2381L57.381 67.9762L57.5 67.5Z" fill="#4488AA"/>
<path d="M57.381 67.381C55.3572 65.5953 53.6905 67.0238 53.6905 67.7381H57.5L57.381 67.381Z" fill="#4488AA"/>
<path d="M57.0238 67.5C55.119 67.619 55 69.1667 55.3571 69.5238L57.2619 67.619L57.0238 67.5Z" fill="#4488AA"/>
<path d="M57.381 67.5C57.5 64.7619 59.7619 64.6429 60.2381 65.2381L57.5 67.9762L57.381 67.5Z" fill="#4488AA"/>
<path d="M57.5 67.381C59.5238 65.5953 61.1905 67.0238 61.1905 67.7381H57.381L57.5 67.381Z" fill="#4488AA"/>
<path d="M57.8572 67.5C59.7619 67.619 59.881 69.1667 59.5238 69.5238L57.6191 67.619L57.8572 67.5Z" fill="#4488AA"/>
<path d="M57.381 67.1429C55.5953 65.1191 57.0238 63.4524 57.7381 63.4524V67.2619L57.381 67.1429Z" fill="#4488AA"/>
<path d="M65.119 73.4524L64.4047 74.1667L63.8095 73.4524L64.4047 69.0476L65.119 73.4524Z" fill="#306F96"/>
<path d="M64.5238 69.4048C64.4048 67.5 62.8571 67.381 62.5 67.7381L64.4048 69.6429L64.5238 69.4048Z" fill="#4488AA"/>
<path d="M64.4047 69.4048C62.9762 68.0953 61.7857 69.1667 61.7857 69.6429H64.5238L64.4047 69.4048Z" fill="#4488AA"/>
<path d="M64.1666 69.5238C62.8571 69.5238 62.7381 70.7143 62.9762 70.9524L64.2857 69.6428L64.1666 69.5238Z" fill="#4488AA"/>
<path d="M64.4047 69.4048C64.5238 67.5 66.0714 67.381 66.4285 67.7381L64.5238 69.6429L64.4047 69.4048Z" fill="#4488AA"/>
<path d="M64.5238 69.4048C65.9523 68.0953 67.1428 69.1667 67.1428 69.6429H64.4047L64.5238 69.4048Z" fill="#4488AA"/>
<path d="M64.7619 69.5238C66.0714 69.5238 66.1904 70.7143 65.9523 70.9524L64.6428 69.6428L64.7619 69.5238Z" fill="#4488AA"/>
<path d="M64.4047 69.2857C63.0952 67.8572 64.1666 66.6667 64.6428 66.6667V69.4048L64.4047 69.2857Z" fill="#4488AA"/>
</g>
<defs>
<clipPath id="clip0_299_6">
<rect width="75" height="75" fill="white"/>
</clipPath>
</defs>
</svg>
