<svg width="100" height="60" viewBox="0 0 100 60" fill="none" xmlns="http://www.w3.org/2000/svg">
<path d="M22 34.8089V43.3955C22 48.1491 34.3397 52 49.5698 52V43.3955C34.3397 43.3955 22 39.5535 22 34.8089ZM49.5698 26.2044L71.1365 31.5405C74.8895 30.0731 77.144 28.2055 77.144 26.2044V17.6044C77.144 12.8553 64.7999 9 49.5742 9C34.3486 9 22 12.842 22 17.6044V26.2044C22 30.9447 34.3397 34.8089 49.5698 34.8089V26.2044ZM71.132 40.1672L49.5698 34.8089V43.3955L71.1365 48.7538C74.8851 47.2998 77.1395 45.4366 77.1395 43.3955V34.8089C77.1395 36.8321 74.8851 38.6953 71.132 40.1672Z" fill="#191919"/>
</svg>
