<svg width="100" height="60" viewBox="0 0 100 60" fill="none" xmlns="http://www.w3.org/2000/svg">
<path d="M60.9639 23.4049L60.6406 23.2244C60.8108 23.6446 60.8662 24.0029 60.8602 24.3232C60.9238 24.0596 60.9593 23.7897 60.966 23.5182C60.9709 23.8463 60.9318 24.1734 60.8496 24.4906L60.8602 24.3232C60.7682 24.7179 60.6135 25.0941 60.4022 25.4377L60.5024 25.3287C59.2742 27.4291 55.9234 27.8881 54.2708 25.7188C51.6182 22.2364 54.3254 18.4819 54.7045 14.7942C55.1784 10.1724 52.3427 5.68529 48.8265 3C50.7631 6.20178 48.2115 10.4383 46.17 12.8058C44.1903 15.1023 41.7833 17.0192 39.5981 19.1043C37.2512 21.3459 34.9935 23.7048 33.065 26.3343C29.2058 31.5967 26.8427 38.2156 28.5793 44.7817C30.3142 51.3439 35.8754 55.5207 42.1556 56.9974C38.9874 55.5974 36.0225 52.0404 36.0157 48.4011C36.0076 44.4322 38.4679 41.0635 41.5287 38.8498C41.1607 40.2702 40.9598 41.5695 41.8712 42.84C42.719 44.0216 44.2031 44.5952 45.6041 44.2836C48.8789 43.5518 49.0286 39.8727 47.0878 37.7292C45.1682 35.6075 43.3114 33.209 44.0415 30.131C44.4074 28.5881 45.3345 27.1436 46.5095 26.1098C45.6062 28.5344 48.1714 30.9255 49.8611 32.1154C52.7935 34.1818 56.0091 35.7439 58.7053 38.1655C61.5405 40.7109 63.6349 44.1524 63.2118 48.1448C62.7529 52.4715 59.3889 55.4811 55.6159 57C63.5892 55.2008 71.8295 48.8761 71.9971 39.8379C72.1374 32.4031 67.1469 26.6808 60.9639 23.4049Z" fill="#191919"/>
</svg>
