<svg width="100" height="60" viewBox="0 0 100 60" fill="none" xmlns="http://www.w3.org/2000/svg">
<path d="M60.9508 14.297C58.3833 12.7063 55.96 12.0809 53.5377 10.4913C52.0351 9.48019 49.9521 7.07121 48.2066 5C47.8679 8.32308 46.8503 9.67193 45.6874 10.6356C43.2158 12.5625 41.6649 13.141 39.5331 14.2976C37.74 15.2122 28 20.9922 28 33.4195C28 45.8484 38.5154 55 50.1932 55C61.8726 55 72 46.5702 72 33.8052C72 21.0402 62.5023 15.2602 60.9508 14.297ZM61.2318 50.4669C60.9891 50.7083 58.7597 52.2489 56.1435 52.4902C53.5261 52.7315 49.9892 52.8759 47.8568 50.949C47.5182 50.6118 47.6152 50.1303 47.8568 49.938C48.0996 49.7446 48.2936 49.6002 48.5841 49.6002C48.8745 49.6002 48.8268 49.6002 48.9721 49.6966C49.9404 50.4669 51.3943 51.0934 54.4956 51.0934C57.5979 51.0934 59.7779 50.2261 60.7463 49.5038C61.1836 49.1666 61.3765 49.4558 61.4247 49.6487C61.4735 49.841 61.5705 50.1297 61.2318 50.4669ZM52.7507 46.0832C53.2844 45.6016 54.1569 44.8313 54.98 44.4935C55.8031 44.1569 56.2405 44.2048 57.0154 44.2048C57.7903 44.2048 58.6139 44.2522 59.1965 44.6384C59.7779 45.023 60.1172 45.8903 60.3106 46.3724C60.5046 46.854 60.3106 47.1422 59.9237 47.335C59.5845 47.5284 59.5357 47.4315 59.1965 46.8061C58.8573 46.179 58.5657 45.5531 56.8701 45.5531C55.1735 45.5531 54.6413 46.1316 53.8171 46.8061C52.9934 47.4805 52.703 47.7213 52.4125 47.335C52.1215 46.9504 52.218 46.5647 52.7507 46.0832ZM65.593 46.4689C63.8486 46.3245 60.3588 40.9291 58.1295 40.8327C55.3198 40.7362 49.2132 46.6612 44.4164 46.6612C41.5097 46.6612 40.6367 46.2281 39.6678 45.6016C38.2139 44.5899 37.4872 43.0482 37.5354 40.9291C37.5848 37.1718 41.1217 33.6553 45.5793 33.6068C51.2491 33.56 55.174 39.1956 58.0336 39.1472C60.4564 39.0992 65.1085 34.3788 67.3855 34.3788C69.8083 34.3788 70.4879 36.8837 70.4879 38.3769C70.4879 39.8701 70.0023 42.5672 68.8394 44.2527C67.676 45.9388 66.9493 46.5647 65.593 46.4689Z" fill="#191919"/>
</svg>
