<svg width="24" height="24" viewBox="0 0 24 24" fill="none" xmlns="http://www.w3.org/2000/svg">
<g clip-path="url(#clip0_10_757)">
<path d="M11.829 11.5609C13.4172 11.5609 14.7925 10.9912 15.9162 9.86729C17.0399 8.74361 17.6096 7.36867 17.6096 5.78027C17.6096 4.19234 17.0399 2.81727 15.916 1.69317C14.7921 0.569623 13.417 0 11.829 0C10.2405 0 8.86554 0.569623 7.74186 1.69335C6.61817 2.81708 6.04832 4.1922 6.04832 5.78027C6.04832 7.36867 6.61813 8.74379 7.74204 9.86752C8.86596 10.9911 10.2411 11.5609 11.829 11.5609ZM21.9435 18.4548C21.911 17.9871 21.8455 17.4769 21.749 16.9383C21.6516 16.3955 21.5262 15.8825 21.376 15.4136C21.2209 14.9289 21.01 14.4503 20.7493 13.9916C20.4786 13.5155 20.1608 13.1009 19.8041 12.7598C19.4311 12.403 18.9744 12.1161 18.4463 11.9067C17.9201 11.6986 17.3369 11.5931 16.7131 11.5931C16.4681 11.5931 16.2312 11.6936 15.7736 11.9916C15.4483 12.2034 15.1221 12.4137 14.7949 12.6225C14.4805 12.8228 14.0546 13.0105 13.5285 13.1804C13.0153 13.3465 12.4942 13.4308 11.9798 13.4308C11.4655 13.4308 10.9445 13.3465 10.4307 13.1804C9.90527 13.0107 9.47937 12.823 9.1653 12.6227C8.80109 12.39 8.47156 12.1776 8.18571 11.9913C7.72868 11.6934 7.49155 11.5929 7.24658 11.5929C6.62253 11.5929 6.03955 11.6985 5.51347 11.907C4.98576 12.1159 4.52892 12.4028 4.15556 12.76C3.79908 13.1013 3.48103 13.5157 3.21075 13.9916C2.95022 14.4502 2.73928 14.9287 2.58399 15.4138C2.43399 15.8827 2.3086 16.3955 2.21119 16.9383C2.11468 17.4762 2.04914 17.9866 2.01671 18.4553C1.98444 18.927 1.96845 19.3997 1.96875 19.8725C1.96875 21.1254 2.367 22.1395 3.15234 22.8875C3.92798 23.6257 4.95426 24.0001 6.2023 24.0001H17.7584C19.0065 24.0001 20.0324 23.6258 20.8082 22.8876C21.5937 22.1401 21.992 21.1257 21.992 19.8723C21.9918 19.3888 21.9755 18.9118 21.9435 18.4548Z" fill="#E1005B"/>
</g>
<defs>
<clipPath id="clip0_10_757">
<rect width="24" height="24" fill="white"/>
</clipPath>
</defs>
</svg>
