<svg width="100" height="60" viewBox="0 0 100 60" fill="none" xmlns="http://www.w3.org/2000/svg">
<path d="M34.5764 30.1279L33.6801 29.2331C30.8001 26.3531 29.9676 22.321 30.9921 18.673C28.112 18.0317 26 15.4719 26 12.3999C26 8.88005 28.88 6 32.3999 6C35.6002 6 38.2252 8.30404 38.7352 11.3753C42.1913 10.5428 45.9676 11.5028 48.6556 14.1916L49.0396 14.5756L44.3033 19.312L43.9193 18.928C42.3833 17.3919 39.8872 17.3919 38.3512 18.928C36.8152 20.464 36.8152 22.96 38.3512 24.4961L48.9766 35.1207L44.2403 39.8571L39.2482 34.865L34.5764 30.1279Z" fill="#191919"/>
<path d="M39.8877 24.88L50.5124 14.2554C53.3279 11.4398 57.4252 10.5428 61.008 11.5681C61.4558 8.43303 64.1431 6.06299 67.3441 6.06299C70.864 6.06299 73.744 8.94304 73.744 12.4628C73.744 15.7269 71.3117 18.4149 68.1759 18.7989C69.1997 22.384 68.3034 26.4153 65.4879 29.2316L65.1039 29.6156L60.4958 24.8793L60.8798 24.4953C62.4158 22.9593 62.4158 20.4632 60.8798 18.9272C59.3438 17.3912 56.8477 17.3912 55.3117 18.9272L44.6878 29.5519L39.8877 24.88Z" fill="#191919"/>
<path d="M61.2003 48.7521C57.5523 49.8396 53.4564 49.0071 50.5764 46.1271L50.1924 45.7431L54.9287 41.0067L55.3127 41.3907C56.8488 42.9268 59.3448 42.9268 60.8808 41.3907C62.4168 39.8547 62.4168 37.3587 60.8808 35.8226L50.2554 25.2002L54.9917 20.4639L65.6794 31.1516C68.3674 33.8396 69.3275 37.6797 68.4957 41.1995C71.6307 41.6472 74.0008 44.3345 74.0008 47.5356C74.0008 51.0554 71.1207 53.9354 67.6009 53.9354C64.4006 53.8717 61.7771 51.6314 61.2011 48.7514L61.2003 48.7521Z" fill="#191919"/>
<path d="M59.3455 35.4405L48.7201 46.0636C45.9676 48.8162 42.1275 49.7117 38.6722 48.8799C38.0324 51.76 35.4719 53.872 32.3999 53.872C28.88 53.8728 26 50.9927 26 47.4737C26 44.4661 28.112 41.9056 30.9276 41.2658C30.0313 37.6808 30.9276 33.8407 33.6801 31.0896L34.0641 30.7056L38.8005 35.442L38.4165 35.826C36.8804 37.362 36.8804 39.858 38.4165 41.3941C39.9525 42.9301 42.4485 42.9301 43.9845 41.3941L54.6085 30.7701L59.3455 35.4405Z" fill="#191919"/>
</svg>
