<svg width="80" height="80" viewBox="0 0 80 80" fill="none" xmlns="http://www.w3.org/2000/svg">
<circle cx="40" cy="40" r="40" fill="#E1005B"/>
<g clip-path="url(#clip0_10_810)">
<path d="M40.8678 43.7895C40.5844 43.9666 40.2656 44.0374 39.9823 44.0374C39.6989 44.0374 39.3802 43.9666 39.0968 43.7895L25 35.1826V46.623C25 49.0669 26.9835 51.0504 29.4274 51.0504H50.5726C53.0165 51.0504 55 49.0669 55 46.623V35.1826L40.8678 43.7895Z" fill="white"/>
<path d="M50.5726 28.9492H29.4274C27.3376 28.9492 25.5667 30.4368 25.1417 32.4203L40.0177 41.4876L54.8583 32.4203C54.4333 30.4368 52.6623 28.9492 50.5726 28.9492Z" fill="white"/>
</g>
<defs>
<clipPath id="clip0_10_810">
<rect width="30" height="30" fill="white" transform="translate(25 25)"/>
</clipPath>
</defs>
</svg>
