<svg width="75" height="75" viewBox="0 0 75 75" fill="none" xmlns="http://www.w3.org/2000/svg">
<g clip-path="url(#clip0_299_95)">
<path d="M46.875 4.6875V10.5469H28.125V4.6875C28.1214 4.29172 28.1727 3.89734 28.2773 3.51563C28.5355 2.50921 29.1214 1.61738 29.9426 0.980812C30.7638 0.344244 31.7735 -0.000836054 32.8125 1.52112e-06H42.1875C43.2265 -0.000836054 44.2362 0.344244 45.0574 0.980812C45.8786 1.61738 46.4645 2.50921 46.7226 3.51563C46.8273 3.89734 46.8786 4.29172 46.875 4.6875Z" fill="#C86A25"/>
<path d="M14.0625 10.5469H60.9375V19.9219H14.0625V10.5469Z" fill="#E29344"/>
<path d="M5.85938 19.9219L9.375 26.9531V73.8281H25.7812V38.6719C25.7812 36.1855 26.769 33.8009 28.5271 32.0427C30.2853 30.2846 32.6698 29.2969 35.1562 29.2969H39.8438C42.3302 29.2969 44.7147 30.2846 46.4729 32.0427C48.231 33.8009 49.2188 36.1855 49.2188 38.6719V73.8281H65.625V26.9531L69.1406 19.9219H5.85938Z" fill="#FDB25A"/>
<g opacity="0.2">
<path d="M14.0625 16.4062H60.9375V19.9219H14.0625V16.4062Z" fill="#58595B"/>
</g>
<g opacity="0.2">
<path d="M46.875 7.03125V10.5469H28.125V7.03125C28.1214 6.63546 28.1727 6.24109 28.2773 5.85938H46.7226C46.8273 6.24109 46.8786 6.63546 46.875 7.03125Z" fill="#58595B"/>
</g>
<g opacity="0.2">
<path d="M9.375 65.625H25.7812V73.8281H9.375V65.625Z" fill="#58595B"/>
</g>
<g opacity="0.2">
<path d="M49.2188 65.625H65.625V73.8281H49.2188V65.625Z" fill="#58595B"/>
</g>
<path d="M9.375 44.5312H25.7812V56.25H9.375V44.5312Z" fill="#C86A25"/>
<path d="M49.2188 44.5312H65.625V56.25H49.2188V44.5312Z" fill="#C86A25"/>
<path d="M56.25 41.0156H55.0781C54.7673 41.0156 54.4693 40.8922 54.2495 40.6724C54.0297 40.4526 53.9062 40.1546 53.9062 39.8438C53.9062 39.5329 54.0297 39.2349 54.2495 39.0151C54.4693 38.7953 54.7673 38.6719 55.0781 38.6719H56.25C56.5608 38.6719 56.8589 38.7953 57.0786 39.0151C57.2984 39.2349 57.4219 39.5329 57.4219 39.8438C57.4219 40.1546 57.2984 40.4526 57.0786 40.6724C56.8589 40.8922 56.5608 41.0156 56.25 41.0156Z" fill="#C86A25"/>
<path d="M60.9375 41.0156H59.7656C59.4548 41.0156 59.1568 40.8922 58.937 40.6724C58.7172 40.4526 58.5938 40.1546 58.5938 39.8438C58.5938 39.5329 58.7172 39.2349 58.937 39.0151C59.1568 38.7953 59.4548 38.6719 59.7656 38.6719H60.9375C61.2483 38.6719 61.5464 38.7953 61.7661 39.0151C61.9859 39.2349 62.1094 39.5329 62.1094 39.8438C62.1094 40.1546 61.9859 40.4526 61.7661 40.6724C61.5464 40.8922 61.2483 41.0156 60.9375 41.0156Z" fill="#C86A25"/>
<path d="M18.75 30.4688H16.5527C16.2419 30.4688 15.9439 30.3453 15.7241 30.1255C15.5043 29.9057 15.3809 29.6077 15.3809 29.2969C15.3809 28.9861 15.5043 28.688 15.7241 28.4682C15.9439 28.2485 16.2419 28.125 16.5527 28.125H18.75C19.0608 28.125 19.3589 28.2485 19.5786 28.4682C19.7984 28.688 19.9219 28.9861 19.9219 29.2969C19.9219 29.6077 19.7984 29.9057 19.5786 30.1255C19.3589 30.3453 19.0608 30.4688 18.75 30.4688Z" fill="#844215"/>
<path d="M18.75 66.7969H16.4062C16.0954 66.7969 15.7974 66.6734 15.5776 66.4536C15.3578 66.2339 15.2344 65.9358 15.2344 65.625C15.2344 65.3142 15.3578 65.0161 15.5776 64.7964C15.7974 64.5766 16.0954 64.4531 16.4062 64.4531H18.75C19.0608 64.4531 19.3589 64.5766 19.5786 64.7964C19.7984 65.0161 19.9219 65.3142 19.9219 65.625C19.9219 65.9358 19.7984 66.2339 19.5786 66.4536C19.3589 66.6734 19.0608 66.7969 18.75 66.7969Z" fill="#C86A25"/>
<path d="M58.5938 66.7969H56.25C55.9392 66.7969 55.6411 66.6734 55.4214 66.4536C55.2016 66.2339 55.0781 65.9358 55.0781 65.625C55.0781 65.3142 55.2016 65.0161 55.4214 64.7964C55.6411 64.5766 55.9392 64.4531 56.25 64.4531H58.5938C58.9046 64.4531 59.2026 64.5766 59.4224 64.7964C59.6422 65.0161 59.7656 65.3142 59.7656 65.625C59.7656 65.9358 59.6422 66.2339 59.4224 66.4536C59.2026 66.6734 58.9046 66.7969 58.5938 66.7969Z" fill="#C86A25"/>
<path d="M58.5938 30.4688H56.25C55.9392 30.4688 55.6411 30.3453 55.4214 30.1255C55.2016 29.9057 55.0781 29.6077 55.0781 29.2969C55.0781 28.9861 55.2016 28.688 55.4214 28.4682C55.6411 28.2485 55.9392 28.125 56.25 28.125H58.5938C58.9046 28.125 59.2026 28.2485 59.4224 28.4682C59.6422 28.688 59.7656 28.9861 59.7656 29.2969C59.7656 29.6077 59.6422 29.9057 59.4224 30.1255C59.2026 30.3453 58.9046 30.4688 58.5938 30.4688Z" fill="#844215"/>
<path d="M51.5625 17.5781H49.2188C48.9079 17.5781 48.6099 17.4547 48.3901 17.2349C48.1703 17.0151 48.0469 16.7171 48.0469 16.4062C48.0469 16.0954 48.1703 15.7974 48.3901 15.5776C48.6099 15.3578 48.9079 15.2344 49.2188 15.2344H51.5625C51.8733 15.2344 52.1714 15.3578 52.3911 15.5776C52.6109 15.7974 52.7344 16.0954 52.7344 16.4062C52.7344 16.7171 52.6109 17.0151 52.3911 17.2349C52.1714 17.4547 51.8733 17.5781 51.5625 17.5781Z" fill="#844215"/>
<path d="M25.7812 17.5781H23.4375C23.1267 17.5781 22.8286 17.4547 22.6089 17.2349C22.3891 17.0151 22.2656 16.7171 22.2656 16.4062C22.2656 16.0954 22.3891 15.7974 22.6089 15.5776C22.8286 15.3578 23.1267 15.2344 23.4375 15.2344H25.7812C26.0921 15.2344 26.3901 15.3578 26.6099 15.5776C26.8297 15.7974 26.9531 16.0954 26.9531 16.4062C26.9531 16.7171 26.8297 17.0151 26.6099 17.2349C26.3901 17.4547 26.0921 17.5781 25.7812 17.5781Z" fill="#844215"/>
<path d="M0 72.6562H75V75H0V72.6562Z" fill="#FDB25A"/>
<path d="M14.0625 5.85938H16.4062V10.5469H14.0625V5.85938Z" fill="#844215"/>
<path d="M58.5938 5.85938H60.9375V10.5469H58.5938V5.85938Z" fill="#844215"/>
</g>
<defs>
<clipPath id="clip0_299_95">
<rect width="75" height="75" fill="white"/>
</clipPath>
</defs>
</svg>
