<svg width="132" height="26" viewBox="0 0 132 26" fill="none" xmlns="http://www.w3.org/2000/svg">
<path d="M119.2 0L116.96 2.275L125.92 11.375H60V14.625H125.92L116.96 23.725L119.2 26L132 13L119.2 0Z" fill="white"/>
<path d="M11.92 19.92H9.64L2.78 9.54V19.92H0.5V6H2.78L9.64 16.36V6H11.92V19.92Z" fill="white"/>
<path d="M17.1941 7.86V11.94H21.9941V13.8H17.1941V18.06H22.5941V19.92H14.9141V6H22.5941V7.86H17.1941Z" fill="white"/>
<path d="M31.7823 12.98L36.1023 19.92H33.5423L30.4023 14.88L27.4623 19.92H24.9223L29.2423 12.98L24.9023 6.02H27.4623L30.6223 11.1L33.5823 6.02H36.1223L31.7823 12.98Z" fill="white"/>
<path d="M47.5855 6.02V7.88H43.8855V19.92H41.6055V7.88H37.8855V6.02H47.5855Z" fill="white"/>
</svg>
