<svg width="174" height="114" viewBox="0 0 174 114" fill="none" xmlns="http://www.w3.org/2000/svg">
<g clip-path="url(#clip0_53_541)">
<mask id="mask0_53_541" style="mask-type:luminance" maskUnits="userSpaceOnUse" x="0" y="0" width="174" height="114">
<path d="M174 0H0V114H174V0Z" fill="white"/>
</mask>
<g mask="url(#mask0_53_541)">
<g opacity="0.12">
<path d="M2 4C3.10457 4 4 3.10457 4 2C4 0.89543 3.10457 0 2 0C0.89543 0 0 0.89543 0 2C0 3.10457 0.89543 4 2 4Z" fill="black"/>
<path d="M17 4C18.1046 4 19 3.10457 19 2C19 0.89543 18.1046 0 17 0C15.8954 0 15 0.89543 15 2C15 3.10457 15.8954 4 17 4Z" fill="black"/>
<path d="M32 4C33.1046 4 34 3.10457 34 2C34 0.89543 33.1046 0 32 0C30.8954 0 30 0.89543 30 2C30 3.10457 30.8954 4 32 4Z" fill="black"/>
<path d="M47 4C48.1046 4 49 3.10457 49 2C49 0.89543 48.1046 0 47 0C45.8954 0 45 0.89543 45 2C45 3.10457 45.8954 4 47 4Z" fill="black"/>
<path d="M62 4C63.1046 4 64 3.10457 64 2C64 0.89543 63.1046 0 62 0C60.8954 0 60 0.89543 60 2C60 3.10457 60.8954 4 62 4Z" fill="black"/>
<path d="M77 4C78.1046 4 79 3.10457 79 2C79 0.89543 78.1046 0 77 0C75.8954 0 75 0.89543 75 2C75 3.10457 75.8954 4 77 4Z" fill="black"/>
<path d="M92 4C93.1046 4 94 3.10457 94 2C94 0.89543 93.1046 0 92 0C90.8954 0 90 0.89543 90 2C90 3.10457 90.8954 4 92 4Z" fill="black"/>
<path d="M107 4C108.105 4 109 3.10457 109 2C109 0.89543 108.105 0 107 0C105.895 0 105 0.89543 105 2C105 3.10457 105.895 4 107 4Z" fill="black"/>
<path d="M122 4C123.105 4 124 3.10457 124 2C124 0.89543 123.105 0 122 0C120.895 0 120 0.89543 120 2C120 3.10457 120.895 4 122 4Z" fill="black"/>
<path d="M137 4C138.105 4 139 3.10457 139 2C139 0.89543 138.105 0 137 0C135.895 0 135 0.89543 135 2C135 3.10457 135.895 4 137 4Z" fill="black"/>
<path d="M152 4C153.105 4 154 3.10457 154 2C154 0.89543 153.105 0 152 0C150.895 0 150 0.89543 150 2C150 3.10457 150.895 4 152 4Z" fill="black"/>
<path d="M167 4C168.105 4 169 3.10457 169 2C169 0.89543 168.105 0 167 0C165.895 0 165 0.89543 165 2C165 3.10457 165.895 4 167 4Z" fill="black"/>
<path d="M2 22C3.10457 22 4 21.1046 4 20C4 18.8954 3.10457 18 2 18C0.89543 18 0 18.8954 0 20C0 21.1046 0.89543 22 2 22Z" fill="black"/>
<path d="M17 22C18.1046 22 19 21.1046 19 20C19 18.8954 18.1046 18 17 18C15.8954 18 15 18.8954 15 20C15 21.1046 15.8954 22 17 22Z" fill="black"/>
<path d="M32 22C33.1046 22 34 21.1046 34 20C34 18.8954 33.1046 18 32 18C30.8954 18 30 18.8954 30 20C30 21.1046 30.8954 22 32 22Z" fill="black"/>
<path d="M47 22C48.1046 22 49 21.1046 49 20C49 18.8954 48.1046 18 47 18C45.8954 18 45 18.8954 45 20C45 21.1046 45.8954 22 47 22Z" fill="black"/>
<path d="M62 22C63.1046 22 64 21.1046 64 20C64 18.8954 63.1046 18 62 18C60.8954 18 60 18.8954 60 20C60 21.1046 60.8954 22 62 22Z" fill="black"/>
<path d="M77 22C78.1046 22 79 21.1046 79 20C79 18.8954 78.1046 18 77 18C75.8954 18 75 18.8954 75 20C75 21.1046 75.8954 22 77 22Z" fill="black"/>
<path d="M92 22C93.1046 22 94 21.1046 94 20C94 18.8954 93.1046 18 92 18C90.8954 18 90 18.8954 90 20C90 21.1046 90.8954 22 92 22Z" fill="black"/>
<path d="M107 22C108.105 22 109 21.1046 109 20C109 18.8954 108.105 18 107 18C105.895 18 105 18.8954 105 20C105 21.1046 105.895 22 107 22Z" fill="black"/>
<path d="M122 22C123.105 22 124 21.1046 124 20C124 18.8954 123.105 18 122 18C120.895 18 120 18.8954 120 20C120 21.1046 120.895 22 122 22Z" fill="black"/>
<path d="M137 22C138.105 22 139 21.1046 139 20C139 18.8954 138.105 18 137 18C135.895 18 135 18.8954 135 20C135 21.1046 135.895 22 137 22Z" fill="black"/>
<path d="M152 22C153.105 22 154 21.1046 154 20C154 18.8954 153.105 18 152 18C150.895 18 150 18.8954 150 20C150 21.1046 150.895 22 152 22Z" fill="black"/>
<path d="M167 22C168.105 22 169 21.1046 169 20C169 18.8954 168.105 18 167 18C165.895 18 165 18.8954 165 20C165 21.1046 165.895 22 167 22Z" fill="black"/>
<path d="M2 40C3.10457 40 4 39.1046 4 38C4 36.8954 3.10457 36 2 36C0.89543 36 0 36.8954 0 38C0 39.1046 0.89543 40 2 40Z" fill="black"/>
<path d="M17 40C18.1046 40 19 39.1046 19 38C19 36.8954 18.1046 36 17 36C15.8954 36 15 36.8954 15 38C15 39.1046 15.8954 40 17 40Z" fill="black"/>
<path d="M32 40C33.1046 40 34 39.1046 34 38C34 36.8954 33.1046 36 32 36C30.8954 36 30 36.8954 30 38C30 39.1046 30.8954 40 32 40Z" fill="black"/>
<path d="M47 40C48.1046 40 49 39.1046 49 38C49 36.8954 48.1046 36 47 36C45.8954 36 45 36.8954 45 38C45 39.1046 45.8954 40 47 40Z" fill="black"/>
<path d="M62 40C63.1046 40 64 39.1046 64 38C64 36.8954 63.1046 36 62 36C60.8954 36 60 36.8954 60 38C60 39.1046 60.8954 40 62 40Z" fill="black"/>
<path d="M77 40C78.1046 40 79 39.1046 79 38C79 36.8954 78.1046 36 77 36C75.8954 36 75 36.8954 75 38C75 39.1046 75.8954 40 77 40Z" fill="black"/>
<path d="M92 40C93.1046 40 94 39.1046 94 38C94 36.8954 93.1046 36 92 36C90.8954 36 90 36.8954 90 38C90 39.1046 90.8954 40 92 40Z" fill="black"/>
<path d="M107 40C108.105 40 109 39.1046 109 38C109 36.8954 108.105 36 107 36C105.895 36 105 36.8954 105 38C105 39.1046 105.895 40 107 40Z" fill="black"/>
<path d="M122 40C123.105 40 124 39.1046 124 38C124 36.8954 123.105 36 122 36C120.895 36 120 36.8954 120 38C120 39.1046 120.895 40 122 40Z" fill="black"/>
<path d="M137 40C138.105 40 139 39.1046 139 38C139 36.8954 138.105 36 137 36C135.895 36 135 36.8954 135 38C135 39.1046 135.895 40 137 40Z" fill="black"/>
<path d="M152 40C153.105 40 154 39.1046 154 38C154 36.8954 153.105 36 152 36C150.895 36 150 36.8954 150 38C150 39.1046 150.895 40 152 40Z" fill="black"/>
<path d="M167 40C168.105 40 169 39.1046 169 38C169 36.8954 168.105 36 167 36C165.895 36 165 36.8954 165 38C165 39.1046 165.895 40 167 40Z" fill="black"/>
<path d="M2 58C3.10457 58 4 57.1046 4 56C4 54.8954 3.10457 54 2 54C0.89543 54 0 54.8954 0 56C0 57.1046 0.89543 58 2 58Z" fill="black"/>
<path d="M17 58C18.1046 58 19 57.1046 19 56C19 54.8954 18.1046 54 17 54C15.8954 54 15 54.8954 15 56C15 57.1046 15.8954 58 17 58Z" fill="black"/>
<path d="M32 58C33.1046 58 34 57.1046 34 56C34 54.8954 33.1046 54 32 54C30.8954 54 30 54.8954 30 56C30 57.1046 30.8954 58 32 58Z" fill="black"/>
<path d="M47 58C48.1046 58 49 57.1046 49 56C49 54.8954 48.1046 54 47 54C45.8954 54 45 54.8954 45 56C45 57.1046 45.8954 58 47 58Z" fill="black"/>
<path d="M62 58C63.1046 58 64 57.1046 64 56C64 54.8954 63.1046 54 62 54C60.8954 54 60 54.8954 60 56C60 57.1046 60.8954 58 62 58Z" fill="black"/>
<path d="M77 58C78.1046 58 79 57.1046 79 56C79 54.8954 78.1046 54 77 54C75.8954 54 75 54.8954 75 56C75 57.1046 75.8954 58 77 58Z" fill="black"/>
<path d="M92 58C93.1046 58 94 57.1046 94 56C94 54.8954 93.1046 54 92 54C90.8954 54 90 54.8954 90 56C90 57.1046 90.8954 58 92 58Z" fill="black"/>
<path d="M107 58C108.105 58 109 57.1046 109 56C109 54.8954 108.105 54 107 54C105.895 54 105 54.8954 105 56C105 57.1046 105.895 58 107 58Z" fill="black"/>
<path d="M122 58C123.105 58 124 57.1046 124 56C124 54.8954 123.105 54 122 54C120.895 54 120 54.8954 120 56C120 57.1046 120.895 58 122 58Z" fill="black"/>
<path d="M137 58C138.105 58 139 57.1046 139 56C139 54.8954 138.105 54 137 54C135.895 54 135 54.8954 135 56C135 57.1046 135.895 58 137 58Z" fill="black"/>
<path d="M152 58C153.105 58 154 57.1046 154 56C154 54.8954 153.105 54 152 54C150.895 54 150 54.8954 150 56C150 57.1046 150.895 58 152 58Z" fill="black"/>
<path d="M167 58C168.105 58 169 57.1046 169 56C169 54.8954 168.105 54 167 54C165.895 54 165 54.8954 165 56C165 57.1046 165.895 58 167 58Z" fill="black"/>
<path d="M2 76C3.10457 76 4 75.1046 4 74C4 72.8954 3.10457 72 2 72C0.89543 72 0 72.8954 0 74C0 75.1046 0.89543 76 2 76Z" fill="black"/>
<path d="M17 76C18.1046 76 19 75.1046 19 74C19 72.8954 18.1046 72 17 72C15.8954 72 15 72.8954 15 74C15 75.1046 15.8954 76 17 76Z" fill="black"/>
<path d="M32 76C33.1046 76 34 75.1046 34 74C34 72.8954 33.1046 72 32 72C30.8954 72 30 72.8954 30 74C30 75.1046 30.8954 76 32 76Z" fill="black"/>
<path d="M47 76C48.1046 76 49 75.1046 49 74C49 72.8954 48.1046 72 47 72C45.8954 72 45 72.8954 45 74C45 75.1046 45.8954 76 47 76Z" fill="black"/>
<path d="M62 76C63.1046 76 64 75.1046 64 74C64 72.8954 63.1046 72 62 72C60.8954 72 60 72.8954 60 74C60 75.1046 60.8954 76 62 76Z" fill="black"/>
<path d="M77 76C78.1046 76 79 75.1046 79 74C79 72.8954 78.1046 72 77 72C75.8954 72 75 72.8954 75 74C75 75.1046 75.8954 76 77 76Z" fill="black"/>
<path d="M92 76C93.1046 76 94 75.1046 94 74C94 72.8954 93.1046 72 92 72C90.8954 72 90 72.8954 90 74C90 75.1046 90.8954 76 92 76Z" fill="black"/>
<path d="M107 76C108.105 76 109 75.1046 109 74C109 72.8954 108.105 72 107 72C105.895 72 105 72.8954 105 74C105 75.1046 105.895 76 107 76Z" fill="black"/>
<path d="M122 76C123.105 76 124 75.1046 124 74C124 72.8954 123.105 72 122 72C120.895 72 120 72.8954 120 74C120 75.1046 120.895 76 122 76Z" fill="black"/>
<path d="M137 76C138.105 76 139 75.1046 139 74C139 72.8954 138.105 72 137 72C135.895 72 135 72.8954 135 74C135 75.1046 135.895 76 137 76Z" fill="black"/>
<path d="M152 76C153.105 76 154 75.1046 154 74C154 72.8954 153.105 72 152 72C150.895 72 150 72.8954 150 74C150 75.1046 150.895 76 152 76Z" fill="black"/>
<path d="M167 76C168.105 76 169 75.1046 169 74C169 72.8954 168.105 72 167 72C165.895 72 165 72.8954 165 74C165 75.1046 165.895 76 167 76Z" fill="black"/>
<path d="M2 94C3.10457 94 4 93.1046 4 92C4 90.8954 3.10457 90 2 90C0.89543 90 0 90.8954 0 92C0 93.1046 0.89543 94 2 94Z" fill="black"/>
<path d="M17 94C18.1046 94 19 93.1046 19 92C19 90.8954 18.1046 90 17 90C15.8954 90 15 90.8954 15 92C15 93.1046 15.8954 94 17 94Z" fill="black"/>
<path d="M32 94C33.1046 94 34 93.1046 34 92C34 90.8954 33.1046 90 32 90C30.8954 90 30 90.8954 30 92C30 93.1046 30.8954 94 32 94Z" fill="black"/>
<path d="M47 94C48.1046 94 49 93.1046 49 92C49 90.8954 48.1046 90 47 90C45.8954 90 45 90.8954 45 92C45 93.1046 45.8954 94 47 94Z" fill="black"/>
<path d="M62 94C63.1046 94 64 93.1046 64 92C64 90.8954 63.1046 90 62 90C60.8954 90 60 90.8954 60 92C60 93.1046 60.8954 94 62 94Z" fill="black"/>
<path d="M77 94C78.1046 94 79 93.1046 79 92C79 90.8954 78.1046 90 77 90C75.8954 90 75 90.8954 75 92C75 93.1046 75.8954 94 77 94Z" fill="black"/>
<path d="M92 94C93.1046 94 94 93.1046 94 92C94 90.8954 93.1046 90 92 90C90.8954 90 90 90.8954 90 92C90 93.1046 90.8954 94 92 94Z" fill="black"/>
<path d="M107 94C108.105 94 109 93.1046 109 92C109 90.8954 108.105 90 107 90C105.895 90 105 90.8954 105 92C105 93.1046 105.895 94 107 94Z" fill="black"/>
<path d="M122 94C123.105 94 124 93.1046 124 92C124 90.8954 123.105 90 122 90C120.895 90 120 90.8954 120 92C120 93.1046 120.895 94 122 94Z" fill="black"/>
<path d="M137 94C138.105 94 139 93.1046 139 92C139 90.8954 138.105 90 137 90C135.895 90 135 90.8954 135 92C135 93.1046 135.895 94 137 94Z" fill="black"/>
<path d="M152 94C153.105 94 154 93.1046 154 92C154 90.8954 153.105 90 152 90C150.895 90 150 90.8954 150 92C150 93.1046 150.895 94 152 94Z" fill="black"/>
<path d="M167 94C168.105 94 169 93.1046 169 92C169 90.8954 168.105 90 167 90C165.895 90 165 90.8954 165 92C165 93.1046 165.895 94 167 94Z" fill="black"/>
<path d="M2 112C3.10457 112 4 111.105 4 110C4 108.895 3.10457 108 2 108C0.89543 108 0 108.895 0 110C0 111.105 0.89543 112 2 112Z" fill="black"/>
<path d="M17 112C18.1046 112 19 111.105 19 110C19 108.895 18.1046 108 17 108C15.8954 108 15 108.895 15 110C15 111.105 15.8954 112 17 112Z" fill="black"/>
<path d="M32 112C33.1046 112 34 111.105 34 110C34 108.895 33.1046 108 32 108C30.8954 108 30 108.895 30 110C30 111.105 30.8954 112 32 112Z" fill="black"/>
<path d="M47 112C48.1046 112 49 111.105 49 110C49 108.895 48.1046 108 47 108C45.8954 108 45 108.895 45 110C45 111.105 45.8954 112 47 112Z" fill="black"/>
<path d="M62 112C63.1046 112 64 111.105 64 110C64 108.895 63.1046 108 62 108C60.8954 108 60 108.895 60 110C60 111.105 60.8954 112 62 112Z" fill="black"/>
<path d="M77 112C78.1046 112 79 111.105 79 110C79 108.895 78.1046 108 77 108C75.8954 108 75 108.895 75 110C75 111.105 75.8954 112 77 112Z" fill="black"/>
<path d="M92 112C93.1046 112 94 111.105 94 110C94 108.895 93.1046 108 92 108C90.8954 108 90 108.895 90 110C90 111.105 90.8954 112 92 112Z" fill="black"/>
<path d="M107 112C108.105 112 109 111.105 109 110C109 108.895 108.105 108 107 108C105.895 108 105 108.895 105 110C105 111.105 105.895 112 107 112Z" fill="black"/>
<path d="M122 112C123.105 112 124 111.105 124 110C124 108.895 123.105 108 122 108C120.895 108 120 108.895 120 110C120 111.105 120.895 112 122 112Z" fill="black"/>
<path d="M137 112C138.105 112 139 111.105 139 110C139 108.895 138.105 108 137 108C135.895 108 135 108.895 135 110C135 111.105 135.895 112 137 112Z" fill="black"/>
<path d="M152 112C153.105 112 154 111.105 154 110C154 108.895 153.105 108 152 108C150.895 108 150 108.895 150 110C150 111.105 150.895 112 152 112Z" fill="black"/>
<path d="M167 112C168.105 112 169 111.105 169 110C169 108.895 168.105 108 167 108C165.895 108 165 108.895 165 110C165 111.105 165.895 112 167 112Z" fill="black"/>
</g>
</g>
</g>
<defs>
<clipPath id="clip0_53_541">
<rect width="174" height="114" fill="white"/>
</clipPath>
</defs>
</svg>
