<svg width="100" height="60" viewBox="0 0 100 60" fill="none" xmlns="http://www.w3.org/2000/svg">
<path d="M14 29.6788C14 39.9946 30.1182 48.3575 50.0002 48.3575C69.8822 48.3575 86.0004 39.9946 86.0004 29.6788C86.0004 19.363 69.8822 11 50.0002 11C30.1182 11 14 19.3631 14 29.6788Z" fill="#191919"/>
<path d="M33.559 31.8227C35.13 31.8227 36.3028 31.5369 37.0447 30.9738C37.7789 30.4164 38.2859 29.4503 38.5516 28.103C38.7994 26.8436 38.705 25.9643 38.2712 25.4897C37.8276 25.005 36.8684 24.7592 35.4205 24.7592H32.9101L31.5181 31.8228L33.559 31.8227ZM25.3475 40.5238C25.231 40.5238 25.1203 40.4724 25.0462 40.3835C25.0096 40.3397 24.9832 40.2884 24.9691 40.2333C24.9549 40.1783 24.9532 40.1208 24.9642 40.065L28.6528 21.3464C28.6701 21.2587 28.7178 21.1796 28.7878 21.1227C28.8577 21.0658 28.9456 21.0347 29.0362 21.0347H36.986C39.4845 21.0347 41.3441 21.7026 42.513 23.0237C43.6881 24.3504 44.051 26.2052 43.5915 28.5359C43.4045 29.4855 43.0829 30.3673 42.6358 31.1572C42.1879 31.9476 41.5962 32.679 40.8767 33.3315C40.0152 34.1267 39.0402 34.7034 37.9813 35.0427C36.9393 35.3775 35.6011 35.5474 34.0037 35.5474H30.7847L29.8654 40.2122C29.8481 40.3 29.8004 40.3791 29.7305 40.436C29.6605 40.4929 29.5727 40.524 29.4821 40.524L25.3475 40.5238Z" fill="white"/>
<path d="M33.2329 25.1444H35.4215C37.1689 25.1444 37.7761 25.5227 37.9823 25.748C38.3245 26.1223 38.3891 26.9114 38.1692 28.0299C37.922 29.282 37.464 30.1699 36.8074 30.6684C36.1353 31.1788 35.0426 31.4375 33.56 31.4375H31.9928L33.2329 25.1444ZM36.9869 20.6494H29.0371C28.8558 20.6494 28.6801 20.7116 28.5402 20.8254C28.4003 20.9392 28.3049 21.0974 28.2703 21.2729L24.5817 39.9918C24.5598 40.1033 24.5631 40.2183 24.5914 40.3284C24.6198 40.4386 24.6725 40.5411 24.7458 40.6288C24.8191 40.7165 24.9111 40.7871 25.0153 40.8356C25.1195 40.8841 25.2333 40.9092 25.3485 40.9093H29.4827C29.664 40.9093 29.8397 40.8471 29.9796 40.7333C30.1195 40.6195 30.215 40.4613 30.2496 40.2857L31.1074 35.9326H34.0046C35.6429 35.9326 37.022 35.7564 38.1036 35.409C39.2155 35.0526 40.239 34.4484 41.1445 33.6131C41.8934 32.9334 42.5117 32.1705 42.9778 31.3454C43.4439 30.5202 43.7812 29.5995 43.9762 28.6096C44.46 26.1561 44.067 24.1914 42.8083 22.7704C41.5619 21.3631 39.6031 20.6494 36.9869 20.6494ZM31.0453 32.2082H33.56C35.2267 32.2082 36.4684 31.8987 37.284 31.2791C38.0996 30.6596 38.6502 29.6256 38.9361 28.1766C39.2095 26.7855 39.0851 25.8038 38.5624 25.2318C38.0398 24.6597 36.9921 24.3739 35.4218 24.3739H32.5892L31.0453 32.2082ZM36.9873 21.42C39.3788 21.42 41.1235 22.039 42.2201 23.2771C43.3167 24.5151 43.6468 26.2435 43.2093 28.4624C43.0292 29.3764 42.7247 30.2121 42.2959 30.9693C41.8671 31.7266 41.306 32.4197 40.6133 33.0478C39.7878 33.8098 38.8707 34.3527 37.8616 34.6763C36.8525 35.0006 35.5673 35.162 34.0048 35.162H30.4637L29.4832 40.1387H25.349L29.0371 21.42H36.9873Z" fill="#191919"/>
<path d="M53.07 35.5468C52.9534 35.5468 52.8428 35.4954 52.7687 35.4065C52.6947 35.3177 52.6643 35.2011 52.6867 35.088L54.3182 26.8056C54.4734 26.018 54.4352 25.4526 54.2105 25.2138C54.073 25.0677 53.66 24.8228 52.4388 24.8228H49.4828L47.4313 35.2348C47.414 35.3226 47.3663 35.4018 47.2964 35.4587C47.2264 35.5155 47.1385 35.5467 47.0479 35.5467H42.9463C42.8887 35.5467 42.8318 35.5341 42.7797 35.5099C42.7276 35.4856 42.6815 35.4503 42.6449 35.4065C42.6082 35.3626 42.5819 35.3113 42.5677 35.2563C42.5535 35.2012 42.5518 35.1437 42.5628 35.0879L46.2514 16.3693C46.2687 16.2816 46.3164 16.2025 46.3864 16.1456C46.4563 16.0887 46.5442 16.0576 46.6348 16.0576H50.7364C50.794 16.0576 50.8509 16.0702 50.9031 16.0944C50.9552 16.1187 51.0012 16.154 51.0378 16.1978C51.0745 16.2417 51.1008 16.293 51.115 16.348C51.1292 16.4031 51.1309 16.4606 51.1199 16.5164L50.2298 21.0343H53.4098C55.8323 21.0343 57.4749 21.4555 58.4319 22.3222C59.4085 23.2063 59.7115 24.6198 59.3365 26.5244L57.6203 35.2351C57.603 35.3229 57.5553 35.402 57.4854 35.4589C57.4154 35.5158 57.3275 35.5469 57.2369 35.5469L53.07 35.5468Z" fill="white"/>
<path d="M50.7374 15.6725H46.6358C46.4545 15.6725 46.2788 15.7348 46.1389 15.8485C45.999 15.9623 45.9035 16.1205 45.8689 16.2961L42.1803 35.0147C42.1584 35.1262 42.1617 35.2412 42.1901 35.3513C42.2185 35.4615 42.2712 35.5641 42.3445 35.6518C42.4178 35.7395 42.5098 35.8101 42.614 35.8585C42.7183 35.907 42.8321 35.9322 42.9473 35.9322H47.0489C47.2302 35.9322 47.4059 35.8699 47.5458 35.7562C47.6857 35.6424 47.7812 35.4842 47.8158 35.3086L49.8058 25.2083H52.4399C53.6591 25.2083 53.9149 25.4652 53.9252 25.4762C53.9992 25.5545 54.0964 25.918 53.9359 26.7322L52.3044 35.0147C52.2824 35.1262 52.2857 35.2412 52.3141 35.3513C52.3425 35.4615 52.3952 35.5641 52.4685 35.6518C52.5418 35.7395 52.6338 35.8101 52.7381 35.8585C52.8423 35.907 52.9561 35.9322 53.0713 35.9322H57.238C57.4193 35.9322 57.595 35.8699 57.7349 35.7562C57.8749 35.6424 57.9703 35.4842 58.0049 35.3086L59.7211 26.5979C60.1238 24.5533 59.7793 23.0194 58.6976 22.0387C57.6653 21.1037 55.9362 20.6491 53.4111 20.6491H50.7049L51.5048 16.5901C51.5267 16.4785 51.5234 16.3635 51.4951 16.2533C51.4667 16.1432 51.414 16.0405 51.3407 15.9528C51.2674 15.8651 51.1753 15.7945 51.0711 15.746C50.9669 15.6976 50.8527 15.6725 50.7374 15.6725ZM50.7378 16.443L49.7573 21.4196H53.4113C55.7104 21.4196 57.2962 21.8155 58.1691 22.6061C59.042 23.3967 59.3032 24.6789 58.9545 26.451L57.2384 35.1616H53.0717L54.7032 26.8794C54.8889 25.9373 54.8207 25.2946 54.4983 24.952C54.1759 24.6093 53.4897 24.4377 52.4403 24.4377H49.1619L47.0491 35.1616H42.9475L46.6361 16.443H50.7378Z" fill="#191919"/>
<path d="M65.8274 31.8227C67.3984 31.8227 68.5712 31.5369 69.3131 30.9738C70.0473 30.4164 70.5543 29.4506 70.8202 28.103C71.068 26.8436 70.9736 25.9643 70.5396 25.4897C70.096 25.005 69.1368 24.7592 67.6889 24.7592H65.1785L63.7866 31.8228L65.8274 31.8227ZM57.6162 40.5238C57.4997 40.5238 57.389 40.4724 57.3149 40.3835C57.2782 40.3397 57.2519 40.2884 57.2377 40.2333C57.2235 40.1783 57.2218 40.1208 57.2327 40.065L60.9213 21.3464C60.9386 21.2587 60.9864 21.1795 61.0564 21.1227C61.1263 21.0658 61.2142 21.0347 61.3049 21.0347H69.2546C71.7533 21.0347 73.6127 21.7026 74.7817 23.0237C75.9568 24.3504 76.3194 26.2049 75.8602 28.5359C75.673 29.4855 75.3515 30.3673 74.9042 31.1572C74.4563 31.9476 73.8646 32.679 73.1451 33.3315C72.2836 34.1267 71.3086 34.7034 70.2497 35.0427C69.2077 35.3775 67.8695 35.5474 66.2721 35.5474H63.0527L62.1338 40.2122C62.1165 40.3 62.0688 40.3792 61.9988 40.4361C61.9288 40.493 61.8409 40.5241 61.7502 40.524L57.6162 40.5238Z" fill="white"/>
<path d="M65.5004 25.1444H67.6889C69.4363 25.1444 70.0435 25.5227 70.2498 25.748C70.5922 26.1223 70.6567 26.9114 70.4366 28.0297C70.1895 29.2819 69.7313 30.1699 69.0749 30.6684C68.4027 31.1788 67.31 31.4375 65.8275 31.4375H64.2607L65.5004 25.1444ZM69.2543 20.6494H61.3045C61.1232 20.6494 60.9476 20.7116 60.8077 20.8254C60.6678 20.9392 60.5723 21.0974 60.5377 21.2729L56.8493 39.9918C56.8273 40.1033 56.8306 40.2183 56.859 40.3284C56.8874 40.4386 56.9401 40.5411 57.0134 40.6288C57.0867 40.7165 57.1787 40.7871 57.2829 40.8356C57.3871 40.8841 57.5009 40.9092 57.6161 40.9093H61.7502C61.9316 40.9093 62.1073 40.8471 62.2472 40.7333C62.3871 40.6195 62.4826 40.4613 62.5172 40.2857L63.3749 35.9326H66.272C67.9103 35.9326 69.2895 35.7564 70.371 35.409C71.483 35.0526 72.5064 34.4484 73.4122 33.6128C74.1611 32.9334 74.7778 32.1705 75.2452 31.3454C75.7127 30.5202 76.0486 29.5995 76.2437 28.6096C76.7274 26.1559 76.3344 24.1912 75.0757 22.7703C73.8293 21.3631 71.8706 20.6494 69.2543 20.6494ZM63.3129 32.2082H65.8275C67.4941 32.2082 68.7358 31.8987 69.5515 31.2791C70.3671 30.6596 70.9176 29.6256 71.2035 28.1766C71.4772 26.7855 71.3526 25.8038 70.8298 25.2318C70.3071 24.6597 69.2595 24.3739 67.6892 24.3739H64.8566L63.3129 32.2082ZM69.2547 21.42C71.6463 21.42 73.3909 22.039 74.4875 23.2771C75.5842 24.5151 75.9142 26.2435 75.4767 28.4624C75.2967 29.3764 74.9921 30.2121 74.5633 30.9693C74.1346 31.7266 73.5735 32.4197 72.8808 33.0478C72.0552 33.8098 71.1382 34.3527 70.1291 34.6763C69.1199 35.0006 67.8348 35.162 66.2723 35.162H62.7311L61.7506 40.1387H57.6165L61.305 21.4201L69.2547 21.42Z" fill="#191919"/>
</svg>
