<svg width="100" height="60" viewBox="0 0 100 60" fill="none" xmlns="http://www.w3.org/2000/svg">
<path d="M50.0001 34.4238C52.4659 34.4238 54.4649 32.4248 54.4649 29.959C54.4649 27.4931 52.4659 25.4941 50.0001 25.4941C47.5342 25.4941 45.5352 27.4931 45.5352 29.959C45.5352 32.4248 47.5342 34.4238 50.0001 34.4238Z" fill="#191919"/>
<path fill-rule="evenodd" clip-rule="evenodd" d="M50.0004 21C55.7615 21 61.1134 21.8486 65.1487 23.2748C70.0107 24.9931 73 27.5977 73 29.9561C73 32.4138 69.8319 35.1808 64.6108 36.9566C60.6635 38.2991 55.4691 39 50.0004 39C44.3934 39 39.0839 38.3422 35.0922 36.9419C30.0419 35.1698 27 32.367 27 29.9561C27 27.6168 29.8542 25.0324 34.6478 23.3166C38.6982 21.867 44.183 21 50.0004 21Z" stroke="#191919" stroke-width="2.73408"/>
<path fill-rule="evenodd" clip-rule="evenodd" d="M42.8089 25.7046C45.5404 20.7972 48.7573 16.6444 51.8126 13.8894C55.4939 10.5701 58.9971 9.2701 60.8857 10.3986C62.854 11.5746 63.5679 15.5975 62.5146 20.8946C61.7191 24.8996 59.8169 29.6595 57.2241 34.3179C54.5656 39.0942 51.5216 43.3021 48.5079 46.0315C44.6944 49.4856 41.0075 50.7356 39.0767 49.5819C37.2033 48.4633 36.4868 44.7946 37.3856 39.8901C38.145 35.7462 40.0516 30.66 42.8089 25.7046Z" stroke="#191919" stroke-width="2.73408"/>
<path fill-rule="evenodd" clip-rule="evenodd" d="M43.0114 34.3017C40.1744 29.3964 38.2429 24.4302 37.4367 20.3089C36.4662 15.3432 37.1524 11.5465 39.1067 10.414C41.1432 9.23362 44.9962 10.6028 49.0386 14.1963C52.0951 16.9132 55.2336 20.9999 57.9267 25.6573C60.6879 30.4322 62.7574 35.2697 63.5624 39.341C64.5811 44.4929 63.7566 48.4294 61.7589 49.5872C59.8205 50.7106 56.2733 49.5212 52.491 46.2627C49.2953 43.5096 45.8763 39.2558 43.0114 34.3017Z" stroke="#191919" stroke-width="2.73408"/>
</svg>
