<svg width="100" height="60" viewBox="0 0 100 60" fill="none" xmlns="http://www.w3.org/2000/svg">
<mask id="mask0_309_28" style="mask-type:luminance" maskUnits="userSpaceOnUse" x="25" y="5" width="50" height="50">
<path d="M75 5H25V55H75V5Z" fill="white"/>
</mask>
<g mask="url(#mask0_309_28)">
<path fill-rule="evenodd" clip-rule="evenodd" d="M74.6289 15.803C74.8388 16.7734 74.9449 17.7633 74.9453 18.7562L75.0016 18.7647V41.3038C74.9485 42.2931 74.8429 43.2789 74.6852 44.2569C74.5086 45.2616 74.1508 46.2296 73.6273 47.1186C73.1389 48.0199 72.4918 48.8255 71.7172 49.4968C70.8818 50.1874 69.9577 50.7631 68.9695 51.2085C68.0148 51.6593 66.9961 51.9772 65.9461 52.1491C64.8619 52.3392 63.7633 52.4354 62.6625 52.4366H37.2984C36.9515 52.4064 36.5924 52.386 36.2292 52.3655C35.486 52.3234 34.7254 52.2803 34.0148 52.1491C32.9445 51.9772 31.9078 51.6647 30.9367 51.196C29.9629 50.7786 29.0665 50.1999 28.2852 49.4843C26.7445 48.0726 25.707 46.2444 25.3164 44.2499C25.1065 43.2795 25.0004 42.2896 25 41.2968V18.521C25.0535 17.5361 25.1591 16.5548 25.3164 15.5812C25.4922 14.5765 25.8516 13.6093 26.3648 12.7124C26.8615 11.809 27.518 11.0033 28.3023 10.3343C28.3995 10.2485 28.4993 10.1827 28.5993 10.1168C28.7124 10.0423 28.8257 9.96766 28.9352 9.86397C29.5711 9.39238 30.2468 8.97701 30.9547 8.62256L31.6969 8.33506C32.4523 8.04131 33.2383 7.84912 34.0406 7.76006C34.8464 7.64346 35.6587 7.57796 36.4727 7.56396H62.6055C62.9524 7.59423 63.3115 7.61455 63.6747 7.63512C64.4179 7.6772 65.1785 7.72027 65.8891 7.85146C66.9594 8.02334 67.9961 8.33584 68.9672 8.80459C69.9595 9.23362 70.8704 9.83037 71.6602 10.5687C73.2008 11.9804 74.2383 13.8085 74.6289 15.803ZM41.6805 42.4586C47.8219 44.8227 53.9367 44.5883 58.3883 42.2758L58.3891 42.2742C60.5461 41.4383 64.8469 40.2117 67.1688 44.1961C67.7047 45.1492 68.8719 40.1063 64.6266 35.3367L64.5578 35.2586C64.5763 35.2071 64.5975 35.1555 64.6186 35.1039C64.678 34.9592 64.7375 34.8143 64.7375 34.6703C66.8547 27.3266 61.7703 18.5586 53.1828 13.8945C56.8922 18.468 58.5828 23.9945 57.0984 28.8555C56.9638 29.3002 56.8031 29.7366 56.6172 30.1625L55.9297 29.7969C49.5023 26.0289 43.5156 21.6227 38.0695 16.6516C41.3352 20.9758 44.9508 25.0523 48.882 28.843C43.4844 25.7414 38.3484 22.2469 33.5203 18.3898C34.1349 19.3305 34.8438 20.2062 35.6359 21.0031C40.2336 26.525 45.5422 31.4766 51.4367 35.7422C46.9711 38.2375 40.6094 38.3555 34.2617 35.7422C32.7125 35.1344 31.25 34.3438 29.9062 33.3906C32.7867 37.4664 36.8891 40.625 41.6805 42.4586Z" fill="#191919"/>
</g>
</svg>
