<svg width="56" height="55" viewBox="0 0 56 55" fill="none" xmlns="http://www.w3.org/2000/svg">
<g clip-path="url(#clip0_8_425)">
<path d="M38.3102 0C35.378 0.202812 31.9508 2.07969 29.9536 4.52375C28.1318 6.74094 26.633 10.0341 27.2174 13.2344C30.4211 13.3341 33.7314 11.4125 35.6496 8.92719C37.4439 6.61375 38.8018 3.34125 38.3102 0Z" fill="#E1005B"/>
<path d="M49.8979 18.4526C47.0826 14.9223 43.126 12.8735 39.3895 12.8735C34.4567 12.8735 32.3702 15.2351 28.943 15.2351C25.4093 15.2351 22.7246 12.8804 18.4587 12.8804C14.2684 12.8804 9.80655 15.4413 6.9775 19.8207C3.00034 25.9875 3.68096 37.5821 10.1262 47.458C12.4328 50.9917 15.5128 54.9655 19.5415 54.9999C23.1268 55.0342 24.1374 52.7002 28.9946 52.6761C33.8517 52.6486 34.773 55.0308 38.3514 54.993C42.3835 54.962 45.632 50.5586 47.9385 47.0249C49.5919 44.4915 50.2073 43.2162 51.4894 40.3562C42.1635 36.8053 40.6682 23.5435 49.8979 18.4526Z" fill="#E1005B"/>
</g>
<defs>
<clipPath id="clip0_8_425">
<rect width="55" height="55" fill="white" transform="translate(0.5)"/>
</clipPath>
</defs>
</svg>
