<svg width="18" height="16" viewBox="0 0 18 16" fill="none" xmlns="http://www.w3.org/2000/svg">
<g clip-path="url(#clip0_1343_56)">
<path d="M7.19667 14.1492L7.02828 13.8623C5.76536 11.7106 2.40575 7.13939 2.37198 7.09347L2.27344 6.95958L3.53705 5.71101L7.15382 8.23651C9.42063 5.30693 11.5323 3.29074 12.9137 2.10912C14.4398 0.803777 15.4061 0.219623 15.4462 0.195393L15.4919 0.167969H17.7189L17.3417 0.503893C12.5794 4.74562 7.4129 13.7695 7.36125 13.8602L7.19667 14.1492Z" fill="#E1005B"/>
<path d="M7.19656 2.59818C7.36551 2.59818 7.50248 2.46121 7.50248 2.29226C7.50248 2.1233 7.36551 1.98633 7.19656 1.98633C7.0276 1.98633 6.89062 2.1233 6.89062 2.29226C6.89062 2.46121 7.0276 2.59818 7.19656 2.59818Z" fill="#191919"/>
<path d="M7.19656 15.8326C7.36551 15.8326 7.50248 15.6956 7.50248 15.5266C7.50248 15.3577 7.36551 15.2207 7.19656 15.2207C7.0276 15.2207 6.89062 15.3577 6.89062 15.5266C6.89062 15.6956 7.0276 15.8326 7.19656 15.8326Z" fill="#191919"/>
<path d="M0.587173 9.21537C0.75613 9.21537 0.893096 9.0784 0.893096 8.90944C0.893096 8.74049 0.75613 8.60352 0.587173 8.60352C0.418216 8.60352 0.28125 8.74049 0.28125 8.90944C0.28125 9.0784 0.418216 9.21537 0.587173 9.21537Z" fill="#191919"/>
<path d="M13.8079 9.21537C13.9769 9.21537 14.1138 9.0784 14.1138 8.90944C14.1138 8.74049 13.9769 8.60352 13.8079 8.60352C13.6389 8.60352 13.502 8.74049 13.502 8.90944C13.502 9.0784 13.6389 9.21537 13.8079 9.21537Z" fill="#191919"/>
<path d="M2.51882 13.8951C2.68777 13.8951 2.82474 13.7581 2.82474 13.5891C2.82474 13.4202 2.68777 13.2832 2.51882 13.2832C2.34986 13.2832 2.21289 13.4202 2.21289 13.5891C2.21289 13.7581 2.34986 13.8951 2.51882 13.8951Z" fill="#191919"/>
<path d="M2.52272 4.54154C2.69167 4.54154 2.82864 4.40457 2.82864 4.23561C2.82864 4.06666 2.69167 3.92969 2.52272 3.92969C2.35376 3.92969 2.2168 4.06666 2.2168 4.23561C2.2168 4.40457 2.35376 4.54154 2.52272 4.54154Z" fill="#191919"/>
<path d="M11.8705 13.8891C12.0394 13.8891 12.1764 13.7522 12.1764 13.5832C12.1764 13.4143 12.0394 13.2773 11.8705 13.2773C11.7015 13.2773 11.5645 13.4143 11.5645 13.5832C11.5645 13.7522 11.7015 13.8891 11.8705 13.8891Z" fill="#191919"/>
<path d="M1.46609 5.90676C1.63504 5.90676 1.77201 5.7698 1.77201 5.60084C1.77201 5.43188 1.63504 5.29492 1.46609 5.29492C1.29713 5.29492 1.16016 5.43188 1.16016 5.60084C1.16016 5.7698 1.29713 5.90676 1.46609 5.90676Z" fill="#191919"/>
<path d="M12.9289 12.524C13.0979 12.524 13.2348 12.387 13.2348 12.2181C13.2348 12.0491 13.0979 11.9121 12.9289 11.9121C12.7599 11.9121 12.623 12.0491 12.623 12.2181C12.623 12.387 12.7599 12.524 12.9289 12.524Z" fill="#191919"/>
<path d="M3.89186 14.94C4.06082 14.94 4.19778 14.803 4.19778 14.634C4.19778 14.4651 4.06082 14.3281 3.89186 14.3281C3.7229 14.3281 3.58594 14.4651 3.58594 14.634C3.58594 14.803 3.7229 14.94 3.89186 14.94Z" fill="#191919"/>
<path d="M5.48365 2.82473C5.65261 2.82473 5.78958 2.68777 5.78958 2.51881C5.78958 2.34985 5.65261 2.21289 5.48365 2.21289C5.3147 2.21289 5.17773 2.34985 5.17773 2.51881C5.17773 2.68777 5.3147 2.82473 5.48365 2.82473Z" fill="#191919"/>
<path d="M8.90945 15.6079C9.0784 15.6079 9.21537 15.4709 9.21537 15.302C9.21537 15.133 9.0784 14.9961 8.90945 14.9961C8.74049 14.9961 8.60352 15.133 8.60352 15.302C8.60352 15.4709 8.74049 15.6079 8.90945 15.6079Z" fill="#191919"/>
<path d="M0.811782 10.9263C0.980738 10.9263 1.1177 10.7893 1.1177 10.6204C1.1177 10.4514 0.980738 10.3145 0.811782 10.3145C0.642825 10.3145 0.505859 10.4514 0.505859 10.6204C0.505859 10.7893 0.642825 10.9263 0.811782 10.9263Z" fill="#191919"/>
<path d="M13.5813 7.50443C13.7503 7.50443 13.8872 7.36746 13.8872 7.19851C13.8872 7.02955 13.7503 6.89258 13.5813 6.89258C13.4123 6.89258 13.2754 7.02955 13.2754 7.19851C13.2754 7.36746 13.4123 7.50443 13.5813 7.50443Z" fill="#191919"/>
<path d="M1.46609 12.524C1.63504 12.524 1.77201 12.387 1.77201 12.2181C1.77201 12.0491 1.63504 11.9121 1.46609 11.9121C1.29713 11.9121 1.16016 12.0491 1.16016 12.2181C1.16016 12.387 1.29713 12.524 1.46609 12.524Z" fill="#191919"/>
<path d="M10.5032 14.94C10.6722 14.94 10.8091 14.803 10.8091 14.634C10.8091 14.4651 10.6722 14.3281 10.5032 14.3281C10.3343 14.3281 10.1973 14.4651 10.1973 14.634C10.1973 14.803 10.3343 14.94 10.5032 14.94Z" fill="#191919"/>
<path d="M3.89186 3.49076C4.06082 3.49076 4.19778 3.35379 4.19778 3.18484C4.19778 3.01588 4.06082 2.87891 3.89186 2.87891C3.7229 2.87891 3.58594 3.01588 3.58594 3.18484C3.58594 3.35379 3.7229 3.49076 3.89186 3.49076Z" fill="#191919"/>
<path d="M8.90945 2.82473C9.0784 2.82473 9.21537 2.68777 9.21537 2.51881C9.21537 2.34985 9.0784 2.21289 8.90945 2.21289C8.74049 2.21289 8.60352 2.34985 8.60352 2.51881C8.60352 2.68777 8.74049 2.82473 8.90945 2.82473Z" fill="#191919"/>
<path d="M5.48365 15.6079C5.65261 15.6079 5.78958 15.4709 5.78958 15.302C5.78958 15.133 5.65261 14.9961 5.48365 14.9961C5.3147 14.9961 5.17773 15.133 5.17773 15.302C5.17773 15.4709 5.3147 15.6079 5.48365 15.6079Z" fill="#191919"/>
<path d="M13.5813 10.9263C13.7503 10.9263 13.8872 10.7893 13.8872 10.6204C13.8872 10.4514 13.7503 10.3145 13.5813 10.3145C13.4123 10.3145 13.2754 10.4514 13.2754 10.6204C13.2754 10.7893 13.4123 10.9263 13.5813 10.9263Z" fill="#191919"/>
<path d="M0.811782 7.50443C0.980738 7.50443 1.1177 7.36746 1.1177 7.19851C1.1177 7.02955 0.980738 6.89258 0.811782 6.89258C0.642825 6.89258 0.505859 7.02955 0.505859 7.19851C0.505859 7.36746 0.642825 7.50443 0.811782 7.50443Z" fill="#191919"/>
</g>
<defs>
<clipPath id="clip0_1343_56">
<rect width="18" height="16" fill="white"/>
</clipPath>
</defs>
</svg>
