<svg width="35" height="35" viewBox="0 0 35 35" fill="none" xmlns="http://www.w3.org/2000/svg">
<g clip-path="url(#clip0_10_892)">
<mask id="mask0_10_892" style="mask-type:luminance" maskUnits="userSpaceOnUse" x="0" y="0" width="35" height="35">
<path d="M35 0H0V35H35V0Z" fill="white"/>
</mask>
<g mask="url(#mask0_10_892)">
<path d="M17.5 0C7.83222 0 0 7.83222 0 17.5C0 27.1678 7.83222 35 17.5 35C27.1678 35 35 27.1678 35 17.5C35 7.83222 27.1678 0 17.5 0ZM25.3011 13.4633C25.3011 13.4633 25.8689 18.6433 21.7778 22.5244C16.0456 27.9611 7.77778 23.73 7.77778 23.73C11.7522 23.7767 13.4322 22.1044 13.4322 22.1044C10.1656 21.5444 9.83889 19.2111 9.83889 19.2111C10.3989 19.5611 11.62 19.2111 11.62 19.2111C7.98 17.5389 8.54778 15.3378 8.54778 15.3378C9.60556 15.9289 10.3989 15.7111 10.3989 15.7111C7.56778 13.2533 9.17 10.6478 9.17 10.6478C14.14 15.3767 17.3367 14.4044 17.3367 14.4044C17.1111 11.0756 19.0789 9.78444 21.2022 9.71444C22.9911 9.65222 24.0178 10.8967 24.0178 10.8967C25.3944 11.0133 26.6856 10.0956 26.6856 10.0956C26.5689 11.2078 25.06 12.1489 25.06 12.1489C25.8456 12.2189 27.2144 11.7911 27.2144 11.7911C26.5067 13.09 25.3011 13.4633 25.3011 13.4633Z" fill="white"/>
</g>
</g>
<defs>
<clipPath id="clip0_10_892">
<rect width="35" height="35" fill="white"/>
</clipPath>
</defs>
</svg>
