<svg width="75" height="75" viewBox="0 0 75 75" fill="none" xmlns="http://www.w3.org/2000/svg">
<g clip-path="url(#clip0_299_124)">
<path d="M38.9248 2.13574V73.0005L37.4995 73.8794H26.4561C26.0254 73.8794 25.6841 73.5176 25.7105 73.0884L29.4693 9.40576C29.4898 9.0791 29.6158 8.76709 29.8282 8.51953L36.9326 0.259279C37.0019 0.178825 37.0876 0.114079 37.1839 0.0693673C37.2802 0.0246555 37.3849 0.00100714 37.491 1.92549e-06C37.7027 -0.00234182 38.9248 2.13574 38.9248 2.13574Z" fill="#D4F2F6"/>
<path d="M48.5421 73.8791H45.0439L41.2374 9.40531C41.2183 9.07854 41.0922 8.76712 40.8786 8.51908L35.3534 2.09559L36.9331 0.260291C37.2304 -0.086438 37.767 -0.086438 38.066 0.260291L45.1695 8.51908C45.383 8.76715 45.5091 9.07855 45.5282 9.40531L49.288 73.0878C49.294 73.1894 49.2792 73.2913 49.2444 73.387C49.2097 73.4827 49.1557 73.5703 49.0858 73.6444C49.016 73.7185 48.9317 73.7776 48.8382 73.8179C48.7447 73.8583 48.644 73.8791 48.5421 73.8791Z" fill="#A8E7EF"/>
<path d="M48.5421 73.879H37.4997V0.000244141C37.7074 0.000244141 37.9167 0.0869629 38.0661 0.260254L45.1696 8.51904C45.3832 8.76711 45.5092 9.07851 45.5284 9.40527L49.2882 73.0877C49.2942 73.1894 49.2793 73.2912 49.2445 73.3869C49.2097 73.4827 49.1558 73.5703 49.0859 73.6444C49.016 73.7185 48.9318 73.7775 48.8382 73.8179C48.7447 73.8582 48.644 73.879 48.5421 73.879Z" fill="#A8E7EF"/>
<path d="M48.5421 73.879H45.0439L41.2374 9.40527C41.2183 9.0785 41.0922 8.76708 40.8786 8.51904L37.4995 4.58989V0.000244141C37.7073 0.000244141 37.9166 0.0869629 38.066 0.260254L45.1695 8.51904C45.383 8.76711 45.5091 9.07851 45.5282 9.40527L49.288 73.0877C49.294 73.1894 49.2792 73.2912 49.2444 73.3869C49.2097 73.4827 49.1557 73.5703 49.0858 73.6444C49.016 73.7185 48.9317 73.7775 48.8382 73.8179C48.7447 73.8582 48.644 73.879 48.5421 73.879Z" fill="#70D9E6"/>
<path d="M55.811 75.0001C55.6637 75.0001 55.518 74.9711 55.382 74.9148C55.246 74.8585 55.1224 74.7759 55.0183 74.6718C54.9142 74.5677 54.8316 74.4442 54.7753 74.3081C54.719 74.1721 54.69 74.0264 54.6901 73.8792V59.3079C54.6901 58.6887 55.1918 58.187 55.811 58.187C56.4301 58.187 56.9319 58.6887 56.9319 59.3079V73.8792C56.9319 74.1764 56.8138 74.4615 56.6036 74.6717C56.3933 74.882 56.1082 75.0001 55.811 75.0001Z" fill="#D4F2F6"/>
<path d="M56.9317 61.0524V59.308C56.9317 58.6888 56.43 58.1871 55.8108 58.1871C55.1917 58.1871 54.6899 58.6888 54.6899 59.308V61.0524H56.9317Z" fill="#A8E7EF"/>
<path d="M64.47 75C64.3227 75 64.177 74.971 64.041 74.9147C63.905 74.8584 63.7814 74.7759 63.6773 74.6718C63.5732 74.5677 63.4906 74.4441 63.4343 74.3081C63.378 74.1721 63.349 74.0263 63.3491 73.8791V67.0734C63.3491 66.4542 63.8508 65.9525 64.47 65.9525C65.0891 65.9525 65.5909 66.4542 65.5909 67.0734V73.8791C65.5909 74.0263 65.5619 74.172 65.5056 74.3081C65.4492 74.4441 65.3667 74.5676 65.2626 74.6717C65.1585 74.7758 65.0349 74.8584 64.8989 74.9147C64.7629 74.971 64.6172 75 64.47 75Z" fill="#D4F2F6"/>
<path d="M65.5909 68.7074V67.0734C65.5909 66.4542 65.0891 65.9525 64.47 65.9525C63.8508 65.9525 63.3491 66.4542 63.3491 67.0734V68.7074H65.5909Z" fill="#A8E7EF"/>
<path d="M45.0445 75C44.8973 75 44.7515 74.971 44.6155 74.9147C44.4795 74.8584 44.3559 74.7759 44.2518 74.6718C44.1477 74.5677 44.0652 74.4441 44.0089 74.3081C43.9525 74.1721 43.9236 74.0263 43.9236 73.8791V67.0734C43.9236 66.4542 44.4253 65.9525 45.0445 65.9525C45.6637 65.9525 46.1654 66.4542 46.1654 67.0734V73.8791C46.1654 74.0263 46.1365 74.172 46.0801 74.3081C46.0238 74.4441 45.9412 74.5676 45.8372 74.6717C45.7331 74.7758 45.6095 74.8584 45.4735 74.9147C45.3375 74.971 45.1917 75 45.0445 75Z" fill="#D4F2F6"/>
<path d="M46.1654 68.7074V67.0734C46.1654 66.4542 45.6637 65.9525 45.0445 65.9525C44.4253 65.9525 43.9236 66.4542 43.9236 67.0734V68.7074H46.1654Z" fill="#A8E7EF"/>
<path d="M65.979 54.5112L65.0826 55.6318L65.979 56.7524V58.6919C65.979 59.0332 65.7036 59.3086 65.3653 59.3086H54.6529C54.4893 59.3086 54.3324 59.2436 54.2168 59.128C54.1011 59.0123 54.0362 58.8555 54.0362 58.6919V56.7495L54.0376 56.7524L59.3345 51.542H65.3653C65.7036 51.542 65.979 51.8174 65.979 52.1572V54.5112Z" fill="#FB4A59"/>
<path d="M65.979 54.5112L65.0825 55.6318L65.979 56.7524V58.6919C65.979 58.8551 65.9142 59.0116 65.7988 59.1269C65.6835 59.2423 65.527 59.3071 65.3638 59.3071H62.314C62.6553 59.3071 62.9292 59.0317 62.9292 58.6919V52.1572C62.9292 51.8174 62.6553 51.542 62.314 51.542H65.3638C65.527 51.542 65.6835 51.6068 65.7988 51.7222C65.9142 51.8376 65.979 51.9941 65.979 52.1572V54.5112Z" fill="#F82F40"/>
<path d="M65.9793 54.5106V56.7524H58.1032C57.4844 56.7524 56.9823 56.2503 56.9823 55.6315C56.9823 55.0128 57.4844 54.5106 58.1032 54.5106H65.9793Z" fill="#FCF5EC"/>
<path d="M59.3347 51.5425H54.6521C54.489 51.5425 54.3326 51.6073 54.2173 51.7226C54.102 51.8379 54.0372 51.9943 54.0372 52.1574V56.7525H59.3348L59.3347 51.5425Z" fill="#31A7FB"/>
<path d="M62.929 54.5106H65.9793V56.7524H62.929V54.5106Z" fill="#F8E0C1"/>
<path d="M74.6379 62.2778L73.7414 63.397L74.6379 64.5161V66.4585C74.6379 66.7983 74.364 67.0737 74.0226 67.0737H63.3117C62.9704 67.0737 62.6965 66.7983 62.6965 66.4585V64.5176L67.9933 59.3086H74.0226C74.364 59.3086 74.6379 59.5825 74.6379 59.9224V62.2778Z" fill="#FB4A59"/>
<path d="M74.6393 62.2764L73.7414 63.397L74.6393 64.5176V66.4585C74.6393 66.7969 74.364 67.0737 74.0226 67.0737H70.9743C71.3127 67.0737 71.5881 66.7969 71.5881 66.4585V59.9224C71.5881 59.5825 71.3127 59.3086 70.9743 59.3086H74.0226C74.364 59.3086 74.6393 59.5825 74.6393 59.9224V62.2764Z" fill="#F82F40"/>
<path d="M74.6386 62.2762V64.518H66.7624C66.1437 64.518 65.6415 64.0159 65.6415 63.3971C65.6415 62.7784 66.1437 62.2762 66.7624 62.2762H74.6386Z" fill="#FCF5EC"/>
<path d="M67.9936 59.308H63.3111C63.148 59.308 62.9916 59.3728 62.8763 59.4881C62.761 59.6034 62.6962 59.7598 62.6962 59.9229V64.518H67.9938L67.9936 59.308Z" fill="#31A7FB"/>
<path d="M55.2124 62.2764L54.3159 63.397L55.2124 64.5176V66.4585C55.2124 66.7983 54.937 67.0737 54.5987 67.0737H43.8863C43.5464 67.0737 43.2696 66.7983 43.2696 66.4585V64.5146L43.271 64.5176L48.5679 59.3086H54.5987C54.937 59.3086 55.2124 59.5825 55.2124 59.9224V62.2764Z" fill="#FB4A59"/>
<path d="M55.2124 62.2764L54.3159 63.397L55.2124 64.5176V66.4585C55.2124 66.7969 54.937 67.0737 54.5987 67.0737H51.5474C51.7106 67.0737 51.8671 67.0089 51.9824 66.8935C52.0978 66.7782 52.1626 66.6217 52.1626 66.4585V59.9224C52.1626 59.7592 52.0978 59.6027 51.9824 59.4873C51.8671 59.3719 51.7106 59.3071 51.5474 59.3071H54.5987C54.937 59.3071 55.2124 59.584 55.2124 59.9224V62.2764Z" fill="#F82F40"/>
<path d="M55.2127 62.2762V64.518H47.3366C46.7178 64.518 46.2157 64.0159 46.2157 63.3971C46.2157 62.7784 46.7178 62.2762 47.3366 62.2762H55.2127Z" fill="#FCF5EC"/>
<path d="M48.5683 59.308H43.8858C43.7227 59.308 43.5663 59.3728 43.451 59.4881C43.3357 59.6034 43.2709 59.7598 43.2709 59.9229V64.518H48.5685V59.308H48.5683Z" fill="#31A7FB"/>
<path d="M52.1624 62.2762H55.2127V64.518H52.1624V62.2762Z" fill="#F8E0C1"/>
<path d="M12.901 75C12.7538 75.0001 12.608 74.9711 12.472 74.9148C12.336 74.8585 12.2124 74.7759 12.1083 74.6718C12.0042 74.5677 11.9217 74.4441 11.8654 74.3081C11.809 74.1721 11.7801 74.0263 11.7801 73.8791V59.5937C11.7801 58.9745 12.2818 58.4728 12.901 58.4728C13.5202 58.4728 14.0219 58.9745 14.0219 59.5937V73.8791C14.0219 74.0263 13.993 74.1721 13.9366 74.3081C13.8803 74.4441 13.7977 74.5677 13.6937 74.6718C13.5896 74.7758 13.466 74.8584 13.33 74.9147C13.194 74.9711 13.0482 75 12.901 75Z" fill="#D4F2F6"/>
<path d="M14.0219 61.0524V59.5937C14.0219 58.9745 13.5202 58.4728 12.901 58.4728C12.2818 58.4728 11.7801 58.9745 11.7801 59.5937V61.0524H14.0219Z" fill="#A8E7EF"/>
<path d="M21.5599 75C21.4127 75 21.2669 74.971 21.1309 74.9147C20.9949 74.8584 20.8713 74.7759 20.7672 74.6718C20.6631 74.5677 20.5805 74.4441 20.5242 74.3081C20.4679 74.1721 20.4389 74.0263 20.439 73.8791V67.0734C20.439 66.4542 20.9407 65.9525 21.5599 65.9525C22.1791 65.9525 22.6808 66.4542 22.6808 67.0734V73.8791C22.6808 74.0263 22.6518 74.1721 22.5955 74.3081C22.5392 74.4441 22.4566 74.5677 22.3525 74.6718C22.2485 74.7759 22.1249 74.8584 21.9889 74.9147C21.8528 74.971 21.7071 75 21.5599 75Z" fill="#D4F2F6"/>
<path d="M22.6808 68.7074V67.0734C22.6808 66.4542 22.1791 65.9525 21.5599 65.9525C20.9407 65.9525 20.439 66.4542 20.439 67.0734V68.7074H22.6808Z" fill="#A8E7EF"/>
<path d="M2.13442 75C1.98721 75 1.84143 74.971 1.70542 74.9147C1.56941 74.8584 1.44583 74.7759 1.34174 74.6718C1.23764 74.5677 1.15508 74.4441 1.09876 74.3081C1.04245 74.1721 1.01348 74.0263 1.01352 73.8791V67.0734C1.01352 66.4542 1.51523 65.9525 2.13442 65.9525C2.75361 65.9525 3.25532 66.4542 3.25532 67.0734V73.8791C3.25535 74.0263 3.22639 74.1721 3.17007 74.3081C3.11375 74.4441 3.03119 74.5677 2.9271 74.6718C2.82301 74.7759 2.69942 74.8584 2.56341 74.9147C2.4274 74.971 2.28163 75 2.13442 75Z" fill="#D4F2F6"/>
<path d="M3.25532 68.7074V67.0734C3.25532 66.4542 2.75361 65.9525 2.13442 65.9525C1.51523 65.9525 1.01352 66.4542 1.01352 67.0734V68.7074H3.25532Z" fill="#A8E7EF"/>
<path d="M23.0695 54.5112L22.1569 55.6318L23.0695 56.7524V58.6919C23.0695 59.0332 22.7941 59.3086 22.4543 59.3086H11.7419C11.402 59.3086 11.1266 59.0332 11.1266 58.6919V56.7524L16.425 51.542H22.4543C22.6175 51.542 22.7739 51.6068 22.8893 51.7222C23.0047 51.8376 23.0695 51.9941 23.0695 52.1572V54.5112Z" fill="#FB4A59"/>
<path d="M23.0695 54.5112L22.1569 55.6318L23.0695 56.7524V58.6919C23.0695 59.0317 22.7941 59.3086 22.4543 59.3086H19.4045C19.7443 59.3086 20.0197 59.0317 20.0197 58.6919V52.1572C20.0197 51.9941 19.9549 51.8376 19.8395 51.7222C19.7241 51.6068 19.5677 51.542 19.4045 51.542H22.4543C22.6175 51.542 22.7739 51.6068 22.8893 51.7222C23.0047 51.8376 23.0695 51.9941 23.0695 52.1572V54.5112Z" fill="#F82F40"/>
<path d="M23.0699 54.5106V56.7524H15.1938C14.575 56.7524 14.0729 56.2503 14.0729 55.6315C14.0729 55.0128 14.575 54.5106 15.1938 54.5106H23.0699Z" fill="#FCF5EC"/>
<path d="M16.4247 51.5425H11.7422C11.5791 51.5425 11.4227 51.6073 11.3073 51.7226C11.192 51.8379 11.1272 51.9943 11.1272 52.1574V56.7525H16.4248L16.4247 51.5425Z" fill="#31A7FB"/>
<path d="M31.7281 62.2764L30.8301 63.397L31.7281 64.5176V66.4585C31.7281 66.627 31.6592 66.7822 31.5479 66.8936C31.4366 67.0049 31.2827 67.0737 31.1128 67.0737H20.4004C20.062 67.0737 19.7867 66.7983 19.7867 66.4585V64.5176L25.0835 59.3086H31.1128C31.2827 59.3086 31.4366 59.3774 31.5479 59.4873C31.6592 59.5986 31.7281 59.7524 31.7281 59.9224V62.2764Z" fill="#FB4A59"/>
<path d="M31.7281 62.2764L30.8301 63.397L31.7281 64.5176V66.4585C31.7281 66.627 31.6592 66.7822 31.5479 66.8936C31.4366 67.0049 31.2827 67.0737 31.1128 67.0737H28.063C28.2262 67.0737 28.3827 67.0089 28.4981 66.8935C28.6134 66.7782 28.6783 66.6217 28.6783 66.4585V59.9224C28.6783 59.5825 28.4043 59.3086 28.063 59.3086H31.1128C31.2827 59.3086 31.4366 59.3774 31.5479 59.4873C31.6592 59.5986 31.7281 59.7524 31.7281 59.9224V62.2764Z" fill="#F82F40"/>
<path d="M31.7292 62.2762V64.518H23.8531C23.2329 64.518 22.7322 64.0159 22.7322 63.3971C22.7322 62.7784 23.2329 62.2762 23.8531 62.2762H31.7292Z" fill="#FCF5EC"/>
<path d="M25.0837 59.308H20.4012C20.2381 59.308 20.0817 59.3728 19.9663 59.4881C19.851 59.6034 19.7862 59.7598 19.7862 59.9229V64.518H25.0838L25.0837 59.308Z" fill="#31A7FB"/>
<path d="M12.3028 62.2764L11.5279 63.397L12.3028 64.5176V66.4585C12.3028 66.7983 12.0288 67.0737 11.6875 67.0737H0.976593C0.635284 67.0737 0.361359 66.7983 0.361359 66.4585V64.5176L5.65823 59.3086H11.6875C12.0288 59.3086 12.3028 59.5825 12.3028 59.9224V62.2764Z" fill="#FB4A59"/>
<path d="M12.3028 62.2764L11.5279 63.397L12.3028 64.5176V66.4585C12.3028 66.7969 12.0274 67.0737 11.6875 67.0737H8.63773C8.97757 67.0737 9.25296 66.7969 9.25296 66.4585V59.9224C9.25296 59.5825 8.97757 59.3086 8.63773 59.3086H11.6875C12.0274 59.3086 12.3028 59.5825 12.3028 59.9224V62.2764Z" fill="#F82F40"/>
<path d="M12.3034 62.2762V64.518H4.42733C3.80858 64.518 3.30643 64.0159 3.30643 63.3971C3.30643 62.7784 3.80858 62.2762 4.42733 62.2762H12.3034Z" fill="#FCF5EC"/>
<path d="M5.65824 59.308H0.97572C0.812628 59.308 0.656215 59.3728 0.540891 59.4881C0.425567 59.6034 0.360779 59.7598 0.360779 59.9229V64.518H5.65839L5.65824 59.308Z" fill="#31A7FB"/>
<path d="M71.5882 62.2762H74.6385V64.518H71.5882V62.2762ZM20.0197 54.5106H23.07V56.7524H20.0197V54.5106ZM28.679 62.2762H31.7294V64.518H28.679V62.2762ZM9.25311 62.2762H12.3034V64.518H9.25311V62.2762Z" fill="#F8E0C1"/>
</g>
<defs>
<clipPath id="clip0_299_124">
<rect width="75" height="75" fill="white"/>
</clipPath>
</defs>
</svg>
