<svg width="100" height="60" viewBox="0 0 100 60" fill="none" xmlns="http://www.w3.org/2000/svg">
<path d="M28.5312 30C28.5312 38.5156 33.4219 45.8516 40.5625 49.2938L30.4344 21.3047C29.2578 24.0219 28.5312 26.9219 28.5312 30ZM64.4922 28.9125C64.4922 26.2875 63.4953 24.3813 62.6797 23.025C61.5922 21.2125 60.5969 19.7641 60.5969 17.9531C60.5969 15.9609 62.1375 14.1484 64.2219 14.1484H64.4937C60.6875 10.6156 55.6156 8.53125 50 8.53125C46.4471 8.56271 42.9557 9.46223 39.8299 11.1515C36.7041 12.8408 34.0386 15.2685 32.0656 18.2234H33.425C35.6906 18.2234 39.1312 17.9516 39.1312 17.9516C40.3094 17.8609 40.4 19.5813 39.3125 19.7641C39.3125 19.7641 38.1344 19.9453 36.8672 19.9453L44.6578 43.1328L49.3672 29.0922L46.0156 19.9438L43.75 19.7656C42.5719 19.675 42.7531 17.9531 43.8406 17.9531C43.8406 17.9531 47.3719 18.225 49.4563 18.225C51.7219 18.225 55.1625 17.9531 55.1625 17.9531C56.3406 17.8625 56.4312 19.5828 55.3438 19.7656C55.3438 19.7656 54.1656 19.9469 52.8984 19.9469L60.6875 43.0469L62.875 35.8906C63.7812 32.9016 64.5047 30.8188 64.5047 28.9156L64.4922 28.9125ZM50.3625 31.9016L43.9312 50.5625C45.8328 51.1063 47.9156 51.4688 50 51.4688C52.5359 51.4688 54.8906 51 57.1562 50.2906C57.0656 50.2 57.0656 50.1094 56.975 50.0187L50.3625 31.9016ZM68.8406 19.7656L69.0219 21.9531C69.0219 24.1406 68.6594 26.5734 67.3922 29.6531L60.8703 48.5844C67.2109 44.8703 71.5578 37.9859 71.5578 30.0156C71.4672 26.3016 70.4703 22.8594 68.8391 19.7812L68.8406 19.7656ZM50 5C36.2312 5 25 16.2312 25 30C25 43.7687 36.2312 55 50 55C63.7687 55 75 43.7687 75 30C75 16.2312 63.7687 5 50 5ZM50 53.9125C36.8656 53.9125 26.1781 43.225 26.1781 30C26.188 23.6851 28.701 17.6317 33.1663 13.1663C37.6317 8.70102 43.6851 6.18804 50 6.17813C56.3149 6.18804 62.3683 8.70102 66.8337 13.1663C71.299 17.6317 73.812 23.6851 73.8219 30C73.8219 43.225 63.1344 53.9125 50 53.9125Z" fill="#191919"/>
</svg>
