<svg width="35" height="35" viewBox="0 0 35 35" fill="none" xmlns="http://www.w3.org/2000/svg">
<g clip-path="url(#clip0_10_873)">
<mask id="mask0_10_873" style="mask-type:luminance" maskUnits="userSpaceOnUse" x="0" y="0" width="35" height="35">
<path d="M35 0H0V35H35V0Z" fill="white"/>
</mask>
<g mask="url(#mask0_10_873)">
<path d="M15.407 14.1475L20.8665 17.5001L15.407 20.855V14.1475Z" fill="white"/>
<path d="M17.5 0C14.0388 0 10.6554 1.02636 7.77753 2.94928C4.89967 4.87221 2.65665 7.60533 1.33212 10.803C0.00758243 14.0007 -0.338976 17.5194 0.336265 20.9141C1.01151 24.3087 2.67822 27.4269 5.12564 29.8744C7.57306 32.3218 10.6913 33.9885 14.0859 34.6637C17.4806 35.339 20.9993 34.9924 24.197 33.6679C27.3947 32.3434 30.1278 30.1003 32.0507 27.2225C33.9737 24.3446 35 20.9612 35 17.5C35 12.8587 33.1563 8.40752 29.8744 5.12563C26.5925 1.84374 22.1413 0 17.5 0ZM25.8401 21.7115C25.4901 22.7868 24.3319 23.4408 23.2658 23.5905C19.4327 23.998 15.5673 23.998 11.7342 23.5905C10.6681 23.4408 9.50988 22.7868 9.15988 21.7115C8.61417 18.9311 8.61417 16.0712 9.15988 13.2908C9.50988 12.2039 10.6681 11.5615 11.7434 11.4118C15.5765 11.0043 19.442 11.0043 23.275 11.4118C24.3411 11.5615 25.4993 12.2132 25.8493 13.2908C26.392 16.0718 26.3889 18.9317 25.8401 21.7115Z" fill="white"/>
</g>
</g>
<defs>
<clipPath id="clip0_10_873">
<rect width="35" height="35" fill="white"/>
</clipPath>
</defs>
</svg>
