<svg xmlns="http://www.w3.org/2000/svg" width="53.82" height="53.82" fill="#4842a8" xmlns:v="https://vecta.io/nano"><path d="M0 0h53.82v53.82H0z" opacity="0"/><path d="M47.177 43.553h-9.72c-1.763.004-3.454-.696-4.7-1.943l-3.378-3.378c-.653-.655-1.539-1.024-2.464-1.025s-1.812.366-2.467 1.02l-3.38 3.38c-1.245 1.248-2.937 1.949-4.7 1.946H6.643C2.974 43.552.001 40.578 0 36.909V16.643A6.65 6.65 0 0 1 6.643 10h40.534c3.668.001 6.642 2.975 6.643 6.643v20.266c-.001 3.668-2.975 6.642-6.643 6.643zm-20.267-9.5A6.67 6.67 0 0 1 31.608 36l3.375 3.376a3.49 3.49 0 0 0 2.474 1.024h9.72c1.927-.001 3.489-1.563 3.49-3.49V16.643c-.001-1.927-1.563-3.489-3.49-3.49H6.643c-1.927.001-3.489 1.563-3.49 3.49v20.266c.001 1.927 1.563 3.489 3.49 3.49h9.72a3.49 3.49 0 0 0 2.476-1.024L22.217 36c1.246-1.242 2.933-1.941 4.693-1.944zm-11.822-.633c-3.669-.001-6.642-2.975-6.642-6.644s2.975-6.643 6.643-6.642 6.643 2.974 6.643 6.643c0 1.762-.7 3.452-1.946 4.698a6.64 6.64 0 0 1-4.698 1.945zm0-10.133a3.49 3.49 0 1 0 3.49 3.49 3.49 3.49 0 0 0-3.49-3.49zM38.733 33.42c-2.687 0-5.109-1.619-6.137-4.101s-.46-5.34 1.44-7.239 4.757-2.468 7.239-1.44 4.101 3.45 4.101 6.137c0 3.669-2.974 6.643-6.643 6.643zm0-10.133a3.49 3.49 0 1 0 2.468 1.022 3.49 3.49 0 0 0-2.468-1.022zm0 0"/></svg>