<svg width="512" height="512" viewBox="0 0 512 512" fill="none" xmlns="http://www.w3.org/2000/svg">
<path fill-rule="evenodd" clip-rule="evenodd" d="M227.96 0.62379C168.892 5.88279 123.666 25.7928 110.743 52.2268L107.401 59.0618L107.135 204.841L106.868 350.62L109.339 353.091C112.299 356.05 115.825 356.254 119.04 353.651L121.401 351.74L121.901 306.136L122.401 260.531L128.401 265.05C156.511 286.22 212.103 299.202 265.97 297.176C316.864 295.261 358.085 283.956 383.506 264.942L389.401 260.532L389.656 353.696L389.911 446.86L387.452 452.231C374.221 481.132 301.403 501.299 231.205 495.505C177.443 491.067 134.291 473.634 124.382 452.349C121.923 447.067 121.921 447.033 121.911 413.767L121.901 380.471L119.335 377.905C117.265 375.835 116.153 375.457 113.585 375.953C111.834 376.291 109.588 377.548 108.594 378.746C106.913 380.772 106.809 383.4 107.094 416.493L107.401 452.062L110.743 458.897C120.282 478.408 147.111 494.459 185.401 503.561C275.212 524.91 384.046 501.333 402.157 456.604L404.401 451.062L404.665 315.965L404.929 180.867L402.842 178.215C400.144 174.784 395.156 174.597 392.136 177.812C390.107 179.972 390.009 181.166 389.711 207.562C389.418 233.54 389.281 235.283 387.237 239.062C376.581 258.757 338.861 274.808 289.401 280.695C275.231 282.382 236.571 282.382 222.401 280.695C172.941 274.808 135.221 258.757 124.565 239.062C122.415 235.087 122.399 234.63 122.124 166.836L121.848 98.6108L129.624 104.196C157.654 124.324 202.878 135.555 255.901 135.555C309.292 135.555 357.398 123.407 383.651 103.295L389.901 98.5058V123.952C389.901 137.948 390.193 150.16 390.551 151.091C390.908 152.023 392.564 153.358 394.23 154.058C398.114 155.691 402.216 154.36 403.763 150.965C404.556 149.224 404.901 135.642 404.901 106.12C404.901 66.5228 404.77 63.3498 402.89 57.2628C394.667 30.6378 355.047 10.0068 296.901 2.07079C283 0.17379 242.551 -0.67521 227.96 0.62379ZM295.901 17.0748C356.689 25.3258 397.361 50.4158 388.575 74.2458C381.367 93.7968 347.368 110.39 299.557 117.69C280.435 120.61 245.278 121.29 224.901 119.134C165.33 112.83 122.437 91.3358 121.987 67.5618C121.888 62.3538 126.185 54.1298 131.925 48.5378C148.543 32.3518 186.896 19.3328 228.901 15.6208C243.344 14.3438 281.957 15.1818 295.901 17.0748ZM250.901 38.5618C248.023 41.4398 248.312 45.9538 251.536 48.4888C252.985 49.6288 254.949 50.5618 255.901 50.5618C256.853 50.5618 258.817 49.6288 260.266 48.4888C265.35 44.4908 262.448 36.5618 255.901 36.5618C254.234 36.5618 252.012 37.4508 250.901 38.5618ZM226.901 50.5618C222.753 54.7098 225.727 62.5618 231.446 62.5618C234.524 62.5618 238.901 58.4518 238.901 55.5618C238.901 52.6718 234.524 48.5618 231.446 48.5618C230.046 48.5618 228.001 49.4618 226.901 50.5618ZM274.974 51.1968C272.252 54.6568 272.357 57.1088 275.356 60.1068C279.937 64.6888 286.901 61.9478 286.901 55.5618C286.901 49.0148 278.972 46.1128 274.974 51.1968ZM202.845 62.4058C198.104 66.2448 201.221 74.5618 207.401 74.5618C208.654 74.5618 210.704 73.7318 211.957 72.7178C216.698 68.8788 213.581 60.5618 207.401 60.5618C206.148 60.5618 204.098 61.3918 202.845 62.4058ZM251.536 62.6348C246.471 66.6178 249.352 74.5618 255.862 74.5618C259.537 74.5618 262.901 71.1608 262.901 67.4458C262.901 64.4738 258.923 60.5618 255.901 60.5618C254.949 60.5618 252.985 61.4948 251.536 62.6348ZM299.845 62.4058C295.104 66.2448 298.221 74.5618 304.401 74.5618C308.186 74.5618 311.228 71.3558 311.118 67.4838C310.945 61.4048 304.607 58.5508 299.845 62.4058ZM227.536 74.6348C222.471 78.6178 225.352 86.5618 231.862 86.5618C235.389 86.5618 238.901 83.2028 238.901 79.8278C238.901 76.9928 234.743 72.5618 232.081 72.5618C231.03 72.5618 228.985 73.4948 227.536 74.6348ZM276.98 73.8268C275.648 74.5058 274.133 76.3458 273.612 77.9158C271.609 83.9508 280.223 89.2948 284.995 84.9768C287.87 82.3748 287.504 77.1818 284.266 74.6348C281.221 72.2388 280.293 72.1358 276.98 73.8268ZM253.216 85.5778C250.716 86.5748 248.901 89.4848 248.901 92.4958C248.901 98.0018 258.174 100.866 261.344 96.3388C265.535 90.3568 259.91 82.9098 253.216 85.5778ZM246.286 183.179C240.506 185.229 234.284 190.888 231.174 196.924C225.752 207.446 228.438 221.558 237.35 229.383C243.77 235.02 246.624 236.045 255.901 236.045C265.178 236.045 268.032 235.02 274.452 229.383C286.387 218.904 286.269 199.218 274.206 188.599C266.652 181.95 255.731 179.83 246.286 183.179ZM263.003 198.842C272.976 205.534 267.966 221.562 255.901 221.562C250.904 221.562 245.838 217.992 244.007 213.181C239.778 202.071 252.972 192.112 263.003 198.842ZM19.7609 204.713C3.64488 222.171 -3.29112 247.077 1.48088 270.354C4.26788 283.945 10.6589 296.551 19.7609 306.411C23.2539 310.194 24.1519 310.657 27.4589 310.378C30.1259 310.153 31.7719 309.296 33.1819 307.399C35.8329 303.833 34.9979 301.007 29.3419 294.396C20.6549 284.243 14.9359 268.825 14.9359 255.562C14.9359 242.299 20.6549 226.881 29.3419 216.728C34.9979 210.117 35.8329 207.291 33.1819 203.725C31.7719 201.828 30.1259 200.971 27.4589 200.746C24.1519 200.467 23.2539 200.93 19.7609 204.713ZM478.974 203.197C475.66 207.409 476.347 209.792 483.09 217.492C491.034 226.562 496.866 242.679 496.866 255.562C496.866 268.825 491.147 284.243 482.46 294.396C476.804 301.007 475.969 303.833 478.62 307.399C480.024 309.287 481.678 310.153 484.308 310.376C487.576 310.652 488.488 310.178 491.997 306.376C518.291 277.887 518.337 233.197 492.102 204.779C487.238 199.511 482.338 198.92 478.974 203.197ZM39.3359 222.729C29.9349 231.394 24.6389 248.421 26.8709 262.804C28.3639 272.43 33.5369 283.05 39.3359 288.395C44.4249 293.086 46.4679 293.477 50.2659 290.489C53.9969 287.555 53.8519 282.715 49.8979 278.212C38.6489 265.399 38.6489 245.725 49.8979 232.912C53.8519 228.409 53.9969 223.569 50.2659 220.635C46.4679 217.647 44.4249 218.038 39.3359 222.729ZM461.536 220.635C457.805 223.569 457.95 228.409 461.904 232.912C473.153 245.725 473.153 265.399 461.904 278.212C457.95 282.715 457.805 287.555 461.536 290.489C462.985 291.629 464.994 292.562 466.001 292.562C470.558 292.562 479.212 281.585 483.015 270.981C485.982 262.708 485.982 248.415 483.015 240.142C480.087 231.978 476.733 226.546 471.953 222.228C467.308 218.031 465.246 217.716 461.536 220.635ZM58.7019 240.312C54.4849 244.819 52.9009 248.984 52.9009 255.562C52.9009 269.026 63.6499 278.782 69.8279 270.927C72.4379 267.61 72.4609 264.543 69.9009 261.289C68.8009 259.891 67.9009 257.313 67.9009 255.562C67.9009 253.811 68.8009 251.233 69.9009 249.835C72.4609 246.581 72.4379 243.514 69.8279 240.197C66.9629 236.554 62.1719 236.604 58.7019 240.312ZM441.974 240.197C439.364 243.514 439.341 246.581 441.901 249.835C443.001 251.233 443.901 253.811 443.901 255.562C443.901 257.313 443.001 259.891 441.901 261.289C439.341 264.543 439.364 267.61 441.974 270.927C448.152 278.782 458.901 269.026 458.901 255.562C458.901 242.098 448.152 232.342 441.974 240.197ZM250.306 355.667C248.494 357.669 248.401 359.898 248.401 401.255V444.739L250.762 446.65C252.06 447.702 254.373 448.562 255.901 448.562C257.429 448.562 259.742 447.702 261.04 446.65L263.401 444.739V401.255C263.401 359.898 263.308 357.669 261.496 355.667C260.215 354.251 258.382 353.562 255.901 353.562C253.42 353.562 251.587 354.251 250.306 355.667ZM198.075 365.876C195.935 368.155 195.901 368.697 195.901 400.742C195.901 432.158 195.973 433.384 197.974 435.927C199.477 437.838 200.968 438.562 203.401 438.562C205.834 438.562 207.325 437.838 208.828 435.927C210.828 433.385 210.901 432.154 210.901 401.062C210.901 369.97 210.828 368.739 208.828 366.197C206.119 362.753 201.149 362.605 198.075 365.876ZM302.974 366.197C300.974 368.739 300.901 369.97 300.901 401.062C300.901 432.154 300.974 433.385 302.974 435.927C304.477 437.838 305.968 438.562 308.401 438.562C310.834 438.562 312.325 437.838 313.828 435.927C315.829 433.384 315.901 432.16 315.901 400.601V367.911L313.587 365.736C310.312 362.66 305.595 362.864 302.974 366.197ZM224.356 376.017L221.901 378.471V401.062V423.653L224.356 426.107C227.505 429.257 231.844 429.316 234.727 426.248C236.829 424.01 236.901 423.172 236.901 400.922C236.901 378.161 236.876 377.887 234.587 375.736C231.516 372.852 227.408 372.965 224.356 376.017ZM276.901 375.562C275.015 377.448 274.901 378.895 274.901 400.888C274.901 423.977 274.924 424.235 277.215 426.388C280.071 429.071 283.923 429.174 287.04 426.652C289.381 424.758 289.404 424.543 289.703 401.659L290.005 378.576L287.499 376.069C284.416 372.986 279.702 372.761 276.901 375.562Z" fill="#FACA0A"/>
</svg>
