<?xml version="1.0" encoding="utf-8"?>
<!-- Generator: Adobe Illustrator 22.0.1, SVG Export Plug-In . SVG Version: 6.00 Build 0)  -->
<svg version="1.1" id="Layer_1" xmlns="http://www.w3.org/2000/svg" xmlns:xlink="http://www.w3.org/1999/xlink" x="0px" y="0px"
	 viewBox="0 0 50 50" style="enable-background:new 0 0 50 50;" xml:space="preserve">
<style type="text/css">
	.st0{fill:#B01C33;}
	.st1{fill:#FFFFFF;}
</style>
<g>
	<path class="st0" d="M49,43.3L26.2,3.8C25.9,3.3,25.4,3,24.8,3s-1.2,0.3-1.5,0.8L0.5,43.3c-0.3,0.5-0.3,1.2,0,1.7
		c0.3,0.5,0.9,0.8,1.5,0.8h45.6c0.6,0,1.2-0.3,1.5-0.8C49.3,44.5,49.3,43.9,49,43.3"/>
	<path class="st1" d="M27.7,34.3c-1.4,1.8-2.9,2.1-4.3,2.1c-1.5,0-3.1-0.5-3.1-2.7c0-2.3,1.5-3,4.4-3h3V34.3L27.7,34.3z M39,36.1
		l-5.5-2.4l0.6,1.6l-2.2,0.4V24.7c0-4.8-3.9-5.7-7.2-5.7c-3.6,0-7,0.4-7,0.4v3.3L18,23c0,0,3.3-0.4,6-0.4c2.4,0,3.8,1.1,3.8,3v1.9
		h-4.2c-3.8,0-7.5,1.6-7.5,6.5c0,4.8,2.8,6,5.8,6c4,0,5.8-3,5.8-3h0.2l-0.1,2.3l0.3,0.3l6.6-1.2l-0.1,1.7L39,36.1L39,36.1z"/>
</g>
</svg>
