<svg xmlns="http://www.w3.org/2000/svg" width="53.82" height="53.82" fill="#4842a8" xmlns:v="https://vecta.io/nano"><path d="M0 0h53.82v53.82H0z" opacity="0"/><path d="M26.91 0a26.91 26.91 0 1 0 26.91 26.91A26.91 26.91 0 0 0 26.91 0zm0 51.129A24.219 24.219 0 1 1 51.129 26.91 24.219 24.219 0 0 1 26.91 51.129zm7.489-24.694c1.813-1.76 2.465-4.399 1.681-6.801s-2.868-4.148-5.37-4.499v-2.95h-3.8v2.85h-3.8v-2.85h-3.8v2.85h-1.9v3.8h1.9v15.2h-1.9v3.8h1.9v3.8h3.8v-3.8h3.8v3.8h3.8v-3.9c2.502-.351 4.586-2.097 5.37-4.499s.132-5.041-1.681-6.801zm-1.789-4.75c-.002 1.573-1.277 2.848-2.85 2.85h-6.65v-5.7h6.65c1.573.002 2.848 1.277 2.85 2.85zm-2.85 12.35h-6.65v-5.7h6.65a2.85 2.85 0 1 1 0 5.7z"/></svg>