<svg width="496" height="496" viewBox="0 0 496 496" fill="none" xmlns="http://www.w3.org/2000/svg">
<path fill-rule="evenodd" clip-rule="evenodd" d="M224.583 0.592944C191.126 5.87794 163.718 24.1789 146.43 52.7759C139.802 63.7399 136.079 74.3799 130.421 98.5339L125.5 119.543L112.488 119.55L99.477 119.558L83.5 103.558L67.523 87.5579H56.883H46.243L44.986 84.5239C42.202 77.8019 32.095 71.5579 24 71.5579C11.609 71.5579 0 83.1669 0 95.5579C0 107.949 11.609 119.558 24 119.558C32.095 119.558 42.202 113.314 44.986 106.592C46.219 103.614 46.374 103.558 53.383 103.558H60.523L76.5 119.558L92.477 135.558H107.168H121.86L120.93 138.801C120.419 140.585 120 144.185 120 146.801V151.558H99.121H78.243L76.986 148.524C74.202 141.802 64.095 135.558 56 135.558C43.609 135.558 32 147.167 32 159.558C32 171.949 43.609 183.558 56 183.558C64.095 183.558 74.202 177.314 76.986 170.592L78.243 167.558H103.727H129.212L133.01 170.566C136.358 173.218 136.849 174.165 137.154 178.567L137.5 183.559H114.988L92.477 183.558L76.5 199.558L60.523 215.558H53.383C46.374 215.558 46.219 215.502 44.986 212.524C42.202 205.802 32.095 199.558 24 199.558C11.609 199.558 0 211.167 0 223.558C0 235.949 11.609 247.558 24 247.558C32.095 247.558 42.202 241.314 44.986 234.592L46.243 231.558H56.883H67.523L83.5 215.558L99.477 199.558H119.193H138.909L139.483 203.308C142.063 220.173 146.259 229.08 156.279 238.967C160.251 242.886 165.829 247.332 168.675 248.847C175.22 252.33 187.717 255.558 194.66 255.558H200V292.114V328.67L191.457 338.364C172.417 359.968 161.106 382.25 154.847 410.481C152.948 419.047 152.676 424.042 152.271 457.808L151.817 495.558H251.909H352V444.702V393.846L355.563 389.179C374.259 364.694 371.442 328.879 349.061 306.497C340.3 297.737 328.743 291.282 318.245 289.287L312 288.1V269.954V251.807L323.161 242.933C337.584 231.465 348.089 219.35 358.385 202.308L360.046 199.558H378.285H396.523L412.5 215.558L428.477 231.558H439.117H449.757L451.014 234.592C453.798 241.314 463.905 247.558 472 247.558C484.391 247.558 496 235.949 496 223.558C496 211.167 484.391 199.558 472 199.558C463.905 199.558 453.798 205.802 451.014 212.524C449.781 215.502 449.626 215.558 442.617 215.558H435.477L419.521 199.579L403.566 183.601L385.501 183.329L367.435 183.058L369.827 175.308L372.219 167.558H394.988H417.757L419.014 170.592C421.798 177.314 431.905 183.558 440 183.558C452.391 183.558 464 171.949 464 159.558C464 147.167 452.391 135.558 440 135.558C431.905 135.558 421.798 141.802 419.014 148.524L417.757 151.558H396.248H374.738L375.358 147.808C375.699 145.746 375.983 142.146 375.989 139.808L376 135.558H389.762H403.523L419.5 119.558L435.477 103.558H442.617C449.626 103.558 449.781 103.614 451.014 106.592C453.798 113.314 463.905 119.558 472 119.558C484.391 119.558 496 107.949 496 95.5579C496 83.1669 484.391 71.5579 472 71.5579C463.905 71.5579 453.798 77.8019 451.014 84.5239L449.757 87.5579H439.117H428.477L412.5 103.558L396.523 119.558H385.807H375.091L374.474 115.808C373.056 107.19 369.02 92.4409 366.047 85.0139C349.101 42.6809 310.948 11.0589 265.937 2.03894C256.697 0.186944 232.506 -0.658056 224.583 0.592944ZM263.838 17.9739C287.708 23.1569 307.558 33.9379 324.589 50.9689C365.577 91.9569 371.498 154.51 338.993 203.144C333.406 211.503 317.417 228.077 310.232 232.957C307.884 234.551 305.809 235.676 305.62 235.457C305.431 235.237 300.935 228.533 295.63 220.558C286.332 206.58 286.066 206.027 288.243 205.194C311.59 196.253 325.723 178.607 327.659 155.978C330.551 122.175 301.341 93.0379 267.435 95.9039C251.723 97.2319 237.954 104.777 227.365 117.862L224.287 121.666L217.517 114.362C203.385 99.1169 190.017 77.6849 180.37 54.8099L174.993 42.0579L178.746 38.7029C191.365 27.4249 209.322 19.1389 227.5 16.2089C233.321 15.2699 256.592 16.4009 263.838 17.9739ZM172.265 75.2189C182.287 95.9599 196.107 115.626 210.938 130.249L217.844 137.058L216.812 142.558C216.244 145.583 216.036 151.433 216.348 155.558C218.249 180.649 235.685 200.551 260.643 206.118L267.787 207.711L278.397 223.635L289.007 239.558H239.609C193.183 239.558 189.824 239.439 183.793 237.576C171.602 233.81 161.648 224.179 157.607 212.238C156.71 209.586 154.98 197.279 153.764 184.889L151.552 162.36L145.934 159.524C139.882 156.47 137.142 153.242 136.343 148.227C135.785 144.721 149.582 84.7869 153.043 75.6829C155.549 69.0909 158.593 63.0059 161.314 59.1459L163.367 56.2329L164.878 59.6459C165.709 61.5219 169.033 68.5299 172.265 75.2189ZM29.545 90.0129C34.506 94.9729 30.991 103.558 24 103.558C19.889 103.558 16 99.6689 16 95.5579C16 91.4469 19.889 87.5579 24 87.5579C25.948 87.5579 27.998 88.4649 29.545 90.0129ZM477.545 90.0129C482.506 94.9729 478.991 103.558 472 103.558C467.889 103.558 464 99.6689 464 95.5579C464 91.4469 467.889 87.5579 472 87.5579C473.948 87.5579 475.998 88.4649 477.545 90.0129ZM288.429 115.378C297.452 119.601 303.29 125.343 307.765 134.398C311.294 141.538 311.5 142.483 311.5 151.558C311.5 160.633 311.294 161.578 307.765 168.718C303.267 177.82 297.477 183.489 288.18 187.893C282.139 190.755 280.591 191.058 272 191.058C263.409 191.058 261.861 190.755 255.82 187.893C246.523 183.489 240.733 177.82 236.235 168.718C232.71 161.586 232.5 160.625 232.5 151.61C232.5 142.96 232.799 141.427 235.665 135.378C239.683 126.896 245.404 120.687 252.866 116.71C260.743 112.512 265.053 111.562 274.249 112C280.251 112.286 283.448 113.047 288.429 115.378ZM264 128.865C259.092 130.412 250.721 139.08 249.216 144.174C246.446 153.55 248.399 161.025 255.466 168.092C265.583 178.209 278.417 178.209 288.534 168.092C298.306 158.32 298.598 145.889 289.299 135.546C282.827 128.348 273.477 125.878 264 128.865ZM277.545 146.013C282.506 150.973 278.991 159.558 272 159.558C267.889 159.558 264 155.669 264 151.558C264 147.447 267.889 143.558 272 143.558C273.948 143.558 275.998 144.465 277.545 146.013ZM61.545 154.013C63.093 155.56 64 157.61 64 159.558C64 161.506 63.093 163.556 61.545 165.103C56.585 170.064 48 166.549 48 159.558C48 155.447 51.889 151.558 56 151.558C57.948 151.558 59.998 152.465 61.545 154.013ZM445.545 154.013C450.506 158.973 446.991 167.558 440 167.558C435.889 167.558 432 163.669 432 159.558C432 155.447 435.889 151.558 440 151.558C441.948 151.558 443.998 152.465 445.545 154.013ZM29.545 218.013C34.506 222.973 30.991 231.558 24 231.558C19.889 231.558 16 227.669 16 223.558C16 219.447 19.889 215.558 24 215.558C25.948 215.558 27.998 216.465 29.545 218.013ZM477.545 218.013C482.506 222.973 478.991 231.558 472 231.558C467.889 231.558 464 227.669 464 223.558C464 219.447 467.889 215.558 472 215.558C473.948 215.558 475.998 216.465 477.545 218.013ZM232 280.851V306.143L224 311.314L216 316.485V286.022V255.558H224H232V280.851ZM263.772 274.683L263.5 293.808L256.5 296.174C252.65 297.476 249.163 298.544 248.75 298.549C248.337 298.554 248 288.883 248 277.058V255.558H256.022H264.043L263.772 274.683ZM296 271.943V288.328L290.25 289.017C287.087 289.396 283.488 289.947 282.25 290.241L280 290.775V273.166V255.558H288H296V271.943ZM315.458 305.089C332.706 309.582 345.991 322.91 350.508 340.251C356.985 365.118 341.068 391.356 315.458 398.027C286.096 405.675 256 382.153 256 351.558C256 321.12 286.247 297.481 315.458 305.089ZM246.789 323.308C236.202 344.74 238.321 369.656 252.379 389.055L256 394.052V436.805V479.558H211.891H167.781L168.283 450.308C168.668 427.851 169.178 419.321 170.481 413.577C176.946 385.083 188.355 364.055 207.942 344.538C213.749 338.752 221.892 331.704 226.038 328.875C233.26 323.947 248.264 315.558 249.856 315.558C250.274 315.558 248.894 319.046 246.789 323.308ZM294.005 321.16C284.669 324.563 277.724 331.274 273.93 340.558C273.094 342.605 272.507 347.379 272.517 352.058C272.531 358.513 272.991 360.927 274.9 364.558C278.882 372.132 282.631 376.081 289.204 379.626C294.968 382.734 296.218 383.019 304 382.999C311.223 382.98 313.267 382.578 317.607 380.323C325.146 376.405 328.282 373.375 332.057 366.359C335.148 360.616 335.448 359.306 335.456 351.558C335.463 344.541 335.036 342.186 333.006 338.058C329.847 331.633 323.811 325.626 317.567 322.693C311.009 319.613 300.184 318.908 294.005 321.16ZM310.329 336.922C320.603 341.215 323.108 354.685 315.118 362.676C303.883 373.911 285.472 363.848 288.428 348.087C290.195 338.673 301.151 333.087 310.329 336.922ZM278.294 410.092C293.76 417.173 313.479 417.199 329.374 410.159C332.605 408.729 335.418 407.558 335.624 407.558C335.831 407.558 336 416.558 336 427.558V447.558H304H272V427.558C272 416.558 272.171 407.558 272.379 407.558C272.588 407.558 275.25 408.699 278.294 410.092ZM336 471.558V479.558H304H272V471.558V463.558H304H336V471.558Z" fill="#1094F1"/>
</svg>
