<svg class="mr-2" xmlns="http://www.w3.org/2000/svg" xmlns:xlink="http://www.w3.org/1999/xlink" version="1.1" id="Capa_1" x="0px" y="0px" viewBox="0 0 394.024 394.024" style="enable-background:new 0 0 394.024 394.024;" xml:space="preserve"> <g> <path d="M289.191,52.012c-39.805,0-53.417,14.695-92.179,14.695c-38.763,0-52.374-14.695-92.179-14.695   C46.936,52.012,0,98.949,0,156.842c0,57.9,41.06,185.17,104.833,185.17c63.773,0,54.711-111.097,92.179-111.097   c37.469,0,28.406,111.097,92.179,111.097c63.773,0,104.833-127.27,104.833-185.17C394.024,98.949,347.089,52.012,289.191,52.012z    M99.028,197.012c-30.091,0-54.485-24.395-54.485-54.484c0-30.094,24.394-54.484,54.485-54.484   c30.091,0,54.484,24.391,54.484,54.484C153.512,172.617,129.119,197.012,99.028,197.012z M294.997,197.012   c-30.091,0-54.484-24.395-54.484-54.484c0-30.094,24.393-54.484,54.484-54.484c30.091,0,54.484,24.391,54.484,54.484   C349.481,172.617,325.088,197.012,294.997,197.012z"/> <path d="M121.335,127.28h-7.053v-7.053c0-8.371-6.786-15.156-15.158-15.156c-8.373,0-15.159,6.785-15.159,15.156v7.053h-7.052   c-8.373,0-15.16,6.789-15.16,15.16c0,8.371,6.787,15.16,15.16,15.16h7.052v7.053c0,8.371,6.786,15.156,15.159,15.156   c8.373,0,15.158-6.785,15.158-15.156V157.6h7.053c8.373,0,15.16-6.789,15.16-15.16C136.495,134.069,129.708,127.28,121.335,127.28z   "/> <circle cx="310.692" cy="126.371" r="19.126"/> <circle cx="278.641" cy="158.42" r="19.126"/> </g> <g> </g> <g> </g> <g> </g> <g> </g> <g> </g> <g> </g> <g> </g> <g> </g> <g> </g> <g> </g> <g> </g> <g> </g> <g> </g> <g> </g> <g> </g> </svg>