<svg width="23" height="18" viewBox="0 0 23 18" fill="none" xmlns="http://www.w3.org/2000/svg">
<path fill-rule="evenodd" clip-rule="evenodd" d="M6.92633 0.0988876C6.74935 0.233013 6.66316 0.330698 6.46003 0.62731C5.92266 1.41195 5.92567 2.5264 6.46732 3.3294C6.59497 3.51866 6.5951 3.51959 6.5104 3.63672C6.12358 4.17177 5.96416 4.93591 6.10391 5.58507C6.2199 6.12381 6.68436 6.84409 7.01428 6.99683C7.15138 7.06027 7.40379 7.06897 9.11003 7.06897H11.0499V8.01013V8.95128L10.2357 8.96503L9.42158 8.97877L9.31302 9.10196C9.16584 9.26901 9.16584 9.52269 9.31302 9.68974L9.42158 9.81294L10.2357 9.82668L11.0499 9.84042V10.7596V11.6788L10.1385 11.6791C9.63718 11.6792 9.15157 11.6998 9.05934 11.7248C8.80279 11.7943 8.52548 12.026 8.38501 12.2883L8.2593 12.523V14.8363V17.1495L8.37533 17.3766C8.50419 17.6289 8.68612 17.7985 8.95695 17.919C9.12393 17.9932 9.30982 17.999 11.5225 17.999C13.7352 17.999 13.9211 17.9932 14.0881 17.919C14.3589 17.7985 14.5408 17.6289 14.6697 17.3766L14.7857 17.1495V14.8363V12.523L14.66 12.2883C14.5195 12.026 14.2422 11.7943 13.9857 11.7248C13.8934 11.6998 13.3977 11.6792 12.8841 11.6791L11.9501 11.6788V10.7569V9.83489H15.4601H18.9702L19.1172 9.96291L19.2642 10.091V10.8739V11.6569L18.2515 11.6788C17.1077 11.7036 17.0284 11.7237 16.7086 12.069C16.4054 12.3963 16.4005 12.4442 16.4154 14.9564C16.4284 17.1627 16.4297 17.1908 16.528 17.37C16.6555 17.6026 17.0014 17.8995 17.2107 17.9563C17.3109 17.9834 18.2947 18.0002 19.7593 17.9997C21.9726 17.9991 22.1579 17.9932 22.3258 17.9188C22.5491 17.8199 22.7691 17.6099 22.9005 17.3702C22.9996 17.1894 23 17.1796 23 14.8399C23 12.5012 22.9995 12.4903 22.9006 12.3098C22.7716 12.0745 22.4447 11.7958 22.221 11.7305C22.1105 11.6982 21.6984 11.6788 21.1204 11.6788H20.1964L20.1794 10.8337C20.1632 10.0343 20.156 9.97529 20.0454 9.7433C19.9034 9.4452 19.6575 9.19679 19.3807 9.07198C19.1764 8.97973 19.1359 8.97864 15.5621 8.96678L11.9501 8.9548V8.01188V7.06897H13.887C15.4194 7.06897 15.8545 7.0565 15.9705 7.00917C16.1312 6.94371 16.4146 6.63371 16.6014 6.31909C17.0149 5.62256 17.0521 4.67873 16.6934 3.98435C16.6281 3.85777 16.5345 3.69884 16.4855 3.63114C16.4052 3.52002 16.4032 3.50084 16.4655 3.43358C16.5891 3.30038 16.8093 2.82231 16.8779 2.53865C17.0591 1.78891 16.8602 0.968616 16.3516 0.367753C16.0094 -0.0365548 16.5077 0.00111437 11.4948 0.00080705L7.05618 0.000499727L6.92633 0.0988876ZM15.7785 1.08711C16.1368 1.63806 16.1345 2.33437 15.7727 2.86718L15.6324 3.07375H11.5H7.36756L7.22731 2.86718C6.86552 2.33437 6.86323 1.63806 7.2215 1.08711L7.35712 0.87857H11.5H15.6429L15.7785 1.08711ZM8.32177 1.57848C7.87905 1.76072 7.99986 2.41699 8.47561 2.41423C8.75697 2.41256 8.96572 2.17451 8.91536 1.91272C8.8658 1.65492 8.55762 1.48141 8.32177 1.57848ZM10.165 1.62208C9.79071 1.84467 9.9608 2.41519 10.4014 2.41519C10.6255 2.41519 10.8249 2.21908 10.8249 1.99859C10.8249 1.78224 10.7567 1.67327 10.5751 1.59925C10.3769 1.51846 10.3352 1.52079 10.165 1.62208ZM15.7618 4.16045C16.077 4.61858 16.1279 5.23209 15.8924 5.7339C15.8255 5.87646 15.7279 6.03758 15.6755 6.09198L15.5802 6.1909H11.5H7.41982L7.32453 6.09198C7.14454 5.90508 6.98574 5.49195 6.96337 5.15245C6.93857 4.77527 7.02171 4.47519 7.2382 4.16045L7.3816 3.95199H11.5H15.6184L15.7618 4.16045ZM8.32177 4.65173C8.18638 4.70744 8.03425 4.91093 8.03425 5.03628C8.03425 5.36757 8.41678 5.59728 8.71187 5.44322C8.84645 5.37302 8.94646 5.14766 8.91522 4.98522C8.86576 4.72812 8.55735 4.55479 8.32177 4.65173ZM10.2043 4.67653C9.91489 4.79915 9.86615 5.17615 10.1135 5.37916C10.3986 5.61317 10.8249 5.42904 10.8249 5.07184C10.8249 4.85548 10.7567 4.74651 10.5751 4.67249C10.3915 4.59768 10.3903 4.59768 10.2043 4.67653ZM3.7661 9.02197C3.38226 9.1388 3.1036 9.39901 2.91897 9.81294C2.85623 9.95369 2.83701 10.1562 2.82211 10.8337L2.80357 11.6788H1.87961C1.30159 11.6788 0.889483 11.6982 0.778984 11.7305C0.555286 11.7958 0.228425 12.0745 0.0993816 12.3098C0.000450097 12.4903 0 12.5012 0 14.8399C0 17.166 0.000945212 17.1904 0.0976712 17.3667C0.226264 17.601 0.452438 17.8167 0.675147 17.9175C0.843258 17.9936 1.01263 17.9991 3.23548 18C4.99005 18.0007 5.66448 17.9868 5.80104 17.947C5.91429 17.914 6.07655 17.8073 6.21837 17.6726C6.59672 17.3132 6.59393 17.3343 6.59393 14.8399C6.59393 12.4463 6.58763 12.3888 6.29066 12.0682C5.97163 11.7237 5.89192 11.7036 4.74853 11.6788L3.73581 11.6569V10.8739V10.091L3.88281 9.96291L4.02982 9.83489L4.89553 9.83423C5.86392 9.83353 5.94039 9.81583 6.06714 9.56352C6.13978 9.41886 6.14141 9.38733 6.08312 9.25132C5.96173 8.96788 5.91487 8.95647 4.88478 8.95976C4.24289 8.96178 3.9014 8.98079 3.7661 9.02197ZM7.45407 9.01811C7.05038 9.23635 7.2292 9.83489 7.69807 9.83489C7.86244 9.83489 8.07759 9.62288 8.10901 9.42997C8.13264 9.28491 8.11774 9.249 7.97695 9.11166C7.80461 8.94356 7.64482 8.91498 7.45407 9.01811ZM5.62366 12.6545C5.67488 12.7258 5.69374 12.8618 5.69374 13.1594V13.5667H3.28571H0.877691V13.1421C0.877691 12.8086 0.893669 12.7003 0.952182 12.6372C1.02249 12.5614 1.1545 12.5569 3.29013 12.5569H5.55362L5.62366 12.6545ZM13.8032 12.6296C13.8723 12.6906 13.8855 12.7715 13.8855 13.1345V13.5667H11.5225H9.15949V13.1308C9.15949 12.7931 9.17542 12.6794 9.2302 12.6259C9.29259 12.5651 9.56188 12.5569 11.5109 12.5569C13.5042 12.5569 13.729 12.564 13.8032 12.6296ZM22.0522 12.6545C22.1034 12.7258 22.1223 12.8618 22.1223 13.1594V13.5667H19.7143H17.3063V13.1594C17.3063 12.8618 17.3251 12.7258 17.3763 12.6545L17.4464 12.5569H19.7143H21.9822L22.0522 12.6545ZM5.69374 15.6862C5.69374 16.7388 5.68307 16.9426 5.62366 17.0253L5.55362 17.1229H3.29796C1.26221 17.1229 1.03428 17.1158 0.960014 17.0502C0.883902 16.983 0.877691 16.8823 0.877691 15.7112V14.4448H3.28571H5.69374V15.6862ZM13.8855 15.7148C13.8855 16.8109 13.8758 16.9943 13.8148 17.0539C13.7524 17.1147 13.4821 17.1229 11.5225 17.1229C9.56291 17.1229 9.29263 17.1147 9.2302 17.0539C9.16917 16.9943 9.15949 16.8109 9.15949 15.7148V14.4448H11.5225H13.8855V15.7148ZM22.1223 15.7035C22.1223 16.8132 22.1135 16.9718 22.0478 17.0426C21.9775 17.1183 21.8455 17.1229 19.7099 17.1229H17.4464L17.3763 17.0253C17.3169 16.9426 17.3063 16.7388 17.3063 15.6862V14.4448H19.7143H22.1223V15.7035Z" fill="#A4C639"/>
</svg>
