<svg width="496" height="496" viewBox="0 0 496 496" fill="none" xmlns="http://www.w3.org/2000/svg">
<path fill-rule="evenodd" clip-rule="evenodd" d="M418.557 2.1848C416.171 4.5708 416 5.3818 416 14.2878V23.8328H210.455H4.909L2.455 26.2878L0 28.7418V55.8328V82.9238L2.455 85.3778C4.874 87.7978 5.159 87.8328 22.455 87.8328H40V79.8328V71.8328H28H16V55.8328V39.8328H221.545H427.091L429.545 37.3778C431.563 35.3608 432 33.9338 432 29.3668V23.8098L452.75 39.3888C464.163 47.9568 473.5 55.3568 473.5 55.8328C473.5 56.3088 464.163 63.7088 452.75 72.2768L432 87.8558V82.2988C432 77.7318 431.563 76.3048 429.545 74.2878L427.091 71.8328H257.545H88V79.8328V87.8328H252H416V97.3778C416 106.284 416.171 107.095 418.557 109.481C420.492 111.416 421.892 111.944 424.307 111.651C428.714 111.116 494.767 61.6078 495.623 58.1978C496.977 52.8058 495.732 51.6308 461.265 25.7528C424.685 -1.7112 423.247 -2.5052 418.557 2.1848ZM56 79.8328V87.8328H64H72V79.8328V71.8328H64H56V79.8328ZM105.5 137.245C101.822 138.879 98.486 142.401 97.067 146.148C96.341 148.062 96 176.311 96 234.398V319.833H104H112V235.833V151.833H276H440V287.833V423.833H312H184V431.844V439.855L314.927 439.594C445.4 439.334 445.863 439.326 448.615 437.271C450.134 436.137 452.304 433.967 453.438 432.448C455.498 429.689 455.5 429.543 455.5 287.932V146.177L452.618 142.399C447.23 135.335 460.604 135.829 275.782 135.872C138.61 135.904 107.96 136.151 105.5 137.245ZM232 169.14C230.075 169.747 226.235 172.514 223.466 175.288C218.324 180.442 216 185.548 216 191.694C216 194.761 215.603 195.022 196.23 204.718L176.461 214.612L173.622 212.348C170.315 209.712 164.647 207.833 160 207.833C147.609 207.833 136 219.442 136 231.833C136 244.224 147.609 255.833 160 255.833C172.322 255.833 184 244.222 184 231.972C184 228.905 184.397 228.644 203.77 218.948L223.539 209.054L226.378 211.318C233.613 217.086 245.176 217.233 253.187 211.657L255.875 209.786L271.687 218.592L287.5 227.399L288.094 232.885C288.885 240.201 291.354 245.094 296.567 249.683C310.414 261.872 331.476 254.531 335.446 236.134C336.053 233.321 336.761 232.754 341.318 231.429C344.168 230.6 352.345 228.118 359.49 225.913L372.479 221.905L375.49 224.812C393.252 241.967 421.578 224.462 414.911 200.451C412.539 191.908 401.497 183.833 392.188 183.833C381.115 183.833 370.982 192.278 368.554 203.532C367.947 206.345 367.239 206.912 362.682 208.237C359.832 209.066 351.689 211.537 344.586 213.729L331.672 217.714L327.395 213.95C319.677 207.156 310.802 206.057 301.506 210.746L295.73 213.66L280.115 204.961L264.5 196.262L263.782 190.516C262.83 182.894 260.647 178.573 255.433 173.983C248.848 168.186 240.5 166.461 232 169.14ZM245.545 186.288C250.506 191.248 246.991 199.833 240 199.833C238.052 199.833 236.002 198.926 234.455 197.378C232.907 195.831 232 193.781 232 191.833C232 189.885 232.907 187.835 234.455 186.288C236.002 184.74 238.052 183.833 240 183.833C241.948 183.833 243.998 184.74 245.545 186.288ZM397.545 202.288C402.506 207.248 398.991 215.833 392 215.833C387.889 215.833 384 211.944 384 207.833C384 203.722 387.889 199.833 392 199.833C393.948 199.833 395.998 200.74 397.545 202.288ZM165.545 226.288C170.506 231.248 166.991 239.833 160 239.833C158.052 239.833 156.002 238.926 154.455 237.378C152.907 235.831 152 233.781 152 231.833C152 229.885 152.907 227.835 154.455 226.288C156.002 224.74 158.052 223.833 160 223.833C161.948 223.833 163.998 224.74 165.545 226.288ZM317.545 226.288C322.506 231.248 318.991 239.833 312 239.833C307.889 239.833 304 235.944 304 231.833C304 227.722 307.889 223.833 312 223.833C313.948 223.833 315.998 224.74 317.545 226.288ZM186.455 266.288L184 268.742V335.833V402.924L186.455 405.378L188.909 407.833H212H235.091L237.545 405.378L240 402.924V335.833V268.742L237.545 266.288L235.091 263.833H212H188.909L186.455 266.288ZM346.455 274.288L344 276.742V339.833V402.924L346.455 405.378L348.909 407.833H372H395.091L397.545 405.378L400 402.924V339.833V276.742L397.545 274.288L395.091 271.833H372H348.909L346.455 274.288ZM224 335.833V391.833H212H200V335.833V279.833H212H224V335.833ZM384 339.833V391.833H372H360V339.833V287.833H372H384V339.833ZM266.455 298.288L264 300.742V351.833V402.924L266.455 405.378L268.909 407.833H292H315.091L317.545 405.378L320 402.924V351.833V300.742L317.545 298.288L315.091 295.833H292H268.909L266.455 298.288ZM304 351.833V391.833H292H280V351.833V311.833H292H304V351.833ZM73 337.334C30.334 345.956 2.515 385.498 9.113 428.141C15.338 468.372 52.114 498.111 92.439 495.523C118.486 493.851 140.82 480.85 155.11 459.04C163.919 445.595 167.456 433.218 167.456 415.833C167.456 398.415 163.932 386.113 155.043 372.497C137.306 345.325 104.03 331.064 73 337.334ZM101.5 353.324C112.787 355.673 124.23 362.026 133.138 370.888C158.249 395.872 158.188 435.645 133 460.833C107.812 486.021 68.039 486.082 43.055 460.971C23.134 440.947 18.451 412.22 31.032 387.218C44.195 361.059 72.726 347.336 101.5 353.324ZM80 389.806V411.78L66 422.333C58.3 428.137 52 433.243 52 433.679C52 434.344 58.82 443.986 60.427 445.594C61.167 446.333 94.709 421.033 95.41 419.207C95.734 418.362 96 406.456 96 392.751V367.833H88H80V389.806Z" fill="#0CAEC1"/>
</svg>
