<svg width="513" height="513" viewBox="0 0 513 513" fill="none" xmlns="http://www.w3.org/2000/svg">
<path fill-rule="evenodd" clip-rule="evenodd" d="M38.4715 1.65946C20.2855 6.55746 6.4485 20.5365 1.6855 38.8235C-0.5605 47.4475 -0.5625 405.786 1.6835 414.409C3.5165 421.444 6.5615 426.374 12.3875 431.735C18.2185 437.101 25.8405 439.87 37.1235 440.722L46.1965 441.407V466.705V492.003L26.1125 492.312L6.0285 492.62L3.1125 495.886C-0.7095 500.167 -0.7095 504.075 3.1145 508.354L6.0325 511.62L255.592 511.876L505.151 512.133L508.401 509.228C511.091 506.824 511.651 505.601 511.651 502.12C511.651 498.64 511.092 497.416 508.408 495.018L505.164 492.12H485.681H466.197V466.763V441.407L475.27 440.722C486.553 439.87 494.174 437.101 500.005 431.735C505.831 426.374 508.877 421.444 510.71 414.409C512.956 405.786 512.953 47.4475 510.707 38.8235C505.888 20.3215 491.996 6.42846 473.493 1.60946C465.131 -0.568543 46.5645 -0.520543 38.4715 1.65946ZM474.345 22.7695C480.299 25.5225 486.811 32.0395 489.531 37.9715C491.328 41.8915 491.719 44.9325 492.021 57.3705L492.38 72.1205H256.289H20.1965V59.2795C20.1965 51.0205 20.7075 44.7415 21.6275 41.6825C24.4555 32.2865 31.3275 25.1585 40.6885 21.9125C45.3895 20.2825 58.6725 20.1895 257.697 20.3985L469.697 20.6205L474.345 22.7695ZM60.6965 37.0285C54.3235 39.7565 52.6385 48.0175 57.4695 52.8475C63.5415 58.9205 73.6515 54.7175 73.6515 46.1205C73.6515 39.5355 66.5235 34.5325 60.6965 37.0285ZM100.697 37.0285C94.3235 39.7565 92.6385 48.0175 97.4695 52.8475C103.542 58.9205 113.652 54.7175 113.652 46.1205C113.652 39.5355 106.524 34.5325 100.697 37.0285ZM140.697 37.0285C134.324 39.7565 132.638 48.0175 137.469 52.8475C143.541 58.9205 153.652 54.7175 153.652 46.1205C153.652 39.5355 146.524 34.5325 140.697 37.0285ZM218.697 37.0655C212.331 39.6715 210.639 48.0165 215.492 52.8705L218.242 55.6205L334.69 55.8825L451.138 56.1455L454.395 53.2355C457.093 50.8245 457.651 49.6035 457.651 46.1205C457.651 42.6405 457.092 41.4165 454.408 39.0185L451.164 36.1205L335.931 36.1835C272.552 36.2185 219.797 36.6155 218.697 37.0655ZM492.194 250.37C492.193 399.035 492.087 408.831 490.444 412.1C487.477 418.007 483.156 420.12 474.048 420.12H466.197L466.193 342.37C466.19 267.127 466.127 264.517 464.245 261.431C462.939 259.289 461.054 257.896 458.499 257.187C453.415 255.775 394.979 255.775 389.895 257.187C387.34 257.896 385.454 259.289 384.148 261.431C382.346 264.387 382.204 266.649 382.201 292.354L382.197 320.088L384.947 323.139C386.675 325.055 389.04 326.403 391.31 326.763C394.358 327.248 395.451 326.865 398.31 324.312L401.697 321.288L402 299.204L402.305 277.12H424.25H446.197V384.62V492.12H424.22H402.246L401.97 436.142L401.697 380.164L399.038 377.506C397.007 375.475 395.391 374.847 392.197 374.847C389.003 374.847 387.386 375.475 385.355 377.506L382.697 380.164L382.423 436.142L382.147 492.12H368.194H354.24L353.967 427.038L353.697 361.955L350.391 359.001L347.083 356.047L311.557 356.334L276.031 356.62L273.113 359.886L270.197 363.152V427.636V492.12H256.197H242.197V386.185C242.197 321.281 241.827 279.277 241.242 277.737C240.716 276.355 239.048 274.414 237.536 273.422C235.019 271.774 231.836 271.62 200.197 271.62C168.558 271.62 165.374 271.774 162.857 273.422C161.345 274.414 159.678 276.355 159.152 277.737C158.567 279.277 158.197 321.281 158.197 386.185V492.12H144.223H130.249L129.973 440.037L129.697 387.955L126.391 385.001L123.084 382.047L87.6615 382.334L52.2395 382.62L49.4685 385.39C46.7025 388.154 46.6955 388.194 46.3775 404.14L46.0585 420.12H38.2755C29.2415 420.12 24.9075 417.991 21.9485 412.1C20.3055 408.831 20.1995 399.035 20.1985 250.37L20.1965 92.1205H256.197H492.197L492.194 250.37ZM52.6965 127.042C49.5015 128.387 47.1565 131.591 46.5275 135.469C46.0145 138.629 46.3725 139.496 49.4695 142.593L52.9965 146.12H80.1965H107.396L110.924 142.593C114.043 139.474 114.38 138.643 113.854 135.397C113.526 133.379 112.111 130.578 110.707 129.174L108.155 126.62L81.4255 126.41C66.7245 126.294 53.7965 126.578 52.6965 127.042ZM137.697 127.065C131.737 129.505 129.844 137.986 134.221 142.645C140.323 149.14 151.152 144.967 151.152 136.12C151.152 129.121 144.164 124.418 137.697 127.065ZM185.93 137.208C176.599 139.406 166.744 147.428 162.368 156.386C157.921 165.489 157.762 178.621 161.993 187.172L163.868 190.962L134.282 220.399L104.697 249.837L99.7495 247.923C96.5035 246.667 92.3035 246.009 87.5385 246.009C67.3885 246.009 51.9475 261.445 51.9895 281.547C52.0105 292.016 55.0005 299.099 62.6085 306.708C70.7275 314.826 77.3675 317.432 88.7205 316.956C108.019 316.147 122.069 302.283 123.016 283.115C123.301 277.339 122.902 274.231 121.284 269.628L119.182 263.647L148.439 234.331C176.049 206.664 177.866 205.046 180.697 205.576C196.349 208.509 197.462 208.538 205.137 206.207L212.534 203.96L246.525 237.953L280.518 271.945L278.419 276.823C270.659 294.863 278.793 315.462 297.022 323.938C301.76 326.141 304.1 326.575 311.197 326.568C318.365 326.56 320.654 326.121 325.806 323.765C342.41 316.175 350.939 297.046 345.233 280.195L343.057 273.77L376.876 239.885L410.697 206L414.697 206.806C432.663 210.423 448.753 202.892 456.447 187.264C459.356 181.355 459.693 179.767 459.665 172.141C459.64 164.979 459.189 162.646 456.841 157.51C453.347 149.866 446.54 143.079 438.697 139.42C433.605 137.044 431.411 136.62 424.197 136.62C416.983 136.62 414.789 137.044 409.697 139.42C401.846 143.083 395.043 149.867 391.559 157.51C389.222 162.634 388.766 164.996 388.734 172.154C388.7 179.7 389.05 181.401 391.751 186.854L394.806 193.021L361.677 226.14L328.547 259.259L322.121 257.081C314.96 254.654 305.487 254.847 299.014 257.552L295.561 258.995L260.924 224.307L226.288 189.62L228.211 184.12C232.116 172.938 230.046 159.293 223.103 150.459C214.307 139.266 199.538 134.002 185.93 137.208ZM201.697 158.12C209.631 161.961 212.776 173.035 207.947 180.13C202.79 187.708 195.496 189.895 187.803 186.172C181.931 183.329 178.965 178.615 178.965 172.12C178.965 159.977 190.658 152.776 201.697 158.12ZM430.526 157.484C437.323 160.324 441.199 167.966 439.753 175.676C438.866 180.4 432.477 186.789 427.753 187.676C421.92 188.77 417.447 187.37 413.197 183.12C400.772 170.695 414.289 150.7 430.526 157.484ZM52.6965 175.042C49.5015 176.387 47.1565 179.591 46.5275 183.469C46.0145 186.629 46.3725 187.496 49.4695 190.593L52.9965 194.12H80.1965H107.396L110.924 190.593C114.043 187.474 114.38 186.643 113.854 183.397C113.526 181.379 112.111 178.578 110.707 177.174L108.155 174.62L81.4255 174.41C66.7245 174.294 53.7965 174.578 52.6965 175.042ZM97.1195 268.875C105.443 274.971 105.017 288.772 96.3215 294.681C86.1565 301.589 71.8635 293.956 71.8635 281.62C71.8635 268.862 86.8055 261.322 97.1195 268.875ZM319.96 277.792C325.056 281.597 326.697 284.844 326.697 291.12C326.697 297.444 325.058 300.64 319.811 304.558C315.773 307.573 306.836 307.433 302.423 304.286C298.543 301.518 295.197 295.421 295.197 291.12C295.197 285.248 300.219 278.248 306.197 275.788C309.043 274.617 317.321 275.822 319.96 277.792ZM222.197 391.62V492.12H200.197H178.197V391.62V291.12H200.197H222.197V391.62ZM385.883 345.535C381.06 350.005 381.32 356.63 386.471 360.476C393.538 365.752 403.887 358.991 401.754 350.492C400.733 346.422 396.452 343.12 392.197 343.12C389.663 343.12 387.664 343.884 385.883 345.535ZM334.197 434.12V492.12H312.197H290.197V434.12V376.12H312.197H334.197V434.12ZM110.197 447.12V492.12H88.1965H66.1965V447.12V402.12H88.1965H110.197V447.12Z" fill="#1D13ED"/>
</svg>
