<svg xmlns="http://www.w3.org/2000/svg" width="53.822" height="53.82" fill="#4842a8" xmlns:v="https://vecta.io/nano"><path d="M0 0h53.82v53.82H0z" opacity="0"/><path d="M15.34 24.815a.79.79 0 0 0 .761-.788.79.79 0 0 0-.761-.788h-2.215a.79.79 0 0 0-.788.788v5.256a.79.79 0 0 0 .788.788h2.215a.79.79 0 0 0 .788-.788.79.79 0 0 0-.788-.788h-1.426V27.44h1.263a.79.79 0 0 0 .788-.788.79.79 0 0 0-.788-.788h-1.263V24.81zm-9.234 4.516c0 .195.078.382.216.52a.73.73 0 0 0 .521.214l1.589-.006c1.653-.029 2.854-1.461 2.854-3.4 0-2.043-1.17-3.416-2.911-3.416h-1.54a.74.74 0 0 0-.521.216c-.138.138-.215.326-.215.521l.007 5.351zm3.6-2.677c0 .9-.4 1.812-1.3 1.828l-.722.007-.007-3.675h.7c1.236 0 1.332 1.409 1.332 1.84zm12.248-3.365a.79.79 0 0 0-1 .5l-1.094 3.294-1.15-3.313a.79.79 0 0 0-.995-.462.79.79 0 0 0-.495.979l1.8 5.183a.91.91 0 0 0 .855.6h.006a.91.91 0 0 0 .854-.62l1.716-5.166a.79.79 0 0 0-.5-1zm16.219 5.993a.79.79 0 0 0 .813.788.81.81 0 0 0 .764-.821v-1.466h.675a2.27 2.27 0 1 0 0-4.544h-1.516c-.406 0-.736.33-.736.736zm2.252-4.467a.7.7 0 1 1 0 1.39h-.669v-1.392zm-6.72 5.256c1.382 0 2.627-.832 3.156-2.109s.236-2.746-.74-3.723-2.446-1.269-3.723-.74-2.109 1.774-2.109 3.156c0 1.887 1.529 3.416 3.416 3.416zm0-5.256a1.84 1.84 0 1 1-1.84 1.84 1.84 1.84 0 0 1 1.84-1.84zm12.687 3.679a1.69 1.69 0 0 1-1.243-.518.79.79 0 0 0-1.114-.054.79.79 0 0 0-.055 1.113c.622.67 1.498 1.046 2.412 1.036a2.3 2.3 0 0 0 2.337-1.786 2.1 2.1 0 0 0-1.609-2.322l-1.4-.566a.23.23 0 0 1-.069-.209c.01-.067.061-.232.324-.312.412-.123.858-.049 1.208.2a.79.79 0 0 0 1.052.169.79.79 0 0 0 .259-1.033 2.73 2.73 0 0 0-2.973-.84c-.75.206-1.31.832-1.43 1.6a1.8 1.8 0 0 0 .8 1.78.79.79 0 0 0 .109.059 28 28 0 0 0 1.574.638c.319.118.645.328.6.566a.76.76 0 0 1-.783.484zM43.7 13.022l1.647-1.153a1.58 1.58 0 0 0 .691-1.436c-.046-.568-.396-1.068-.914-1.305a1.58 1.58 0 0 0-1.586.158l-4.871 3.411c-.344.24-.578.607-.65 1.02a1.58 1.58 0 0 0 .263 1.18l3.42 4.866a1.58 1.58 0 0 0 1.436.691c.568-.046 1.068-.396 1.305-.914a1.58 1.58 0 0 0-.158-1.586l-1.3-1.855A11.09 11.09 0 1 1 28.49 26.654c0-7.326-5.558-13.457-12.849-14.174S1.704 16.694.277 23.88s2.83 14.282 9.841 16.406l-1.647 1.153a1.58 1.58 0 0 0-.691 1.436c.046.568.396 1.068.914 1.305a1.58 1.58 0 0 0 1.586-.158l4.871-3.411c.344-.24.578-.607.65-1.02a1.58 1.58 0 0 0-.263-1.18l-3.414-4.863a1.58 1.58 0 0 0-1.436-.691c-.568.046-1.068.396-1.305.914a1.58 1.58 0 0 0 .158 1.586l1.3 1.855a11.09 11.09 0 1 1 14.493-10.555c.001 7.327 5.56 13.458 12.852 14.173s13.937-4.218 15.362-11.405-2.835-14.282-9.848-16.403z"/></svg>