<?xml version="1.0" encoding="utf-8"?>
<!-- Generator: Adobe Illustrator 22.0.1, SVG Export Plug-In . SVG Version: 6.00 Build 0)  -->
<svg version="1.1" id="Layer_1" xmlns="http://www.w3.org/2000/svg" xmlns:xlink="http://www.w3.org/1999/xlink" x="0px" y="0px"
	 viewBox="0 0 50 50" style="enable-background:new 0 0 50 50;" xml:space="preserve">
<style type="text/css">
	.st0{fill:#379ECC;}
</style>
<g>
	<path class="st0" d="M40.8,17.2c5.2,5.6,8.3,11.8,5,20C43.3,43.1,37.9,48,31.4,50c3.5-2.5,5.8-6.5,5.8-11.2c0-3.6-1.4-7-3.8-9.4
		c4.3-1.2,7.5-5.2,7.5-10C41,18.7,40.9,17.9,40.8,17.2z M22.5,0c2.7,3.3,6.1,6.2,9.5,9.2c-0.5-0.1-0.9-0.1-1.4-0.1
		c-5.7,0-10.4,4.7-10.4,10.4c0,2.2,0.7,4.2,1.8,5.9c-6.7,0.8-12,6.5-12,13.5c0,3.3,1.2,6.4,3.2,8.8C3.9,41.9,0.7,31,4.3,22.2
		C9.6,9.1,23.9,14.3,22.5,0z M23.7,31c4.4,0,7.9,3.5,7.9,7.9c0,4.4-3.5,7.9-7.9,7.9c-4.4,0-7.9-3.5-7.9-7.9
		C15.8,34.5,19.3,31,23.7,31z M30.6,13.4c3.3,0,6,2.7,6,6c0,3.3-2.7,6-6,6c-3.3,0-6-2.7-6-6C24.6,16.1,27.3,13.4,30.6,13.4z"/>
</g>
</svg>
