<svg xmlns="http://www.w3.org/2000/svg" width="53.82" height="53.825" fill="#4842a8" xmlns:v="https://vecta.io/nano"><path d="M0 .004h53.82v53.82H0z" opacity="0"/><circle cx="16.145" cy="47.096" r="1.345"/><circle cx="43.055" cy="47.096" r="1.345"/><path d="M52.474 45.751h-2.827a6.73 6.73 0 0 0-13.184 0H22.734a6.72 6.72 0 0 0-6.221-5.347l-4.415-29.833a1.35 1.35 0 0 0-.379-.754L2.298.398C1.768-.106.933-.095.417.423S-.107 1.776.398 2.304l9.1 9.1 4.354 29.393a6.72 6.72 0 0 0 2.189 13.026 6.72 6.72 0 0 0 6.696-5.38h13.726a6.73 6.73 0 0 0 13.184 0h2.826c.743 0 1.346-.602 1.346-1.346s-.602-1.346-1.346-1.346zm-36.329 5.382c-2.229 0-4.036-1.807-4.036-4.036s1.807-4.036 4.036-4.036 4.036 1.807 4.036 4.036c0 1.07-.425 2.097-1.182 2.854s-1.783 1.182-2.854 1.182zm26.91 0c-2.229 0-4.036-1.807-4.036-4.036s1.807-4.036 4.036-4.036 4.036 1.807 4.036 4.036c0 1.07-.425 2.097-1.182 2.854s-1.783 1.182-2.854 1.182zM53.276 14.53a2.69 2.69 0 0 0-2.148-1.071V2.695H37.673V0H24.217v8.077h-5.382v5.382h-.807a2.69 2.69 0 0 0-2.663 3.071l2.691 18.837a2.69 2.69 0 0 0 2.663 2.311h25.026a2.69 2.69 0 0 0 2.588-1.952l5.384-18.837a2.69 2.69 0 0 0-.441-2.359zm-15.6-9.144h10.761v8.073H37.673zM26.909 2.695h8.073v10.764h-2.691V8.077h-5.382zm-5.382 8.073H29.6v2.691h-8.073zm24.219 24.219H20.717L18.029 16.15h33.1z"/></svg>