<svg width="668" height="667" viewBox="0 0 668 667" fill="none" xmlns="http://www.w3.org/2000/svg">
<path d="M464.55 446.015H464.8V445.765V221.876C464.8 211.918 456.832 203.95 446.874 203.95H222.004C212.046 203.95 204.078 211.918 204.078 221.876V445.765C204.078 455.722 212.046 463.69 222.004 463.69H445.892C455.767 463.69 463.684 455.855 463.816 446.015H464.55ZM222.004 191.685H445.892C462.448 191.685 476.083 205.32 476.083 221.876V445.765C476.083 462.32 463.43 474.974 446.874 474.974H222.004C205.448 474.974 192.795 462.32 192.795 445.765V220.894C192.795 204.338 205.448 191.685 222.004 191.685Z" fill="#A241BB" stroke="#A241BB" stroke-width="0.5"/>
<path opacity="0.5" d="M286.814 274.903H381.083C387.957 274.903 392.867 279.813 392.867 286.686V380.955C392.867 387.829 387.957 392.739 381.083 392.739H286.814C279.94 392.739 275.03 387.829 275.03 380.955V286.686C275.03 279.813 279.94 274.903 286.814 274.903Z" fill="#A241BB"/>
<path d="M251.464 263.121C241.644 263.121 233.788 255.265 233.788 245.445C233.788 235.626 241.644 227.77 251.464 227.77C261.283 227.77 269.139 235.626 269.139 245.445C269.139 255.265 261.283 263.121 251.464 263.121ZM251.464 239.553C248.518 239.553 245.572 242.499 245.572 245.445C245.572 248.391 248.518 251.337 251.464 251.337C254.409 251.337 257.355 248.391 257.355 245.445C257.355 242.499 254.409 239.553 251.464 239.553Z" fill="#A241BB"/>
<path d="M416.434 263.121C406.614 263.121 398.759 255.265 398.759 245.445C398.759 235.626 406.614 227.77 416.434 227.77C426.254 227.77 434.109 235.626 434.109 245.445C434.109 255.265 426.254 263.121 416.434 263.121ZM416.434 239.553C413.488 239.553 410.542 242.499 410.542 245.445C410.542 248.391 413.488 251.337 416.434 251.337C419.38 251.337 422.326 248.391 422.326 245.445C422.326 242.499 420.362 239.553 416.434 239.553Z" fill="#A241BB"/>
<path d="M251.464 439.874C241.644 439.874 233.788 432.018 233.788 422.198C233.788 412.379 241.644 404.523 251.464 404.523C261.283 404.523 269.139 412.379 269.139 422.198C269.139 432.018 261.283 439.874 251.464 439.874ZM251.464 416.307C248.518 416.307 245.572 419.252 245.572 422.198C245.572 425.144 248.518 428.09 251.464 428.09C254.409 428.09 257.355 425.144 257.355 422.198C257.355 419.252 254.409 416.307 251.464 416.307Z" fill="#A241BB"/>
<path d="M416.434 439.874C406.614 439.874 398.759 432.018 398.759 422.198C398.759 412.379 406.614 404.523 416.434 404.523C426.254 404.523 434.109 412.379 434.109 422.198C434.109 432.018 426.254 439.874 416.434 439.874ZM416.434 416.307C413.488 416.307 410.542 419.252 410.542 422.198C410.542 425.144 413.488 428.09 416.434 428.09C419.38 428.09 422.326 426.126 422.326 422.198C422.326 418.27 420.362 416.307 416.434 416.307Z" fill="#A241BB"/>
<path d="M263.246 203.951C261.855 203.951 260.442 203.253 259.373 202.183C258.303 201.114 257.605 199.701 257.605 198.309V168.85C257.605 167.459 258.303 166.046 259.373 164.976C260.442 163.907 261.855 163.208 263.246 163.208C264.638 163.208 266.051 163.907 267.12 164.976C268.19 166.046 268.888 167.459 268.888 168.85V198.309C268.888 199.701 268.19 201.114 267.12 202.183C266.051 203.253 264.638 203.951 263.246 203.951Z" fill="#A241BB" stroke="#A241BB" stroke-width="0.5"/>
<path d="M333.948 203.951C332.557 203.951 331.144 203.253 330.075 202.183C329.005 201.114 328.307 199.701 328.307 198.309V168.85C328.307 167.459 329.005 166.046 330.075 164.976C331.144 163.907 332.557 163.208 333.948 163.208C335.34 163.208 336.753 163.907 337.822 164.976C338.892 166.046 339.59 167.459 339.59 168.85V198.309C339.59 199.701 338.892 201.114 337.822 202.183C336.753 203.253 335.34 203.951 333.948 203.951Z" fill="#A241BB" stroke="#A241BB" stroke-width="0.5"/>
<path d="M404.65 203.951C403.259 203.951 401.846 203.253 400.777 202.183C399.707 201.114 399.009 199.701 399.009 198.309V168.85C399.009 167.459 399.707 166.046 400.777 164.976C401.846 163.907 403.259 163.208 404.65 163.208C406.042 163.208 407.455 163.907 408.524 164.976C409.594 166.046 410.292 167.459 410.292 168.85V198.309C410.292 199.729 409.819 201.141 408.882 202.194C407.95 203.243 406.546 203.951 404.65 203.951Z" fill="#A241BB" stroke="#A241BB" stroke-width="0.5"/>
<path d="M263.246 505.418C261.855 505.418 260.442 504.72 259.373 503.65C258.303 502.581 257.605 501.168 257.605 499.776V470.317C257.605 468.926 258.303 467.513 259.373 466.444C260.442 465.374 261.855 464.676 263.246 464.676C264.638 464.676 266.051 465.374 267.12 466.444C268.19 467.513 268.888 468.926 268.888 470.317V499.776C268.888 501.168 268.19 502.581 267.12 503.65C266.051 504.72 264.638 505.418 263.246 505.418Z" fill="#A241BB" stroke="#A241BB" stroke-width="0.5"/>
<path d="M333.948 505.418C332.557 505.418 331.144 504.72 330.075 503.65C329.005 502.581 328.307 501.168 328.307 499.776V470.317C328.307 468.926 329.005 467.513 330.075 466.444C331.144 465.374 332.557 464.676 333.948 464.676C335.34 464.676 336.753 465.374 337.822 466.444C338.892 467.513 339.59 468.926 339.59 470.317V499.776C339.59 501.168 338.892 502.581 337.822 503.65C336.753 504.72 335.34 505.418 333.948 505.418Z" fill="#A241BB" stroke="#A241BB" stroke-width="0.5"/>
<path d="M404.65 505.418C403.259 505.418 401.846 504.72 400.777 503.65C399.707 502.581 399.009 501.168 399.009 499.776V470.317C399.009 468.926 399.707 467.513 400.777 466.444C401.846 465.374 403.259 464.676 404.65 464.676C406.042 464.676 407.455 465.374 408.524 466.444C409.594 467.513 410.292 468.926 410.292 470.317V499.776C410.292 501.196 409.819 502.608 408.882 503.661C407.95 504.71 406.546 505.418 404.65 505.418Z" fill="#A241BB" stroke="#A241BB" stroke-width="0.5"/>
<path d="M203.097 263.121V263.162L203.11 263.2C203.565 264.566 203.117 265.943 202.065 266.995C201.011 268.049 199.358 268.763 197.455 268.763H167.996C166.604 268.763 165.192 268.065 164.122 266.995C163.052 265.925 162.354 264.513 162.354 263.121C162.354 261.73 163.052 260.317 164.122 259.247C165.192 258.178 166.604 257.479 167.996 257.479H197.455C198.847 257.479 200.259 258.178 201.329 259.247C202.398 260.317 203.097 261.73 203.097 263.121Z" fill="#A241BB" stroke="#A241BB" stroke-width="0.5"/>
<path d="M197.455 339.461H167.996C166.604 339.461 165.192 338.763 164.122 337.693C163.052 336.624 162.354 335.211 162.354 333.819C162.354 332.428 163.052 331.015 164.122 329.945C165.192 328.876 166.604 328.177 167.996 328.177H197.455C198.847 328.177 200.259 328.876 201.329 329.945C202.398 331.015 203.097 332.428 203.097 333.819C203.097 335.239 202.623 336.65 201.687 337.704C200.755 338.753 199.351 339.461 197.455 339.461Z" fill="#A241BB" stroke="#A241BB" stroke-width="0.5"/>
<path d="M197.455 410.164H167.996C166.604 410.164 165.192 409.466 164.122 408.397C163.052 407.327 162.354 405.914 162.354 404.523C162.354 403.131 163.052 401.718 164.122 400.649C165.192 399.579 166.604 398.881 167.996 398.881H197.455C198.847 398.881 200.259 399.579 201.329 400.649C202.398 401.718 203.097 403.131 203.097 404.523C203.097 405.942 202.623 407.354 201.687 408.407C200.755 409.456 199.351 410.164 197.455 410.164Z" fill="#A241BB" stroke="#A241BB" stroke-width="0.5"/>
<path d="M499.902 268.763H470.442C469.051 268.763 467.638 268.065 466.569 266.995C465.499 265.925 464.801 264.513 464.801 263.121C464.801 261.73 465.499 260.317 466.569 259.247C467.638 258.178 469.051 257.479 470.442 257.479H499.902C501.293 257.479 502.706 258.178 503.775 259.247C504.845 260.317 505.543 261.73 505.543 263.121C505.543 264.513 504.845 265.926 503.775 266.995C502.706 268.065 501.293 268.763 499.902 268.763Z" fill="#A241BB" stroke="#A241BB" stroke-width="0.5"/>
<path d="M499.902 339.461H470.442C469.051 339.461 467.638 338.763 466.569 337.693C465.499 336.624 464.801 335.211 464.801 333.819C464.801 332.428 465.499 331.015 466.569 329.945C467.638 328.876 469.051 328.177 470.442 328.177H499.902C501.293 328.177 502.706 328.876 503.775 329.945C504.845 331.015 505.543 332.428 505.543 333.819C505.543 335.211 504.845 336.624 503.775 337.693C502.706 338.763 501.293 339.461 499.902 339.461Z" fill="#A241BB" stroke="#A241BB" stroke-width="0.5"/>
<path d="M499.902 410.164H470.442C469.051 410.164 467.638 409.466 466.569 408.397C465.499 407.327 464.801 405.914 464.801 404.523C464.801 403.131 465.499 401.718 466.569 400.649C467.638 399.579 469.051 398.881 470.442 398.881H499.902C501.293 398.881 502.706 399.579 503.775 400.649C504.845 401.718 505.543 403.131 505.543 404.523C505.543 405.914 504.845 407.327 503.775 408.397C502.706 409.466 501.293 410.164 499.902 410.164Z" fill="#A241BB" stroke="#A241BB" stroke-width="0.5"/>
<mask id="path-19-outside-1_312:420" maskUnits="userSpaceOnUse" x="0" y="-0.173828" width="668" height="668" fill="black">
<rect fill="white" y="-0.173828" width="668" height="668"/>
<path d="M352.3 666.723H314.548C292.527 666.723 272.602 654.119 263.164 634.164C256.872 621.56 252.678 607.906 249.532 593.201C249.532 591.101 247.434 589 245.337 589L214.926 576.396C212.829 575.346 210.731 575.346 208.634 576.396C197.099 583.749 183.466 591.101 170.882 595.302C150.958 602.654 126.839 597.403 112.158 581.648L84.8925 554.34C69.1627 538.585 63.9194 515.478 72.3087 495.523C77.5519 481.869 83.8439 469.265 91.1845 456.661C92.2331 454.56 92.2331 452.46 91.1845 450.359L78.6006 419.9C77.5519 419.9 76.5033 417.8 74.406 417.8C60.7734 414.649 47.1409 410.447 33.5084 404.146C13.5839 394.693 1 374.737 1 352.68V314.869C1 292.813 13.5839 272.857 33.5084 263.404C46.0922 257.102 59.7248 252.901 74.406 249.75C76.5033 249.75 78.6006 247.649 78.6006 245.549L91.1845 215.09C92.2331 212.989 92.2331 210.888 91.1845 208.788C82.7952 197.234 76.5033 184.631 71.26 170.977C63.9194 151.021 69.1627 126.863 84.8925 112.159L112.158 84.851C127.887 69.0964 150.958 63.8448 170.882 71.197C184.515 76.4485 197.099 82.7504 209.683 90.1026C211.78 91.1529 213.877 91.1529 215.975 90.1026L246.386 77.4989C247.434 77.4989 249.532 76.4485 249.532 74.3479C252.678 60.6939 256.872 47.0398 263.164 33.3858C272.602 13.4299 292.527 0.826172 314.548 0.826172H352.3C374.322 0.826172 394.246 13.4299 403.684 33.3858C409.976 45.9895 414.171 59.6436 417.317 74.3479C417.317 76.4485 419.414 78.5492 421.511 78.5492L451.922 91.1529C454.02 92.2032 456.117 92.2032 458.214 91.1529C469.75 82.7504 482.333 76.4485 495.966 71.197C515.89 63.8448 540.01 69.0964 554.691 84.851L581.956 112.159C597.686 127.914 602.929 151.021 594.54 170.977C590.345 184.631 583.004 197.234 575.664 209.838C574.615 211.939 574.615 214.039 575.664 216.14L588.248 246.599C589.296 248.7 591.394 250.8 593.491 250.8C607.124 253.951 620.756 258.152 634.389 264.454C654.313 273.907 666.897 293.863 666.897 315.919V353.731C666.897 375.787 654.313 395.743 634.389 405.196C621.805 411.498 608.172 415.699 593.491 418.85C591.394 418.85 589.296 420.95 589.296 423.051L576.713 453.51C575.664 455.611 575.664 457.711 576.713 459.812C585.102 471.365 591.394 485.019 595.588 498.673C602.929 518.629 597.686 542.786 581.956 557.491L554.691 584.799C538.961 600.554 515.89 605.805 495.966 598.453C482.333 593.201 469.75 586.9 457.166 579.547C455.068 578.497 452.971 578.497 450.874 579.547L420.463 592.151C418.365 593.201 416.268 595.302 416.268 597.403C413.122 611.057 408.927 624.711 402.636 638.365C394.246 654.119 374.322 666.723 352.3 666.723ZM314.548 652.019H352.3C368.03 652.019 382.711 642.566 390.052 627.862C395.295 616.308 399.49 603.705 402.636 590.05C403.684 582.698 408.927 577.447 416.268 574.296L446.679 561.692C452.971 558.541 460.312 559.592 466.604 563.793C478.139 571.145 489.674 577.447 502.258 581.648C516.939 586.9 534.766 583.749 546.301 572.195L573.567 544.887C585.102 533.334 589.296 516.529 583.004 500.774C578.81 488.17 572.518 476.617 565.177 465.064C560.983 458.762 560.983 451.409 563.08 445.108L575.664 415.699C577.761 409.397 584.053 404.145 591.394 403.095C603.978 400.995 616.562 396.793 629.145 390.491C643.827 383.139 653.264 368.435 653.264 352.68V314.869C653.264 299.114 643.827 284.41 629.145 277.058C617.61 271.806 605.026 267.605 591.394 264.454C584.053 263.404 578.81 258.152 575.664 250.8L563.08 220.341C559.934 214.039 560.983 206.687 565.177 200.385C572.518 189.882 578.81 177.278 583.004 164.675C588.248 148.92 585.102 132.115 573.567 120.562L546.301 93.2535C534.766 81.7001 517.988 77.4989 502.258 83.8007C489.674 88.002 478.139 94.3038 466.604 101.656C460.312 105.857 452.971 105.857 446.679 103.757L415.219 92.2032C408.927 90.1026 403.684 83.8007 402.636 76.4485C399.49 63.8448 396.344 51.2411 390.052 38.6374C382.711 23.933 368.03 14.4802 352.3 14.4802H314.548C297.77 14.4802 283.089 23.933 276.797 38.6374C271.553 50.1908 267.359 62.7945 264.213 76.4485C263.164 83.8007 257.921 89.0523 250.58 92.2032L220.169 104.807C213.877 107.958 206.537 106.908 200.245 102.706C189.758 95.3541 177.174 89.0523 164.59 84.851C149.909 79.5995 132.082 82.7504 120.547 94.3038L93.2818 121.612C81.7466 133.165 77.5519 149.97 83.8439 165.725C88.0385 178.329 94.3304 189.882 101.671 201.436C105.866 207.737 105.866 215.09 103.768 221.391L92.2331 251.85C90.1358 258.152 83.8439 263.404 76.5033 264.454C63.9194 266.555 51.3355 270.756 39.8003 277.058C25.1191 284.41 15.6812 299.114 15.6812 314.869V352.68C15.6812 368.435 25.1191 384.19 39.8003 390.491C51.3355 395.743 63.9194 399.944 77.5519 403.095C84.8925 404.145 90.1358 409.397 93.2818 416.749L105.866 447.208C109.012 453.51 107.963 460.862 103.768 467.164C96.4278 477.667 90.1358 490.271 85.9412 502.875C80.6979 518.629 83.8439 535.434 95.3791 546.988L122.644 574.296C134.179 585.849 150.958 590.051 166.688 583.749C179.272 579.547 190.807 573.245 202.342 565.893C208.634 561.692 215.975 561.692 222.267 563.793L252.678 576.396C258.97 578.497 264.213 584.799 265.261 592.151C267.359 604.755 271.553 617.359 277.845 629.962C283.089 642.566 298.819 652.019 314.548 652.019Z"/>
</mask>
<path d="M352.3 666.723H314.548C292.527 666.723 272.602 654.119 263.164 634.164C256.872 621.56 252.678 607.906 249.532 593.201C249.532 591.101 247.434 589 245.337 589L214.926 576.396C212.829 575.346 210.731 575.346 208.634 576.396C197.099 583.749 183.466 591.101 170.882 595.302C150.958 602.654 126.839 597.403 112.158 581.648L84.8925 554.34C69.1627 538.585 63.9194 515.478 72.3087 495.523C77.5519 481.869 83.8439 469.265 91.1845 456.661C92.2331 454.56 92.2331 452.46 91.1845 450.359L78.6006 419.9C77.5519 419.9 76.5033 417.8 74.406 417.8C60.7734 414.649 47.1409 410.447 33.5084 404.146C13.5839 394.693 1 374.737 1 352.68V314.869C1 292.813 13.5839 272.857 33.5084 263.404C46.0922 257.102 59.7248 252.901 74.406 249.75C76.5033 249.75 78.6006 247.649 78.6006 245.549L91.1845 215.09C92.2331 212.989 92.2331 210.888 91.1845 208.788C82.7952 197.234 76.5033 184.631 71.26 170.977C63.9194 151.021 69.1627 126.863 84.8925 112.159L112.158 84.851C127.887 69.0964 150.958 63.8448 170.882 71.197C184.515 76.4485 197.099 82.7504 209.683 90.1026C211.78 91.1529 213.877 91.1529 215.975 90.1026L246.386 77.4989C247.434 77.4989 249.532 76.4485 249.532 74.3479C252.678 60.6939 256.872 47.0398 263.164 33.3858C272.602 13.4299 292.527 0.826172 314.548 0.826172H352.3C374.322 0.826172 394.246 13.4299 403.684 33.3858C409.976 45.9895 414.171 59.6436 417.317 74.3479C417.317 76.4485 419.414 78.5492 421.511 78.5492L451.922 91.1529C454.02 92.2032 456.117 92.2032 458.214 91.1529C469.75 82.7504 482.333 76.4485 495.966 71.197C515.89 63.8448 540.01 69.0964 554.691 84.851L581.956 112.159C597.686 127.914 602.929 151.021 594.54 170.977C590.345 184.631 583.004 197.234 575.664 209.838C574.615 211.939 574.615 214.039 575.664 216.14L588.248 246.599C589.296 248.7 591.394 250.8 593.491 250.8C607.124 253.951 620.756 258.152 634.389 264.454C654.313 273.907 666.897 293.863 666.897 315.919V353.731C666.897 375.787 654.313 395.743 634.389 405.196C621.805 411.498 608.172 415.699 593.491 418.85C591.394 418.85 589.296 420.95 589.296 423.051L576.713 453.51C575.664 455.611 575.664 457.711 576.713 459.812C585.102 471.365 591.394 485.019 595.588 498.673C602.929 518.629 597.686 542.786 581.956 557.491L554.691 584.799C538.961 600.554 515.89 605.805 495.966 598.453C482.333 593.201 469.75 586.9 457.166 579.547C455.068 578.497 452.971 578.497 450.874 579.547L420.463 592.151C418.365 593.201 416.268 595.302 416.268 597.403C413.122 611.057 408.927 624.711 402.636 638.365C394.246 654.119 374.322 666.723 352.3 666.723ZM314.548 652.019H352.3C368.03 652.019 382.711 642.566 390.052 627.862C395.295 616.308 399.49 603.705 402.636 590.05C403.684 582.698 408.927 577.447 416.268 574.296L446.679 561.692C452.971 558.541 460.312 559.592 466.604 563.793C478.139 571.145 489.674 577.447 502.258 581.648C516.939 586.9 534.766 583.749 546.301 572.195L573.567 544.887C585.102 533.334 589.296 516.529 583.004 500.774C578.81 488.17 572.518 476.617 565.177 465.064C560.983 458.762 560.983 451.409 563.08 445.108L575.664 415.699C577.761 409.397 584.053 404.145 591.394 403.095C603.978 400.995 616.562 396.793 629.145 390.491C643.827 383.139 653.264 368.435 653.264 352.68V314.869C653.264 299.114 643.827 284.41 629.145 277.058C617.61 271.806 605.026 267.605 591.394 264.454C584.053 263.404 578.81 258.152 575.664 250.8L563.08 220.341C559.934 214.039 560.983 206.687 565.177 200.385C572.518 189.882 578.81 177.278 583.004 164.675C588.248 148.92 585.102 132.115 573.567 120.562L546.301 93.2535C534.766 81.7001 517.988 77.4989 502.258 83.8007C489.674 88.002 478.139 94.3038 466.604 101.656C460.312 105.857 452.971 105.857 446.679 103.757L415.219 92.2032C408.927 90.1026 403.684 83.8007 402.636 76.4485C399.49 63.8448 396.344 51.2411 390.052 38.6374C382.711 23.933 368.03 14.4802 352.3 14.4802H314.548C297.77 14.4802 283.089 23.933 276.797 38.6374C271.553 50.1908 267.359 62.7945 264.213 76.4485C263.164 83.8007 257.921 89.0523 250.58 92.2032L220.169 104.807C213.877 107.958 206.537 106.908 200.245 102.706C189.758 95.3541 177.174 89.0523 164.59 84.851C149.909 79.5995 132.082 82.7504 120.547 94.3038L93.2818 121.612C81.7466 133.165 77.5519 149.97 83.8439 165.725C88.0385 178.329 94.3304 189.882 101.671 201.436C105.866 207.737 105.866 215.09 103.768 221.391L92.2331 251.85C90.1358 258.152 83.8439 263.404 76.5033 264.454C63.9194 266.555 51.3355 270.756 39.8003 277.058C25.1191 284.41 15.6812 299.114 15.6812 314.869V352.68C15.6812 368.435 25.1191 384.19 39.8003 390.491C51.3355 395.743 63.9194 399.944 77.5519 403.095C84.8925 404.145 90.1358 409.397 93.2818 416.749L105.866 447.208C109.012 453.51 107.963 460.862 103.768 467.164C96.4278 477.667 90.1358 490.271 85.9412 502.875C80.6979 518.629 83.8439 535.434 95.3791 546.988L122.644 574.296C134.179 585.849 150.958 590.051 166.688 583.749C179.272 579.547 190.807 573.245 202.342 565.893C208.634 561.692 215.975 561.692 222.267 563.793L252.678 576.396C258.97 578.497 264.213 584.799 265.261 592.151C267.359 604.755 271.553 617.359 277.845 629.962C283.089 642.566 298.819 652.019 314.548 652.019Z" fill="#A241BB"/>
<path d="M352.3 666.723H314.548C292.527 666.723 272.602 654.119 263.164 634.164C256.872 621.56 252.678 607.906 249.532 593.201C249.532 591.101 247.434 589 245.337 589L214.926 576.396C212.829 575.346 210.731 575.346 208.634 576.396C197.099 583.749 183.466 591.101 170.882 595.302C150.958 602.654 126.839 597.403 112.158 581.648L84.8925 554.34C69.1627 538.585 63.9194 515.478 72.3087 495.523C77.5519 481.869 83.8439 469.265 91.1845 456.661C92.2331 454.56 92.2331 452.46 91.1845 450.359L78.6006 419.9C77.5519 419.9 76.5033 417.8 74.406 417.8C60.7734 414.649 47.1409 410.447 33.5084 404.146C13.5839 394.693 1 374.737 1 352.68V314.869C1 292.813 13.5839 272.857 33.5084 263.404C46.0922 257.102 59.7248 252.901 74.406 249.75C76.5033 249.75 78.6006 247.649 78.6006 245.549L91.1845 215.09C92.2331 212.989 92.2331 210.888 91.1845 208.788C82.7952 197.234 76.5033 184.631 71.26 170.977C63.9194 151.021 69.1627 126.863 84.8925 112.159L112.158 84.851C127.887 69.0964 150.958 63.8448 170.882 71.197C184.515 76.4485 197.099 82.7504 209.683 90.1026C211.78 91.1529 213.877 91.1529 215.975 90.1026L246.386 77.4989C247.434 77.4989 249.532 76.4485 249.532 74.3479C252.678 60.6939 256.872 47.0398 263.164 33.3858C272.602 13.4299 292.527 0.826172 314.548 0.826172H352.3C374.322 0.826172 394.246 13.4299 403.684 33.3858C409.976 45.9895 414.171 59.6436 417.317 74.3479C417.317 76.4485 419.414 78.5492 421.511 78.5492L451.922 91.1529C454.02 92.2032 456.117 92.2032 458.214 91.1529C469.75 82.7504 482.333 76.4485 495.966 71.197C515.89 63.8448 540.01 69.0964 554.691 84.851L581.956 112.159C597.686 127.914 602.929 151.021 594.54 170.977C590.345 184.631 583.004 197.234 575.664 209.838C574.615 211.939 574.615 214.039 575.664 216.14L588.248 246.599C589.296 248.7 591.394 250.8 593.491 250.8C607.124 253.951 620.756 258.152 634.389 264.454C654.313 273.907 666.897 293.863 666.897 315.919V353.731C666.897 375.787 654.313 395.743 634.389 405.196C621.805 411.498 608.172 415.699 593.491 418.85C591.394 418.85 589.296 420.95 589.296 423.051L576.713 453.51C575.664 455.611 575.664 457.711 576.713 459.812C585.102 471.365 591.394 485.019 595.588 498.673C602.929 518.629 597.686 542.786 581.956 557.491L554.691 584.799C538.961 600.554 515.89 605.805 495.966 598.453C482.333 593.201 469.75 586.9 457.166 579.547C455.068 578.497 452.971 578.497 450.874 579.547L420.463 592.151C418.365 593.201 416.268 595.302 416.268 597.403C413.122 611.057 408.927 624.711 402.636 638.365C394.246 654.119 374.322 666.723 352.3 666.723ZM314.548 652.019H352.3C368.03 652.019 382.711 642.566 390.052 627.862C395.295 616.308 399.49 603.705 402.636 590.05C403.684 582.698 408.927 577.447 416.268 574.296L446.679 561.692C452.971 558.541 460.312 559.592 466.604 563.793C478.139 571.145 489.674 577.447 502.258 581.648C516.939 586.9 534.766 583.749 546.301 572.195L573.567 544.887C585.102 533.334 589.296 516.529 583.004 500.774C578.81 488.17 572.518 476.617 565.177 465.064C560.983 458.762 560.983 451.409 563.08 445.108L575.664 415.699C577.761 409.397 584.053 404.145 591.394 403.095C603.978 400.995 616.562 396.793 629.145 390.491C643.827 383.139 653.264 368.435 653.264 352.68V314.869C653.264 299.114 643.827 284.41 629.145 277.058C617.61 271.806 605.026 267.605 591.394 264.454C584.053 263.404 578.81 258.152 575.664 250.8L563.08 220.341C559.934 214.039 560.983 206.687 565.177 200.385C572.518 189.882 578.81 177.278 583.004 164.675C588.248 148.92 585.102 132.115 573.567 120.562L546.301 93.2535C534.766 81.7001 517.988 77.4989 502.258 83.8007C489.674 88.002 478.139 94.3038 466.604 101.656C460.312 105.857 452.971 105.857 446.679 103.757L415.219 92.2032C408.927 90.1026 403.684 83.8007 402.636 76.4485C399.49 63.8448 396.344 51.2411 390.052 38.6374C382.711 23.933 368.03 14.4802 352.3 14.4802H314.548C297.77 14.4802 283.089 23.933 276.797 38.6374C271.553 50.1908 267.359 62.7945 264.213 76.4485C263.164 83.8007 257.921 89.0523 250.58 92.2032L220.169 104.807C213.877 107.958 206.537 106.908 200.245 102.706C189.758 95.3541 177.174 89.0523 164.59 84.851C149.909 79.5995 132.082 82.7504 120.547 94.3038L93.2818 121.612C81.7466 133.165 77.5519 149.97 83.8439 165.725C88.0385 178.329 94.3304 189.882 101.671 201.436C105.866 207.737 105.866 215.09 103.768 221.391L92.2331 251.85C90.1358 258.152 83.8439 263.404 76.5033 264.454C63.9194 266.555 51.3355 270.756 39.8003 277.058C25.1191 284.41 15.6812 299.114 15.6812 314.869V352.68C15.6812 368.435 25.1191 384.19 39.8003 390.491C51.3355 395.743 63.9194 399.944 77.5519 403.095C84.8925 404.145 90.1358 409.397 93.2818 416.749L105.866 447.208C109.012 453.51 107.963 460.862 103.768 467.164C96.4278 477.667 90.1358 490.271 85.9412 502.875C80.6979 518.629 83.8439 535.434 95.3791 546.988L122.644 574.296C134.179 585.849 150.958 590.051 166.688 583.749C179.272 579.547 190.807 573.245 202.342 565.893C208.634 561.692 215.975 561.692 222.267 563.793L252.678 576.396C258.97 578.497 264.213 584.799 265.261 592.151C267.359 604.755 271.553 617.359 277.845 629.962C283.089 642.566 298.819 652.019 314.548 652.019Z" stroke="#A241BB" stroke-width="0.4" mask="url(#path-19-outside-1_312:420)"/>
</svg>
