<svg class="mr-2" xmlns="http://www.w3.org/2000/svg" xmlns:xlink="http://www.w3.org/1999/xlink" width="76.083" height="123.896" viewBox="0 0 76.083 123.896"> <defs> <clipPath id="clip-path"> <path id="Path_29667" data-name="Path 29667" d="M720.6,306.4h76.054v39.769H720.6Z" transform="translate(-720.6 -306.4)"/> </clipPath> <clipPath id="clip-path-2"> <path id="Path_29669" data-name="Path 29669" d="M720.6,0h38.034V85.577H720.6Z" transform="translate(-720.6)"/> </clipPath> <clipPath id="clip-path-3"> <path id="Path_29671" data-name="Path 29671" d="M975,0h38.034V85.577H975Z" transform="translate(-975)"/> </clipPath> <clipPath id="clip-path-4"> <path id="Path_29673" data-name="Path 29673" d="M720.6,470.3h38.034v53.583H720.6Z" transform="translate(-720.6 -470.3)"/> </clipPath> <clipPath id="clip-path-5"> <path id="Path_29675" data-name="Path 29675" d="M975,470.3h38.049v53.583H975Z" transform="translate(-975 -470.3)"/> </clipPath> </defs> <g id="ethereum" transform="translate(-720.6)"> <g id="Group_29080" data-name="Group 29080" transform="translate(720.6 45.809)" opacity="0.6"> <g id="Group_29079" data-name="Group 29079" transform="translate(0)" clip-path="url(#clip-path)"> <path id="Path_29666" data-name="Path 29666" d="M758.634,306.4,720.6,323.7l38.034,22.471L796.654,323.7Z" transform="translate(-720.6 -306.4)" fill="#010101"/> </g> </g> <g id="Group_29082" data-name="Group 29082" transform="translate(720.6)" opacity="0.45"> <g id="Group_29081" data-name="Group 29081" transform="translate(0)" clip-path="url(#clip-path-2)"> <path id="Path_29668" data-name="Path 29668" d="M720.6,63.106l38.034,22.471V0Z" transform="translate(-720.6)" fill="#010101"/> </g> </g> <g id="Group_29084" data-name="Group 29084" transform="translate(758.634)" opacity="0.8"> <g id="Group_29083" data-name="Group 29083" transform="translate(0)" clip-path="url(#clip-path-3)"> <path id="Path_29670" data-name="Path 29670" d="M975,0V85.577l38.019-22.471Z" transform="translate(-975)" fill="#010101"/> </g> </g> <g id="Group_29086" data-name="Group 29086" transform="translate(720.6 70.313)" opacity="0.45"> <g id="Group_29085" data-name="Group 29085" transform="translate(0)" clip-path="url(#clip-path-4)"> <path id="Path_29672" data-name="Path 29672" d="M720.6,470.3l38.034,53.583V492.771Z" transform="translate(-720.6 -470.3)" fill="#010101"/> </g> </g> <g id="Group_29088" data-name="Group 29088" transform="translate(758.634 70.313)" opacity="0.8"> <g id="Group_29087" data-name="Group 29087" transform="translate(0)" clip-path="url(#clip-path-5)"> <path id="Path_29674" data-name="Path 29674" d="M975,492.771v31.112l38.049-53.583Z" transform="translate(-975 -470.3)" fill="#010101"/></g></g></g></svg>