<svg xmlns="http://www.w3.org/2000/svg" width="53.829" height="53.82" fill="#4842a8" xmlns:v="https://vecta.io/nano"><path d="M.007 0h53.82v53.82H.007z" opacity="0"/><path d="M41.269 23.833h-5.382v-2.691a2.69 2.69 0 0 0-2.691-2.691h-4.489V9.033c.001-.742.603-1.344 1.345-1.345h15.255V5H30.056a4.04 4.04 0 0 0-4.036 4.033v9.418h-5.382a2.69 2.69 0 0 0-2.691 2.691v2.691h-5.382A12.56 12.56 0 0 0 6.92 47.612a12.56 12.56 0 0 0 15.258-3.148h9.478c3.742 4.456 10.055 5.757 15.254 3.144s7.921-8.456 6.578-14.117-6.4-9.658-12.219-9.657zm-20.631-2.691h12.558v2.691H20.638zm20.631 25.116c-3.335 0-6.444-1.687-8.262-4.483H20.83c-2.577 3.956-7.595 5.532-11.971 3.759s-6.882-6.397-5.978-11.031 4.964-7.978 9.685-7.977h28.7a9.87 9.87 0 0 1 9.867 9.867 9.87 9.87 0 0 1-9.867 9.867z"/><circle cx="46.202" cy="36.394" r="2.242"/><circle cx="35.438" cy="36.394" r="2.242"/><circle cx="40.82" cy="31.461" r="2.242"/><circle cx="40.82" cy="41.328" r="2.242"/><path d="M13.462 35.498v-4.485h-2.691v4.485H6.286v2.691h4.485v4.485h2.691v-4.485h4.485v-2.691z"/></svg>