<svg width="482" height="511" viewBox="0 0 482 511" fill="none" xmlns="http://www.w3.org/2000/svg">
<path fill-rule="evenodd" clip-rule="evenodd" d="M154.106 47.3878L72.1977 94.7348L66.3548 90.4338C58.1078 84.3628 51.9798 82.4558 41.0138 82.5468C34.2278 82.6028 30.6607 83.1598 26.5138 84.8108C15.3247 89.2658 6.83175 97.7528 2.34075 108.972C-0.78025 116.766 -0.78025 131.178 2.34075 138.972C6.77875 150.057 15.4928 158.845 26.0138 162.847L31.0138 164.749L31.5138 261.11C31.8818 331.951 32.3228 358.002 33.1808 359.472C33.8228 360.572 46.1978 368.288 60.6808 376.619C152.707 429.552 200.008 457.1 199.966 457.739C199.94 458.142 199.548 461.08 199.095 464.268C197.413 476.114 202.569 490.303 211.759 499.114C232.545 519.043 266.343 512.556 278.805 486.246C281.823 479.876 282.016 478.792 282.051 468.065L282.088 456.658L364.051 409.355C409.131 383.339 446.802 361.085 447.764 359.902C449.404 357.886 449.514 351.673 449.514 261.33C449.514 170.37 449.613 164.879 451.264 164.376C482.917 154.738 492.049 114.757 467.635 92.6998C452.422 78.9568 428.35 78.6408 413.152 91.9848L409.734 94.9858L390.374 83.7998C242.69 -1.53323 245.377 -0.0302389 240.583 0.00576113C236.401 0.0377611 229.082 4.04776 154.106 47.3878ZM319.766 66.1058C362.802 90.9298 398.31 111.517 398.673 111.856C399.035 112.195 398.915 115.071 398.405 118.247C395.601 135.721 405.919 154.119 423.005 162.115L429.514 165.161L429.507 256.816L429.5 348.472L350.364 394.132L271.229 439.793L266.373 435.955C258.863 430.018 251.677 427.636 241.014 427.547C230.068 427.456 223.92 429.363 215.736 435.387L209.955 439.643L131.485 394.316C88.3257 369.386 52.6758 348.986 52.2638 348.981C51.8518 348.976 51.5138 307.558 51.5138 256.941C51.5138 170.178 51.6138 164.876 53.2638 164.333C73.3698 157.711 86.1757 137.766 82.9287 118.13L81.9497 112.213L160.982 66.5948C204.45 41.5058 240.352 20.9768 240.766 20.9748C241.179 20.9728 276.729 41.2818 319.766 66.1058ZM169.182 116.259C122.266 143.383 100.924 156.245 99.9678 157.974C97.8918 161.724 97.8457 315.788 99.9187 319.772C101.914 323.604 235.828 400.972 240.468 400.972C244.286 400.972 242.597 401.83 271.014 385.446C283.664 378.153 312.914 361.306 336.014 348.01C359.114 334.714 379.026 322.716 380.264 321.348L382.514 318.86V238.972V159.084L380.264 156.588C379.026 155.215 347.897 136.74 311.087 115.532C256.569 84.1218 243.497 76.9778 240.587 77.0068C237.737 77.0348 223.296 84.9728 169.182 116.259ZM301.229 132.972C329.358 149.197 352.066 162.77 351.693 163.134C351.32 163.498 326.307 178.051 296.109 195.474C249.918 222.125 240.872 227 239.109 226.196C235.272 224.445 132.035 164.758 130.731 163.536C129.714 162.583 140.998 155.674 185.138 130.223L240.829 98.1108L245.458 100.792C248.003 102.266 273.1 116.747 301.229 132.972ZM50.0138 103.843C58.7538 107.835 64.1688 116.804 63.2998 125.848C62.3418 135.814 54.2468 144.393 44.5768 145.69C27.8968 147.928 14.5088 130.478 21.3928 115.472C26.5348 104.262 39.4458 99.0158 50.0138 103.843ZM449.578 104.722C456.972 108.471 460.742 113.978 461.312 121.861C461.87 129.576 460.188 134.352 455.135 139.397C441.329 153.183 418.197 143.523 418.197 123.972C418.197 107.426 434.812 97.2338 449.578 104.722ZM180.014 215.503C211.364 233.591 238.188 248.563 239.622 248.774C243.042 249.277 241.656 250.026 304.964 213.46C335.089 196.06 360.361 181.584 361.125 181.291C362.301 180.84 362.514 190.607 362.514 245.138V309.518L306.764 341.705L251.014 373.892L250.769 350.182C250.506 324.732 250.169 322.879 245.349 320.387C241.179 318.23 237.874 318.678 234.28 321.888L231.014 324.804L230.514 349.202L230.014 373.599L174.298 341.535L118.582 309.472L118.548 244.607L118.514 179.742L120.764 181.179C122.002 181.969 148.664 197.415 180.014 215.503ZM234.303 276.87C231.619 279.268 231.059 280.492 231.059 283.972C231.059 291.189 238.589 296.047 244.83 292.855C254.398 287.962 250.89 273.972 240.096 273.972C238.693 273.972 236.086 275.276 234.303 276.87ZM252.22 450.555C258.233 454.226 262.514 461.911 262.514 469.037C262.514 483.105 248.423 493.717 234.663 490.012C226.24 487.744 218.514 477.678 218.514 468.972C218.514 460.895 225.348 451.272 233.129 448.39C238.98 446.223 246.524 447.079 252.22 450.555Z" fill="#1094F1"/>
</svg>
