<?xml version="1.0" encoding="utf-8"?>
<!-- Generator: Adobe Illustrator 22.0.1, SVG Export Plug-In . SVG Version: 6.00 Build 0)  -->
<svg version="1.1" id="Layer_1" xmlns="http://www.w3.org/2000/svg" xmlns:xlink="http://www.w3.org/1999/xlink" x="0px" y="0px"
	 viewBox="0 0 50 50" style="enable-background:new 0 0 50 50;" xml:space="preserve">
<g>
	<path d="M1.2,36.1h4v-17h-4V36.1z M3.2,16.9c1.3,0,2.2-1,2.2-2.2c0-1.2-1-2.2-2.2-2.2c-1.2,0-2.2,1-2.2,2.2C1,15.9,2,16.9,3.2,16.9
		z M18.5,12.6c-6.8,0-11,4.6-11,12s4.2,12,11,12c6.7,0,11-4.6,11-12S25.3,12.6,18.5,12.6z M18.5,16.1c4.1,0,6.8,3.3,6.8,8.5
		c0,5.2-2.6,8.4-6.8,8.4c-4.1,0-6.8-3.3-6.8-8.4C11.8,19.4,14.4,16.1,18.5,16.1z M31.2,29.6c0.2,4.3,3.7,6.9,9,6.9
		c5.6,0,9.1-2.8,9.1-7.2c0-3.5-2-5.4-6.7-6.5L40,22.3c-2.8-0.7-4-1.6-4-3.1c0-1.9,1.8-3.2,4.4-3.2c2.7,0,4.5,1.3,4.7,3.5h4
		c-0.1-4.1-3.5-6.8-8.6-6.8c-5,0-8.6,2.8-8.6,6.9c0,3.3,2,5.4,6.3,6.3l3,0.7c2.9,0.7,4.1,1.7,4.1,3.3c0,1.9-1.9,3.3-4.7,3.3
		c-2.8,0-5-1.4-5.2-3.5L31.2,29.6L31.2,29.6z"/>
</g>
</svg>
