<svg width="675" height="675" viewBox="0 0 675 675" fill="none" xmlns="http://www.w3.org/2000/svg">
<path fill-rule="evenodd" clip-rule="evenodd" d="M206.907 2.90625C190.682 8.10817 176.115 22.8338 171.002 39.203C162.323 66.9924 174.849 94.7398 201.753 107.319C209.421 110.905 213.069 111.718 222.946 112.04L234.877 112.429L237.864 119.852C239.507 123.937 241.332 127.239 241.918 127.191C245.708 126.888 261.08 120.038 261.08 118.655C261.08 117.727 259.811 114.008 258.26 110.392L255.439 103.816L262.423 97.5432C268.973 91.6594 279.372 74.4185 279.372 69.4458C279.372 67.8543 289.243 67.5253 337.063 67.5253C384.884 67.5253 394.755 67.8543 394.755 69.4458C394.755 74.4045 405.153 91.658 411.669 97.5122L418.618 103.755L413.088 117.334L407.558 130.914L410.655 132.116C412.357 132.777 417.095 134.645 421.183 136.269C428.156 139.039 428.673 139.07 429.542 136.764C430.052 135.413 432.449 129.385 434.869 123.367L439.268 112.428L451.134 112.024C460.588 111.704 464.807 110.807 471.901 107.61L480.804 103.598L525.964 148.72L571.123 193.842L567.109 202.737C563.909 209.827 563.011 214.039 562.69 223.493L562.286 235.353L523.196 250.981C501.695 259.577 482.998 267.03 481.646 267.546C479.338 268.425 479.368 268.941 482.141 275.908C483.766 279.993 485.632 284.715 486.288 286.402C487.45 289.391 488.532 289.047 529.244 272.745L571.008 256.022L577.235 262.942C583.074 269.43 600.353 279.82 605.304 279.82C606.897 279.82 607.226 289.682 607.226 337.463C607.226 385.243 606.897 395.105 605.304 395.105C600.35 395.105 583.074 405.495 577.23 411.989L570.998 418.915L555.145 412.549C546.427 409.048 538.803 406.696 538.205 407.321C536.98 408.606 529.649 426.376 530.191 426.751C530.382 426.883 537.682 429.82 546.413 433.276L562.285 439.561L562.689 451.427C563.011 460.879 563.909 465.098 567.099 472.167L571.105 481.042L559.99 492.214L548.874 503.385L557.06 511.308L565.247 519.232L576.3 508.253L587.351 497.275L596.234 501.345C604.038 504.922 606.747 505.42 618.556 505.444C631.268 505.469 632.574 505.185 642.629 500.219C655.436 493.895 663.413 485.755 669.61 472.684C673.637 464.191 674.064 462.015 674.064 449.936C674.064 437.858 673.637 435.682 669.61 427.189C663.582 414.475 655.453 406.038 643.456 400.04C638.026 397.327 632.719 395.105 631.662 395.105C630.069 395.105 629.74 385.243 629.74 337.463C629.74 289.682 630.069 279.82 631.662 279.82C632.719 279.82 638.026 277.598 643.456 274.885C655.453 268.887 663.582 260.45 669.61 247.737C673.637 239.243 674.064 237.067 674.064 224.989C674.064 212.91 673.637 210.734 669.61 202.241C663.413 189.17 655.436 181.03 642.629 174.706C632.574 169.74 631.268 169.456 618.556 169.481C606.739 169.505 604.039 170.002 596.213 173.588L587.31 177.668L542.151 132.546L496.991 87.4247L501.075 78.5295C504.664 70.7097 505.161 68.0117 505.185 56.2048C505.21 43.5037 504.926 42.199 499.956 32.1523C493.627 19.3556 485.48 11.3854 472.398 5.19369C463.898 1.16994 461.72 0.74394 449.631 0.74394C437.543 0.74394 435.365 1.16994 426.865 5.19369C414.14 11.2167 405.696 19.3387 399.693 31.3256C396.978 36.751 394.755 42.0542 394.755 43.11C394.755 44.7015 384.884 45.0305 337.063 45.0305C291.849 45.0305 279.372 44.6509 279.371 43.2731C279.37 39.5868 270.968 23.9923 266.06 18.564C251.325 2.26655 228.087 -3.88436 206.907 2.90625ZM234.886 24.2454C246.978 27.815 258.266 43.2802 258.266 56.2779C258.266 73.6987 241.931 90.0201 224.496 90.0201C207.06 90.0201 190.725 73.6987 190.725 56.2779C190.725 47.4417 193.945 40.3122 201.231 33.0169C211.101 23.1333 221.734 20.3622 234.886 24.2454ZM460.021 24.2454C472.114 27.815 483.402 43.2802 483.402 56.2779C483.402 73.6987 467.067 90.0201 449.631 90.0201C432.196 90.0201 415.861 73.6987 415.861 56.2779C415.861 47.4417 419.08 40.3122 426.366 33.0169C436.237 23.1333 446.869 20.3622 460.021 24.2454ZM121.53 142.983L86.8153 177.668L77.914 173.588C70.0877 170.002 67.3861 169.505 55.5707 169.481C42.859 169.456 41.5532 169.74 31.498 174.706C18.6906 181.03 10.7138 189.17 4.51694 202.241C0.489829 210.734 0.0634766 212.91 0.0634766 224.989C0.0634766 237.067 0.489829 239.243 4.51694 247.737C10.545 260.45 18.6738 268.887 30.6707 274.885C36.1007 277.598 41.4082 279.82 42.465 279.82C44.0578 279.82 44.3871 289.682 44.3871 337.463C44.3871 385.243 44.0578 395.105 42.465 395.105C41.4082 395.105 36.1007 397.327 30.6707 400.04C18.6738 406.038 10.545 414.475 4.51694 427.189C0.4842 435.693 0.0634766 437.848 0.0634766 450.01C0.0634766 462.684 0.358968 464.035 5.31899 474.062C11.6481 486.859 19.7952 494.829 32.877 501.021C41.3984 505.056 43.5245 505.468 55.6439 505.444C67.3791 505.42 70.0976 504.918 77.914 501.337L86.8167 497.257L131.976 542.379L177.136 587.5L173.052 596.396C169.463 604.215 168.966 606.913 168.942 618.72C168.917 631.445 169.194 632.712 174.223 642.881C180.491 655.554 188.582 663.402 201.982 669.809C210.233 673.754 212.435 674.181 224.496 674.181C236.584 674.181 238.762 673.755 247.262 669.731C259.987 663.708 268.431 655.586 274.434 643.6C277.149 638.174 279.372 632.871 279.372 631.815C279.372 630.224 289.243 629.895 337.063 629.895C384.884 629.895 394.755 630.224 394.755 631.815C394.755 632.871 396.978 638.174 399.693 643.6C405.696 655.586 414.14 663.708 426.865 669.731C435.365 673.755 437.543 674.181 449.631 674.181C461.72 674.181 463.898 673.755 472.398 669.731C485.48 663.54 493.627 655.57 499.956 642.773C504.926 632.726 505.21 631.421 505.185 618.72C505.161 606.916 504.663 604.215 501.078 596.404L496.998 587.517L521.493 563.013L545.987 538.51L537.911 530.441L529.836 522.372L505.312 546.845L480.787 571.32L471.893 567.244C464.086 563.666 461.364 563.164 449.631 563.14C437.512 563.116 435.386 563.528 426.865 567.563C414.14 573.586 405.696 581.708 399.693 593.695C396.978 599.12 394.755 604.423 394.755 605.479C394.755 607.071 384.884 607.4 337.063 607.4C289.243 607.4 279.372 607.071 279.372 605.479C279.372 600.507 268.973 583.266 262.423 577.382L255.439 571.109L258.26 564.533C259.811 560.917 261.08 557.199 261.08 556.271C261.08 554.747 244.628 547.635 241.832 547.949C241.196 548.021 239.371 551.323 237.777 555.288L234.877 562.496L223.003 562.901C213.537 563.221 209.321 564.117 202.225 567.316L193.323 571.327L148.163 526.205L103.004 481.083L107.018 472.188C110.218 465.098 111.116 460.886 111.437 451.432L111.841 439.572L150.931 423.944C172.432 415.348 191.129 407.895 192.481 407.379C194.789 406.5 194.759 405.984 191.986 399.017C190.361 394.933 188.495 390.21 187.839 388.523C186.677 385.534 185.595 385.878 144.883 402.18L103.119 418.903L96.8915 411.984C91.0535 405.495 73.7743 395.105 68.8227 395.105C67.2299 395.105 66.9006 385.243 66.9006 337.463C66.9006 289.682 67.2299 279.82 68.8227 279.82C73.7743 279.82 91.0535 269.43 96.8915 262.942L103.119 256.022L144.883 272.745C185.595 289.047 186.677 289.391 187.839 286.402C188.495 284.715 190.361 279.993 191.986 275.908C194.759 268.941 194.789 268.425 192.481 267.546C191.129 267.03 172.432 259.577 150.931 250.981L111.841 235.353L111.437 223.493C111.116 214.042 110.218 209.827 107.021 202.743L103.008 193.853L137.686 159.159L172.364 124.465L164.75 116.381C160.563 111.936 156.937 108.297 156.69 108.297C156.446 108.297 140.623 123.906 121.53 142.983ZM247.626 147.55C240.874 149.204 228.831 156.26 225.005 160.804C223.091 163.076 219.862 168.166 217.829 172.116C214.583 178.425 214.058 181.388 213.516 196.519L212.9 213.741H224.202H235.503L235.98 198.375C236.494 181.773 237.715 178.647 246.138 172.354C249.47 169.865 252.483 169.389 267.435 168.991L284.852 168.525L289.841 178.426C292.585 183.87 296.059 188.983 297.562 189.786C301.254 191.76 372.873 191.76 376.565 189.786C378.068 188.983 381.517 183.922 384.229 178.538L389.161 168.752H404.668C422.794 168.752 427.783 170.343 433.616 177.983L437.671 183.293L438.05 285.912L438.428 388.528L426.026 376.582C412.958 363.997 405.361 359.957 394.755 359.957C376.43 359.957 359.577 376.796 359.577 395.105C359.577 407.043 363.236 413.03 382.774 433.065L401.283 452.045L397.85 461.184C390.87 479.757 392.171 504.673 401.146 524.269C403.048 528.422 404.604 533.641 404.604 535.868V539.916H415.861H427.118V533.032C427.118 527.978 425.715 523.213 421.841 515.107C416.725 504.4 416.565 503.591 416.565 488.47C416.565 473.233 416.686 472.636 421.847 462.46C424.752 456.733 427.128 450.524 427.123 448.665C427.119 446.19 421.097 439.197 404.604 422.521C384.87 402.567 382.091 399.195 382.091 395.214C382.091 388.96 388.638 382.452 394.928 382.452C399.06 382.452 402.838 385.738 431.308 414.085C448.781 431.484 463.692 445.717 464.445 445.717C466.184 445.714 479.18 432.547 479.18 430.786C479.18 430.062 475.065 425.393 470.034 420.412L460.888 411.355V371.275V331.195L473.605 343.819C481.793 351.946 487.682 359.197 490.139 364.175L493.955 371.908L494.359 439.041L494.763 506.173H505.967H517.172V441.57C517.172 399.971 516.62 374.313 515.621 369.516C512.288 353.494 506.812 345.353 483.154 321.248L461.032 298.708L460.608 239.002L460.185 179.296L456.392 172.116C450.777 161.478 446.536 157.099 436.687 151.764L427.821 146.96L339.878 146.727C291.509 146.599 249.995 146.97 247.626 147.55ZM66.0339 192.956C73.7631 195.238 85.4195 206.885 87.7032 214.607C91.6008 227.789 88.8528 238.299 78.9088 248.234C64.6732 262.458 46.6145 262.458 32.3789 248.234C18.1433 234.011 18.1433 215.982 32.3789 201.728C42.2497 191.844 52.8817 189.073 66.0339 192.956ZM628.873 192.956C640.966 196.526 652.253 211.991 652.253 224.989C652.253 242.409 635.918 258.731 618.483 258.731C601.048 258.731 584.713 242.409 584.713 224.989C584.713 216.152 587.932 209.023 595.218 201.728C605.089 191.844 615.721 189.073 628.873 192.956ZM213.557 371.556L213.942 506.876L217.735 514.056C223.35 524.695 227.591 529.073 237.44 534.409L246.306 539.213L314.198 539.627L382.091 540.042V528.771V517.501L316.198 517.11L250.305 516.718L244.99 512.666C235.244 505.237 235.752 513.197 235.752 367.735V236.236H224.462H213.171L213.557 371.556ZM322.289 259.736C305.274 262.087 283.879 271.29 270.578 281.981C266.129 285.557 262.487 288.927 262.487 289.471C262.487 290.015 265.922 293.849 270.121 297.993L277.754 305.526L283.84 300.314C296.684 289.314 319.157 281.275 337.063 281.275C354.98 281.275 377.443 289.314 390.304 300.328L396.406 305.555L404.375 297.523L412.343 289.492L406.715 284.6C384.704 265.464 351.531 255.694 322.289 259.736ZM322.289 302.96C318.419 304.083 314.851 305.031 314.359 305.064C312.659 305.183 296.258 316.61 296.258 317.677C296.258 319.003 309.823 333.245 311.087 333.245C311.592 333.245 313.801 331.967 315.999 330.403C328.615 321.428 345.512 321.428 358.128 330.403C360.326 331.967 362.535 333.245 363.04 333.245C364.271 333.245 377.869 319.02 377.869 317.732C377.869 315.925 363.281 306.676 356.763 304.35C347.779 301.143 330.889 300.463 322.289 302.96ZM280.78 382.452V393.699H292.036H303.293V382.452V371.205H292.036H280.78V382.452ZM325.807 382.452V393.699H337.063H348.32V382.452V371.205H337.063H325.807V382.452ZM66.0339 417.904C78.1265 421.474 89.4142 436.939 89.4142 449.936C89.4142 467.357 73.0792 483.679 55.6439 483.679C46.7932 483.679 39.6663 480.463 32.3789 473.182C18.1433 458.958 18.1433 440.93 32.3789 426.675C42.2497 416.792 52.8817 414.021 66.0339 417.904ZM628.873 417.904C640.966 421.474 652.253 436.939 652.253 449.936C652.253 467.357 635.918 483.679 618.483 483.679C609.632 483.679 602.506 480.463 595.218 473.182C580.983 458.958 580.983 440.93 595.218 426.675C605.089 416.792 615.721 414.021 628.873 417.904ZM314.55 483.679V494.926H337.063H359.577V483.679V472.431H337.063H314.55V483.679ZM234.886 586.615C242.615 588.896 254.271 600.543 256.555 608.266C260.453 621.448 257.705 631.957 247.761 641.893C240.473 649.174 233.346 652.389 224.496 652.389C207.06 652.389 190.725 636.068 190.725 618.647C190.725 609.811 193.945 602.682 201.231 595.386C211.101 585.503 221.734 582.731 234.886 586.615ZM460.021 586.615C472.114 590.184 483.402 605.649 483.402 618.647C483.402 636.068 467.067 652.389 449.631 652.389C440.781 652.389 433.654 649.174 426.366 641.893C412.131 627.669 412.131 609.641 426.366 595.386C436.237 585.503 446.869 582.731 460.021 586.615Z" fill="#FF9800"/>
</svg>
