<svg width="676" height="653" viewBox="0 0 676 653" fill="none" xmlns="http://www.w3.org/2000/svg">
<path fill-rule="evenodd" clip-rule="evenodd" d="M235.246 2.98517C232.725 4.5214 229.406 7.83843 227.869 10.3585C225.255 14.644 225.073 17.5042 225.069 54.7083L225.063 94.479L228.516 97.9281L231.967 101.379H337.563H443.16L446.611 97.9281L450.063 94.479L450.061 55.4111C450.059 11.7626 449.651 9.57284 440.363 3.37169L435.585 0.181152L337.707 0.186774C242.521 0.190991 239.703 0.268296 235.246 2.98517ZM427.563 50.7799V78.8903H416.313H405.063V65.4746C405.063 53.1032 404.795 51.7891 401.611 48.6084L398.16 45.1578H337.563H276.967L273.516 48.6084C270.332 51.7891 270.063 53.1032 270.063 65.4746V78.8903H258.813H247.563V50.7799V22.6695H337.563H427.563V50.7799ZM382.563 73.2682V78.8903H337.563H292.563V73.2682V67.6462H337.563H382.563V73.2682ZM13.4229 103.363C8.25066 105.66 3.55941 110.61 1.56394 115.877C0.558476 118.527 0.0634766 149.065 0.0634766 208.354V296.874L3.51582 300.323L6.96676 303.774H78.8135H150.66L154.111 300.323L157.563 296.874V249.724V202.576H200.606H243.647L272.325 226.563C288.096 239.755 300.981 250.982 300.956 251.511C300.932 252.039 299.509 254.053 297.792 255.986C294.881 259.265 293.783 259.501 281.313 259.518C269.27 259.534 267.029 259.972 258.56 263.965C246.834 269.496 237.791 277.717 232.66 287.513C229.309 293.908 227.827 295.328 223.015 296.746C191.771 305.959 167.503 340.144 169.054 372.762L169.517 382.49L155.962 382.486C145.055 382.483 141.858 382.964 139.601 384.943C138.059 386.295 130.936 395.308 123.773 404.971C116.609 414.634 110.259 423.09 109.661 423.762C109.062 424.435 105.122 423.011 100.904 420.599C96.6869 418.189 91.7313 416.228 89.8919 416.245C88.0525 416.262 67.5705 427.195 44.3758 440.542C10.2124 460.203 1.94926 465.534 0.862228 468.623C-1.08824 474.165 1.31363 479.765 6.71504 482.275L11.253 484.383L11.2825 531.18L11.3135 577.978L14.7658 581.427L18.2168 584.878H90.0635H161.91L165.361 581.427L168.813 577.978L168.844 531.18L168.874 484.383L173.412 482.275C178.829 479.758 181.212 474.169 179.256 468.571C178.19 465.518 172.886 461.825 154.024 450.999C140.406 443.184 130.213 436.465 130.308 435.366C130.399 434.304 135.326 427.032 141.257 419.204L152.041 404.971H164.297H176.552L179.997 411.461C184.358 419.679 197.425 433.006 206.103 438.089C218.174 445.159 230.331 448.742 245.103 449.58L258.813 450.357V539.242V628.129L262.743 635.645C265.603 641.117 268.539 644.317 273.528 647.402L280.385 651.64L335.342 652.044C396.227 652.49 397.368 652.354 406.439 643.535C416.658 633.599 416.249 637.959 416.283 538.847L416.313 449.948H425.195C461.343 449.948 492.551 427.527 502.867 394.144C515.997 351.658 489.648 305.772 445.845 294.846C440.22 293.442 437.995 292.192 437.687 290.264C437.454 288.803 435.644 282.82 433.662 276.966L430.062 266.324L443.737 234.449L457.411 202.576H476.237H495.063V227.218C495.063 255.221 495.963 258.932 504.291 265.288C509.431 269.211 510.189 269.352 528.227 269.797L546.854 270.255L543.46 280.233C539.193 292.768 539.203 296.014 543.516 300.323L546.967 303.774H585.063H623.16L626.611 300.323C630.924 296.014 630.934 292.768 626.667 280.233L623.273 270.255L642.039 269.797C662.411 269.299 664.902 268.442 671.461 259.661C674.269 255.902 674.36 254.118 674.36 202.715V149.65L670.308 144.34C663.023 134.794 664.993 134.995 583.015 135.426C511.098 135.804 509.237 135.883 505.447 138.712C497.027 144.998 495.805 148.126 495.291 164.726L494.815 180.088H470.485C449.342 180.088 445.781 180.41 443.297 182.548C441.723 183.901 434.935 197.973 428.213 213.82C421.491 229.668 415.55 243.45 415.01 244.447C414.287 245.783 412.574 245.085 408.492 241.787C401.489 236.132 384.743 228.256 377.134 227.041L371.313 226.11V212.845C371.313 205.55 370.726 198.483 370.008 197.142C369.29 195.802 354.102 184.995 336.258 173.128L303.813 151.55V137.709V123.867H292.563H281.313V142.232C281.313 152.332 281.901 161.692 282.618 163.033C283.337 164.374 298.525 175.181 316.368 187.048L348.813 208.626V217.215V225.805L341.626 227.512C337.675 228.449 330.979 230.8 326.748 232.737L319.057 236.255L285.362 208.172L251.666 180.088H204.688H157.711L157.285 147.998L156.86 115.91L152.808 110.603C145.713 101.314 146.191 101.373 78.5069 101.433C30.9278 101.477 16.7205 101.897 13.4229 103.363ZM135.063 180.088V236.309H78.8135H22.5635V180.088V123.867H78.8135H135.063V180.088ZM64.758 137.37C37.7496 147.179 26.2971 176.315 39.6269 201.31C44.6599 210.749 49.1472 215.049 59.6786 220.518C65.7663 223.679 68.6829 224.256 78.8135 224.3C89.9285 224.349 91.4079 224.001 99.9072 219.327C132.349 201.491 131.127 155.248 97.7979 139.44C88.6179 135.086 73.6329 134.147 64.758 137.37ZM87.7136 159.517C102.273 165.597 105.66 184.177 94.2822 195.549C84.9799 204.846 72.3841 204.914 63.1788 195.714C45.7891 178.332 64.9774 150.022 87.7136 159.517ZM652.563 185.71V213.82H585.063H517.563V185.71V157.6H585.063H652.563V185.71ZM652.563 241.931V247.553H585.063H517.563V241.931V236.309H585.063H652.563V241.931ZM348.813 272.149C348.813 292.257 348.521 295.341 346.613 295.341C342.782 295.341 329.883 309.597 328.023 315.884C324.128 329.062 326.875 339.568 336.813 349.501C344.096 356.78 351.218 359.995 360.063 359.995C368.909 359.995 376.031 356.78 383.314 349.501C397.651 335.172 397.551 317.296 383.054 302.72C379.018 298.662 374.725 295.341 373.514 295.341C371.606 295.341 371.313 292.257 371.313 272.149C371.313 253.486 371.689 248.958 373.234 248.958C377.843 248.958 395.289 259.259 400.798 265.236C408.976 274.1 414.762 287.038 415.875 298.936C417.083 311.867 419.49 314.255 432.542 315.461C452.606 317.314 469.675 329.543 478.66 348.497C482.684 356.988 483.11 359.164 483.11 371.239C483.11 383.314 482.684 385.489 478.66 393.98C472.53 406.912 464.473 415.196 452.059 421.327C443.254 425.677 440.009 426.5 429.207 427.115L416.617 427.832L416.114 415.939C415.457 400.423 410.928 392.322 399.607 386.41L392.087 382.483H338.198C303.808 382.483 282.877 383.02 280.35 383.967C266.127 389.298 258.813 400.649 258.813 417.389V427.849L246.071 427.124C235.101 426.498 231.903 425.693 223.068 421.327C210.654 415.196 202.597 406.912 196.467 393.98C192.443 385.489 192.017 383.314 192.017 371.239C192.017 359.164 192.443 356.988 196.467 348.497C204.345 331.877 218.553 320.244 235.653 316.414C244.21 314.498 247.101 311.992 249.286 304.599C250.351 300.998 253.626 296.213 258.063 291.779C268.486 281.361 278.725 278.997 293.396 283.62C300.305 285.796 301.046 285.796 304.38 283.613C306.346 282.325 310.08 277.954 312.676 273.899C315.273 269.844 319.833 264.391 322.812 261.78C328.108 257.137 343.567 248.961 347.056 248.96C348.392 248.958 348.813 254.533 348.813 272.149ZM135.063 270.041V281.285H78.8135H22.5635V270.041V258.797H78.8135H135.063V270.041ZM601.375 276.015L603.197 281.285H585.034C571.112 281.285 567.014 280.875 567.488 279.528C567.827 278.563 568.75 276.01 569.537 273.857L570.969 269.943L585.26 270.343L599.552 270.744L601.375 276.015ZM367.861 318.468C370.038 320.643 371.313 323.524 371.313 326.262C371.313 329 370.038 331.881 367.861 334.056C365.686 336.231 362.803 337.506 360.063 337.506C357.324 337.506 354.441 336.231 352.266 334.056C345.289 327.084 350.232 315.018 360.063 315.018C362.803 315.018 365.686 316.293 367.861 318.468ZM236.313 348.75V359.995H247.563H258.813V348.75V337.506H247.563H236.313V348.75ZM281.313 348.75V359.995H292.563H303.813V348.75V337.506H292.563H281.313V348.75ZM416.313 348.75V359.995H427.563H438.813V348.75V337.506H427.563H416.313V348.75ZM551.2 385.059C541.987 387.463 527.877 394.958 523.52 399.762C521.376 402.128 521.73 402.78 529.196 410.242L537.157 418.199L540.386 415.168C545.323 410.531 556.436 406.156 565.317 405.351C575.356 404.441 586.598 407.549 594.836 413.514L600.912 417.913L608.776 410.054L616.639 402.194L611.75 398.056C600.971 388.933 582.663 382.414 568.245 382.564C563.96 382.608 556.289 383.731 551.2 385.059ZM391.001 407.782C393.189 409.969 393.813 412.467 393.813 419.026V427.46H337.563H281.313V419.026C281.313 404.238 278.379 404.971 337.563 404.971C386.314 404.971 388.293 405.075 391.001 407.782ZM554.65 419.508C550.683 421.403 546.964 423.722 546.385 424.661C545.724 425.728 548.197 429.233 552.991 434.025C560.305 441.335 560.83 441.603 564.52 439.922C567.546 438.545 569.35 438.525 572.818 439.834C577.107 441.451 577.489 441.269 584.673 434.179C588.755 430.15 592.095 426.383 592.095 425.809C592.095 425.236 589.222 423.084 585.71 421.028C576.324 415.53 564.217 414.938 554.65 419.508ZM108.67 451.002L125.58 460.489L107.822 460.883C98.0552 461.099 82.1814 461.099 72.5472 460.883L55.0324 460.489L71.4925 451.043C80.5474 445.847 88.8105 441.578 89.8582 441.556C90.9044 441.533 99.37 445.785 108.67 451.002ZM393.813 517.413V584.878H337.563H281.313V517.413V449.948H337.563H393.813V517.413ZM511.833 462.572C510.614 463.285 503.812 472.618 496.716 483.311L483.813 502.752V534.743V566.734L487.266 570.183C490.227 573.145 492.023 573.634 499.922 573.634C507.336 573.634 509.126 574.061 509.126 575.833C509.126 579.662 523.39 592.555 529.68 594.413C542.977 598.34 553.343 595.577 563.618 585.368C567.678 581.335 571.001 577.044 571.001 575.833C571.001 574.082 572.719 573.634 579.438 573.634C586.158 573.634 587.876 574.082 587.876 575.833C587.876 577.044 591.199 581.335 595.259 585.368C605.534 595.577 615.9 598.34 629.197 594.413C635.487 592.555 649.751 579.662 649.751 575.833C649.751 574.061 651.541 573.634 658.955 573.634C666.854 573.634 668.65 573.145 671.611 570.183C675.034 566.764 675.063 566.502 675.063 540.12C675.063 516.868 674.753 513.125 672.603 510.474C670.825 508.283 665.456 506.267 653.267 503.216C643.985 500.891 634.014 498.365 631.108 497.602C626.418 496.372 624.569 494.345 614.682 479.595C608.555 470.453 602.497 462.572 601.218 462.083C597.548 460.675 514.298 461.132 511.833 462.572ZM321.061 474.604C308.367 478.019 291.157 488.271 291.157 492.413C291.157 493.214 294.351 496.963 298.256 500.743L305.353 507.618L311.264 503.554C314.514 501.32 320.201 498.464 323.902 497.207C336.915 492.792 351.606 495.126 363.863 503.554L369.774 507.618L376.871 500.743C380.776 496.963 383.97 493.214 383.97 492.413C383.97 490.239 376.034 483.983 368.324 480.077C353.654 472.647 335.946 470.596 321.061 474.604ZM146.313 523.035V562.39H135.063H123.813V537.73C123.813 504.132 125.992 506.169 90.0635 506.169C54.1352 506.169 56.3135 504.132 56.3135 537.73V562.39H45.0635H33.8135V523.035V483.68H90.0635H146.313V523.035ZM540.063 489.302V494.925H528.091H516.118L519.84 489.302C523.48 483.805 523.745 483.68 531.813 483.68H540.063V489.302ZM594.037 489.302L597.759 494.925H580.161H562.563V489.302V483.68H576.439H590.314L594.037 489.302ZM327.017 507.865C324.696 508.675 320.688 510.911 318.112 512.832L313.425 516.328L321.252 523.784C328.711 530.89 329.279 531.166 333.322 529.641C336.502 528.441 338.636 528.446 341.85 529.658C345.946 531.204 346.48 530.948 353.848 523.929L361.56 516.582L358.31 513.531C351.512 507.147 336.731 504.471 327.017 507.865ZM635.022 521.804L652.563 526.195V538.67C652.563 546.05 651.99 551.145 651.157 551.145C650.384 551.145 649.751 550.156 649.751 548.946C649.751 545.117 635.487 532.224 629.197 530.366C615.9 526.439 605.534 529.202 595.259 539.411C591.199 543.445 587.876 547.736 587.876 548.946C587.876 550.697 586.158 551.145 579.438 551.145C572.719 551.145 571.001 550.697 571.001 548.946C571.001 545.117 556.737 532.224 550.447 530.366C537.15 526.439 526.784 529.202 516.509 539.411C512.449 543.445 509.126 547.736 509.126 548.946C509.126 550.156 508.493 551.145 507.72 551.145C506.861 551.145 506.313 544.586 506.313 534.279V517.413H561.897H617.48L635.022 521.804ZM101.313 545.523V562.39H90.0635H78.8135V545.523V528.657H90.0635H101.313V545.523ZM329.371 543.154C322.387 550.585 327.537 562.39 337.76 562.39C344.252 562.39 348.813 557.667 348.813 550.949C348.813 540.969 336.184 535.905 329.371 543.154ZM547.861 554.596C550.038 556.77 551.313 559.652 551.313 562.39C551.313 565.128 550.038 568.009 547.861 570.183C545.686 572.359 542.803 573.634 540.063 573.634C537.324 573.634 534.441 572.359 532.266 570.183C530.089 568.009 528.813 565.128 528.813 562.39C528.813 559.652 530.089 556.77 532.266 554.596C534.441 552.42 537.324 551.145 540.063 551.145C542.803 551.145 545.686 552.42 547.861 554.596ZM626.611 554.596C628.788 556.77 630.063 559.652 630.063 562.39C630.063 565.128 628.788 568.009 626.611 570.183C624.436 572.359 621.553 573.634 618.813 573.634C616.074 573.634 613.191 572.359 611.016 570.183C608.839 568.009 607.563 565.128 607.563 562.39C607.563 559.652 608.839 556.77 611.016 554.596C613.191 552.42 616.074 551.145 618.813 551.145C621.553 551.145 624.436 552.42 626.611 554.596ZM393.813 615.799C393.813 630.588 396.748 629.855 337.563 629.855C278.379 629.855 281.313 630.588 281.313 615.799V607.366H337.563H393.813V615.799Z" fill="#1094F1"/>
</svg>
