<svg width="697" height="698" viewBox="0 0 697 698" fill="none" xmlns="http://www.w3.org/2000/svg">
<path fill-rule="evenodd" clip-rule="evenodd" d="M51.0504 2.40574C16.4019 10.1699 -2.35219 38.5944 0.313514 79.3066C4.55224 144.02 50.3608 233.446 133.801 339.898L140.686 348.681L133.848 357.464C105.52 393.844 86.4069 420.782 66.7146 452.08L53.8594 472.51L43.3258 472.924C30.6798 473.42 21.4397 477.313 13.0957 485.662C4.19972 494.563 0.684298 503.264 0.591602 516.612C0.501715 529.463 3.81489 538.662 11.3359 546.439L15.7179 550.969L10.6252 567.518C2.93287 592.512 0.828959 604.46 0.657612 624.115C0.532613 638.598 1.04946 643.408 3.5986 651.518C30.2655 736.318 165.944 700.202 341.351 561.614C345.582 558.272 348.606 556.805 349.778 557.525C350.785 558.142 358.562 564.128 367.059 570.827C388.84 587.998 420.514 610.446 443.518 625.013C461.892 636.649 463.085 637.671 462.154 640.969C461.607 642.907 461.217 648.918 461.287 654.329C461.501 670.727 469.498 683.518 484.613 691.64C492.521 695.89 494.656 696.4 504.698 696.441C518.212 696.497 528.76 692.275 537.249 683.418L542.595 677.836L553.652 681.916C578.384 691.04 607.078 697.163 625.192 697.181C637.192 697.194 653.859 693.332 663.167 688.383C686.063 676.212 697.743 651.39 695.868 618.897C692.143 554.402 646.159 464.324 562.425 357.502L555.57 348.757L559.598 343.449C561.813 340.531 569.222 330.909 576.06 322.069C592.608 300.678 613.723 270.33 629.482 245.282L642.338 224.852L652.871 224.452C670.214 223.793 682.716 216.026 690.864 200.848C695.117 192.925 695.621 190.81 695.65 180.751C695.69 167.878 692.348 158.665 684.816 150.877L680.389 146.3L684.112 134.717C702.159 78.5675 699.605 40.9089 676.207 18.1729C665.086 7.36636 644.378 0.162918 624.489 0.181187C563.823 0.237398 467.088 47.6149 367.169 126.205C357.066 134.15 348.128 140.411 347.306 140.117C346.485 139.825 336.804 132.557 325.792 123.966C302.464 105.768 270.637 83.3862 248.568 69.6608C234.059 60.6362 233.095 59.7607 234.033 56.433C234.585 54.474 234.98 48.444 234.91 43.0337C234.696 26.6439 226.712 13.8644 211.584 5.70252C203.48 1.3307 201.729 0.9302 190.796 0.958305C180.54 0.985005 177.808 1.53587 171.396 4.86497C167.292 6.99677 161.646 11.1297 158.85 14.0485L153.764 19.3562L135.732 13.1617C102.495 1.74385 71.5489 -2.18811 51.0504 2.40574ZM106.528 28.0576C115.411 30.337 127.735 34.054 133.915 36.3179L145.151 40.4339L146.249 49.2464C148.236 65.1921 156.182 77.151 169.516 84.2616C184.396 92.1986 201.854 91.4707 215.278 82.3575L220.579 78.7572L231.32 85.3746C250.455 97.1635 280.631 118.019 302.325 134.447C331.278 156.373 330.799 155.963 328.975 157.202C328.113 157.787 319.183 165.432 309.133 174.191C294.706 186.764 288.607 191.095 280.158 194.77C242.751 211.041 210.536 243.274 194.274 280.702C190.601 289.156 186.273 295.258 173.707 309.693C164.953 319.749 157.312 328.684 156.728 329.547C155.479 331.388 155.61 331.541 134.088 303.01C79.8157 231.064 41.271 160.689 27.4874 108.379C22.1785 88.233 21.2529 61.9768 25.4299 50.0151C30.059 36.7549 41.4031 27.2538 56.4647 24.0217C66.8565 21.7901 89.0965 23.5832 106.528 28.0576ZM199.685 24.574C214.115 30.6068 217.633 49.5359 206.411 60.7654C197.301 69.8801 184.292 69.8801 175.181 60.7654C157.814 43.3864 176.978 15.0813 199.685 24.574ZM638.161 24.1875C653.242 26.977 662.399 33.1953 667.989 44.4389C676.544 61.648 675.427 87.6905 664.704 121.026L659.957 135.782L649.743 135.924C637.457 136.094 628.319 139.905 619.832 148.396C610.936 157.297 607.421 165.998 607.328 179.345C607.238 192.188 610.551 201.396 618.054 209.153L622.419 213.666L614.918 226.016C594.481 259.67 563.274 303.225 532.788 340.64L517.339 359.6L516.381 342.547C513.789 296.364 497.672 260.355 465.192 228.179L450.652 213.775H517.351H584.052V157.564V101.353H516.636H449.221V157.616V213.88L441.145 208.397C415.939 191.283 386.918 181.958 354.146 180.439L337.02 179.646L354.848 164.828C467.492 71.1982 582.814 13.9515 638.161 24.1875ZM89.6737 168.806V225.017H157.089H224.504V168.806V112.595H157.089H89.6737V168.806ZM561.58 157.564V191.29H516.636H471.693V157.564V123.837H516.636H561.58V157.564ZM202.032 168.806V202.532H157.089H112.145V168.806V135.079H157.089H202.032V168.806ZM494.165 157.564V168.806H516.636H539.108V157.564V146.321H516.636H494.165V157.564ZM134.617 168.806V180.048H157.089H179.561V168.806V157.564H157.089H134.617V168.806ZM660.356 159.48C674.785 165.513 678.304 184.442 667.082 195.672C657.971 204.787 644.963 204.787 635.852 195.672C618.484 178.293 637.648 149.988 660.356 159.48ZM368.654 204.053C400.453 208.478 430.931 224.524 454.137 249.057C474.986 271.099 488.5 299.134 492.507 328.656L493.7 337.439H423.349H352.999L303.148 287.504L253.296 237.567L256.807 234.793C276.138 219.519 303.81 207.295 326.329 204.078C338.613 202.324 356.156 202.313 368.654 204.053ZM284.897 301.604L331.931 348.681L284.897 395.758C259.028 421.65 237.519 442.835 237.101 442.835C235.355 442.835 224.865 427.194 218.723 415.432C196.471 372.814 196.471 324.548 218.723 281.931C224.865 270.168 235.355 254.528 237.101 254.528C237.519 254.528 259.028 275.712 284.897 301.604ZM336.863 281.228V292.47H348.098H359.334V281.228V269.986H348.098H336.863V281.228ZM381.806 281.228V292.47H393.042H404.278V281.228V269.986H393.042H381.806V281.228ZM426.749 281.228V292.47H437.985H449.221V281.228V269.986H437.985H426.749V281.228ZM182.982 382.18C190.128 415.529 205.355 443.599 229.295 467.552C260.262 498.536 297.546 514.861 342.051 516.924L359.177 517.716L341.702 532.214C321.545 548.939 282.136 578.625 261.723 592.464L247.678 601.985L247.31 548.407L246.942 494.83H179.544H112.145V551.041V607.252L175.698 607.266L239.251 607.279L230.642 612.744C164.887 654.486 94.6863 679.511 60.0265 673.564C49.2766 671.72 38.7064 666.972 33.927 661.841C20.5788 647.513 19.0676 616.548 29.9706 580.807C36.3385 559.935 34.9158 561.599 46.5126 561.453C63.247 561.24 75.9421 553.365 84.1274 538.114C88.3802 530.191 88.8844 528.076 88.9139 518.017C88.9532 505.185 85.6134 495.933 78.1626 488.229L73.8171 483.735L79.9055 473.474C98.1568 442.714 132.727 394.379 163.409 356.722L178.858 337.762L179.816 354.815C180.341 364.194 181.767 376.508 182.982 382.18ZM224.504 348.681V359.923H235.74H246.976V348.681V337.439H235.74H224.504V348.681ZM269.447 348.681V359.923H280.683H291.919V348.681V337.439H280.683H269.447V348.681ZM492.507 368.706C488.499 398.238 474.968 426.302 454.137 448.287C441.7 461.414 431.261 469.456 416.369 477.382C364.67 504.9 303.156 499.189 256.807 462.569L253.296 459.795L303.148 409.858L352.999 359.923H423.349H493.7L492.507 368.706ZM553.986 383.462C612.936 460.028 653.866 533.341 668.548 588.671C672.247 602.615 672.943 607.842 673.077 622.71C673.207 636.957 672.718 641.676 670.49 647.683C665.184 661.996 655.413 669.732 638.124 673.31C621.947 676.657 591.432 671.722 562.282 661.044L551.046 656.928L549.948 648.116C547.961 632.17 540.015 620.211 526.681 613.101C511.801 605.164 494.343 605.892 480.919 615.005L475.618 618.605L464.877 611.993C446.381 600.608 415.651 579.352 393.744 562.79C364.987 541.051 365.396 541.401 367.222 540.16C368.084 539.575 377.014 531.931 387.064 523.171C401.491 510.598 407.59 506.267 416.039 502.593C453.446 486.321 485.66 454.088 501.923 416.66C505.597 408.203 509.919 402.111 522.49 387.676C531.244 377.624 538.617 368.848 538.874 368.175C539.852 365.615 541.628 367.409 553.986 383.462ZM336.863 416.134V427.377H348.098H359.334V416.134V404.892H348.098H336.863V416.134ZM381.806 416.134V427.377H393.042H404.278V416.134V404.892H393.042H381.806V416.134ZM426.749 416.134V427.377H437.985H449.221V416.134V404.892H437.985H426.749V416.134ZM471.693 528.556V584.767H539.108H606.523V528.556V472.345H539.108H471.693V528.556ZM53.6192 496.747C68.0489 502.78 71.5671 521.709 60.3453 532.938C44.5659 548.726 18.708 534.585 22.8597 512.437C25.3414 499.207 40.7289 491.357 53.6192 496.747ZM584.052 528.556V562.283H539.108H494.165V528.556V494.83H539.108H584.052V528.556ZM224.504 551.041V584.767H179.561H134.617V551.041V517.314H179.561H224.504V551.041ZM516.636 528.556V539.799H539.108H561.58V528.556V517.314H539.108H516.636V528.556ZM157.089 551.041V562.283H179.561H202.032V551.041V539.799H179.561H157.089V551.041ZM514.289 631.653C528.719 637.686 532.237 656.615 521.016 667.845C505.236 683.633 479.378 669.492 483.53 647.343C486.012 634.114 501.399 626.264 514.289 631.653Z" fill="#4CAF50"/>
</svg>
