<svg xmlns="http://www.w3.org/2000/svg" width="53.847" height="53.82" fill="#4842a8" xmlns:v="https://vecta.io/nano"><path d="M.012 0h53.82v53.82H.012z" opacity="0"/><path d="M41.145 14.915C39.421 8.477 33.587 3.999 26.922 3.999S14.423 8.477 12.699 14.915C5.011 16.018-.517 22.877.039 30.624s7.006 13.747 14.773 13.741h4.036c.011-.919.18-1.829.5-2.691h-4.536c-6.645-.06-12-5.464-12-12.11a12.11 12.11 0 0 1 12-12.109c.046 0 .089.013.135.013.644-6.129 5.812-10.782 11.975-10.782s11.331 4.653 11.975 10.782c.046 0 .089-.013.135-.013 6.688 0 12.109 5.422 12.109 12.11a12.11 12.11 0 0 1-12.109 12.109h-4.533c.32.862.489 1.772.5 2.691h4.036c7.767.006 14.217-5.994 14.773-13.741s-4.972-14.606-12.66-15.709zM26.922 38.983c-2.972 0-5.382 2.41-5.382 5.382s2.41 5.382 5.382 5.382 5.382-2.41 5.382-5.382a5.38 5.38 0 0 0-5.382-5.382zm0 8.073a2.69 2.69 0 1 1 2.691-2.691 2.69 2.69 0 0 1-2.691 2.691zm-7.613-10.302l1.9 1.9a8.27 8.27 0 0 1 11.416 0l1.9-1.9a11.02 11.02 0 0 0-15.216 0zm7.613-8.535a16.03 16.03 0 0 0-11.416 4.73l1.9 1.9a13.45 13.45 0 0 1 19.026 0l1.9-1.9c-3.019-3.038-7.127-4.741-11.41-4.73zm-15.223.921l1.9 1.9a18.87 18.87 0 0 1 26.642 0l1.9-1.9a21.56 21.56 0 0 0-30.442 0z"/></svg>