<svg width="23" height="21" viewBox="0 0 23 21" fill="none" xmlns="http://www.w3.org/2000/svg">
<path fill-rule="evenodd" clip-rule="evenodd" d="M1.12524 0.0641184C0.667225 0.177332 0.354542 0.428738 0.148532 0.849467L0 1.15277V10.4977V19.8427L0.119186 20.0983C0.330057 20.5504 0.696076 20.8418 1.18371 20.9457C1.52327 21.0181 21.4767 21.0181 21.8163 20.9457C22.3039 20.8418 22.6699 20.5504 22.8808 20.0983L23 19.8427V10.4987V1.15467L22.8808 0.899106C22.6699 0.446929 22.3039 0.155567 21.8163 0.0516295C21.4574 -0.0248421 1.43631 -0.0127604 1.12524 0.0641184ZM21.7299 0.96784C21.8096 1.00196 21.9254 1.08504 21.9873 1.15241C22.0995 1.27463 22.0998 1.27721 22.1134 2.31206L22.127 3.34927H11.5H0.872965L0.886603 2.31206C0.900151 1.27717 0.900466 1.27463 1.01272 1.15246C1.25073 0.89345 0.564512 0.909513 11.4902 0.907568C19.9442 0.906075 21.6086 0.915894 21.7299 0.96784ZM2.1552 1.79192C1.88478 1.92604 1.82942 2.27682 2.04448 2.49302C2.21574 2.66519 2.43597 2.67198 2.62632 2.51094C2.8741 2.3013 2.85182 1.97885 2.57794 1.81097C2.4019 1.7031 2.33997 1.70029 2.1552 1.79192ZM3.85869 1.80894C3.6728 1.92532 3.60362 2.07573 3.64183 2.28048C3.67919 2.48089 3.85432 2.62528 4.05993 2.62528C4.26387 2.62528 4.37207 2.56216 4.45948 2.3922C4.66342 1.99577 4.23092 1.5759 3.85869 1.80894ZM5.69468 1.77192C5.41697 1.88052 5.30895 2.15333 5.4492 2.39198C5.60543 2.65786 5.93576 2.70564 6.1473 2.49302C6.32432 2.31505 6.3273 2.09016 6.15509 1.90636C6.01335 1.75509 5.8555 1.70898 5.69468 1.77192ZM22.1221 11.9354C22.122 19.469 22.1203 19.6192 22.0343 19.7611C21.986 19.8406 21.8908 19.9424 21.8226 19.9873C21.7043 20.0653 21.245 20.0695 11.592 20.0822C4.80335 20.0912 1.43298 20.0804 1.3259 20.0493C1.23826 20.0239 1.10661 19.9402 1.03333 19.8634L0.900196 19.7236L0.888583 11.9889L0.876926 4.25426H11.4996H22.1223L22.1221 11.9354ZM16.4748 6.0213C16.0877 6.08207 15.5687 6.26582 15.2337 6.46085C15.0716 6.55515 14.7633 6.80986 14.536 7.0371C14.0494 7.52385 13.764 8.02824 13.6107 8.67278C13.4864 9.19518 13.5082 9.99144 13.6601 10.4761C14.0112 11.5963 14.8651 12.4547 15.9785 12.8065C16.6376 13.0148 17.5996 12.973 18.274 12.7068C19.0442 12.4028 19.7883 11.6787 20.1413 10.8895C20.4461 10.2083 20.5195 9.30364 20.3284 8.58522C20.0094 7.38548 19.0386 6.41026 17.8625 6.10786C17.4552 6.00311 16.8366 5.96455 16.4748 6.0213ZM16.5411 8.29037V9.65677L17.4976 10.6223C18.2762 11.4083 18.4415 11.5965 18.3865 11.6348C18.3494 11.6606 18.2177 11.7303 18.0939 11.7895C17.3501 12.1453 16.4436 12.1144 15.724 11.7087C14.269 10.8884 13.9799 8.87893 15.1458 7.6896C15.3067 7.52543 15.5396 7.33186 15.6634 7.25937C15.8572 7.14588 16.4058 6.92868 16.5073 6.92515C16.5259 6.92452 16.5411 7.53887 16.5411 8.29037ZM18.1614 7.18756C18.5161 7.35733 19.0922 7.94725 19.2739 8.32671C19.6415 9.09446 19.6257 9.94171 19.2295 10.694L19.0909 10.9571L18.2661 10.1288L17.4413 9.30048V8.11467V6.92886L17.6776 6.99896C17.8075 7.03751 18.0253 7.1224 18.1614 7.18756ZM7.5729 7.56109C7.35658 7.68774 7.3591 7.64448 7.3591 11.243V14.6164H6.79648H6.23386L6.23377 12.7046C6.23372 10.9751 6.2262 10.7777 6.155 10.6344C6.03406 10.3909 5.91005 10.3684 4.68102 10.3657C3.46305 10.3632 3.3012 10.3886 3.17103 10.6033C3.08799 10.7402 3.08349 10.8458 3.08335 12.6757L3.08317 14.6038L2.80231 14.6294C2.55876 14.6516 2.50425 14.6743 2.39213 14.8005C2.28101 14.9255 2.26633 14.9721 2.28767 15.1318C2.30414 15.2554 2.35185 15.3517 2.43026 15.4195L2.54809 15.5214H6.909H11.2699L11.3877 15.4195C11.4662 15.3517 11.5139 15.2554 11.5303 15.1318C11.5518 14.9711 11.5371 14.9257 11.4219 14.7961C11.2943 14.6524 11.2723 14.6452 10.8992 14.6256L10.5098 14.605V11.2374C10.5098 7.6253 10.5131 7.68037 10.2872 7.55883C10.171 7.49629 7.68002 7.49837 7.5729 7.56109ZM9.60959 11.5168V14.6164H8.93444H8.2593V11.5168V8.41721H8.93444H9.60959V11.5168ZM5.32295 12.9535L5.33478 14.6164H4.65905H3.98337V12.9723C3.98337 12.0681 3.99741 11.3142 4.01456 11.2969C4.03171 11.2796 4.33048 11.2712 4.67845 11.2781L5.31115 11.2905L5.32295 12.9535ZM13.7677 14.688C13.4973 14.8221 13.4419 15.1729 13.657 15.3891L13.7886 15.5214H16.9668C20.5121 15.5214 20.3176 15.5391 20.4166 15.207C20.4826 14.9852 20.3798 14.7719 20.1629 14.6807C19.9247 14.5806 13.9705 14.5875 13.7677 14.688ZM2.43026 17.2975C2.35185 17.3653 2.30414 17.4615 2.28767 17.5852C2.26615 17.7464 2.28083 17.7912 2.39835 17.9234C2.5115 18.0508 2.56502 18.0759 2.72309 18.0759C3.04793 18.0759 3.26659 17.7352 3.12291 17.4528C2.98802 17.1876 2.64595 17.1109 2.43026 17.2975ZM4.51156 17.3104C4.35911 17.4637 4.32801 17.6138 4.40857 17.8077C4.53897 18.1215 3.96865 18.1006 12.4002 18.1006C20.7638 18.1006 20.2405 18.1186 20.3914 17.8253C20.4536 17.7043 20.458 17.6491 20.4166 17.51C20.3144 17.1673 21.0365 17.1956 12.3854 17.1956H4.62579L4.51156 17.3104Z" fill="#DC2D3C"/>
</svg>
