<svg xmlns="http://www.w3.org/2000/svg" width="53.82" height="53.82" xmlns:v="https://vecta.io/nano"><path d="M0 0h53.82v53.82H0z" fill="rgba(255,255,255,0)"/><g fill="#4842a8"><path d="M32.079 4.485h-5.382c-.489-.013-.948.24-1.196.662s-.249.945 0 1.367.707.675 1.196.662h5.382c.489.013.948-.24 1.196-.662s.249-.945 0-1.367-.707-.675-1.196-.662zM37.91 0H16.382A5.39 5.39 0 0 0 11 5.382v43.056a5.39 5.39 0 0 0 5.382 5.382H37.91a5.39 5.39 0 0 0 5.382-5.382V5.382A5.39 5.39 0 0 0 37.91 0zm2.69 48.438a2.69 2.69 0 0 1-2.691 2.691H16.382a2.69 2.69 0 0 1-2.691-2.691V5.382a2.69 2.69 0 0 1 2.691-2.691H37.91a2.69 2.69 0 0 1 2.69 2.691z"/><circle cx="27.146" cy="46.644" r="2.691"/><circle cx="22.212" cy="5.83" r="1.345"/></g></svg>