<svg width="496" height="496" viewBox="0 0 496 496" fill="none" xmlns="http://www.w3.org/2000/svg">
<path fill-rule="evenodd" clip-rule="evenodd" d="M49.9145 1.36085C32.1715 5.20985 15.2115 18.4349 7.01147 34.8148C1.50447 45.8159 -0.545528 55.5129 0.121472 67.4069C1.02247 83.4779 7.19947 97.1189 18.8535 108.772C26.3545 116.273 33.8645 121.028 43.1515 124.156L49.6375 126.34L33.1035 169.328C24.0105 192.971 16.3405 214.001 16.0595 216.061C15.2485 222.007 17.6565 228.715 22.2515 233.302C27.0415 238.085 32.0515 239.815 41.1115 239.815H47.6805L48.0155 270.565C48.3335 299.712 48.4685 301.608 50.6035 306.934C54.0115 315.434 60.0195 323.121 66.7895 327.642C80.8855 337.055 90.1985 337.551 121.037 330.532C132.438 327.938 142.225 325.815 142.787 325.815C143.445 325.815 143.81 332.042 143.81 343.264V360.712L136.06 365.895C100.599 389.608 75.8805 425.838 66.8665 467.315C65.7905 472.265 64.6415 479.465 64.3145 483.315C63.9865 487.165 63.5255 491.552 63.2895 493.065L62.8605 495.815H183.395H303.93L303.582 454.065C303.247 413.848 303.153 412.098 301.018 406.395C298.32 399.191 294.514 392.491 290.464 387.815L287.432 384.315L386.548 383.815C484.703 383.32 485.691 383.295 488.425 381.253C489.944 380.119 492.114 377.949 493.248 376.43C495.279 373.71 495.31 372.727 495.31 311.815C495.31 250.903 495.279 249.92 493.248 247.2C492.114 245.681 489.944 243.511 488.425 242.377C485.702 240.343 484.642 240.311 410.66 240.046C369.408 239.899 335.825 239.449 336.032 239.046C346.303 219.079 350.504 205.695 351.486 189.815C352.009 181.348 350.707 165.316 349.17 161.312C348.685 160.047 357.626 159.82 417.138 159.585C484.576 159.319 485.708 159.282 488.425 157.253C489.944 156.119 492.114 153.949 493.248 152.43C495.279 149.71 495.31 148.727 495.31 87.8148C495.31 26.9029 495.279 25.9198 493.248 23.1998C492.114 21.6808 489.944 19.5108 488.425 18.3768C485.69 16.3348 484.787 16.3118 393.987 16.0168C331.497 15.8138 301.146 16.0568 298.653 16.7788C294.118 18.0938 289.125 23.6188 288.248 28.2938L287.587 31.8148L198.449 31.8108L109.31 31.8078L106 25.4068C95.8835 5.83885 73.5035 -3.75615 49.9145 1.36085ZM77.4905 19.1528C84.8905 22.9028 88.0805 25.9759 91.8755 33.0139C94.9785 38.7679 95.2735 40.0518 95.2735 47.8148C95.2735 55.5778 94.9785 56.8619 91.8755 62.6159C90.0065 66.0819 87.1375 70.0449 85.5015 71.4219C77.7495 77.9439 65.7275 81.2628 58.4945 78.8758C53.9625 77.3798 49.1065 71.9109 48.2485 67.3359C46.6545 58.8379 51.5175 50.6878 59.4505 48.5658L63.8105 47.3998V39.4939V31.5878L59.1035 32.2938C48.7815 33.8418 39.4765 40.7519 34.8375 50.3148C32.8655 54.3808 32.4065 56.9018 32.3805 63.8148C32.3505 71.6089 32.6305 72.8389 35.7455 78.6159C41.2575 88.8369 49.9895 94.5279 61.6585 95.5039C84.8845 97.4479 107.351 78.9458 111.163 54.7348L112.253 47.8148H200.031H287.81V67.7549V87.6958L280.56 85.2238C260.095 78.2478 235.482 78.2628 214.944 85.2638C201.184 89.9538 184.554 100.063 176.373 108.711L173.436 111.815H115.833C68.0005 111.815 57.2595 111.562 52.5035 110.323C35.1625 105.806 21.8345 92.5208 17.3415 75.2729C10.8815 50.4708 26.3765 24.5068 51.9225 17.3308C59.8385 15.1068 71.0895 15.9088 77.4905 19.1528ZM479.81 87.8148V143.815H405.316H330.823L323.332 158.772C319.212 166.998 314.964 174.198 313.891 174.772C310.921 176.361 308.671 176.033 306.124 173.641L303.81 171.466V101.641V31.8148H391.81H479.81V87.8148ZM351.81 49.1218C346.902 50.6688 338.531 59.3368 337.026 64.4308C336.191 67.2568 335.81 77.8368 335.81 98.1808V127.815H343.81H351.81V119.815V111.815H359.81H367.81V119.815V127.815H375.81H383.81V98.1808C383.81 78.1788 383.424 67.2568 382.621 64.5788C380.879 58.7638 373.777 51.3328 368.12 49.4049C362.835 47.6039 356.95 47.5018 351.81 49.1218ZM399.81 87.8148V127.815H413.444C430.413 127.815 433.825 126.868 440.344 120.349C449.038 111.655 450.288 100.184 443.589 90.5648C441.702 87.8558 441.702 87.7738 443.589 85.0648C449.999 75.8608 449.047 64.6318 441.109 55.8028C435.012 49.0218 430.862 47.8148 413.632 47.8148H399.81V87.8148ZM365.355 66.2699C367.72 68.6339 367.81 69.2209 367.81 82.2699V95.8148H359.81H351.81V82.2699C351.81 69.2209 351.9 68.6339 354.265 66.2699C355.812 64.7219 357.862 63.8148 359.81 63.8148C361.758 63.8148 363.808 64.7219 365.355 66.2699ZM429.355 66.2699C430.903 67.8169 431.81 69.8668 431.81 71.8148C431.81 76.9208 428.028 79.8148 421.355 79.8148H415.81V71.8148V63.8148H421.355C425.91 63.8148 427.34 64.2539 429.355 66.2699ZM271.132 99.2569C275.985 100.682 281.722 102.75 283.882 103.852L287.81 105.856V114.719V123.583L280.277 119.799C268.991 114.129 260.545 112.295 246.31 112.423C236.266 112.514 233.006 112.958 226.31 115.148C214.867 118.89 206.471 124.148 197.307 133.312C188.169 142.45 182.913 150.827 179.111 162.315C176.773 169.379 176.463 171.895 176.463 183.815C176.463 195.735 176.773 198.251 179.111 205.315C182.913 216.803 188.169 225.18 197.307 234.318C210.583 247.594 225.135 254.299 243.258 255.489C251.564 256.035 264.326 254.473 270.305 252.179C271.572 251.692 271.81 252.936 271.81 260.036V268.472L266.56 269.718C263.673 270.404 257.035 271.208 251.81 271.504C202.642 274.295 159.81 233.47 159.81 183.815C159.81 142.146 190.522 105.105 231.513 97.3348C243.06 95.1468 259.919 95.9649 271.132 99.2569ZM429.355 98.2699C430.903 99.8169 431.81 101.867 431.81 103.815C431.81 108.921 428.028 111.815 421.355 111.815H415.81V103.815V95.8148H421.355C425.91 95.8148 427.34 96.2539 429.355 98.2699ZM159.634 128.565C159.446 128.977 157.428 132.929 155.15 137.346C140.217 166.3 140.159 200.662 154.995 230.255C160.34 240.917 163.821 245.802 172.692 255.087C185.748 268.753 199.911 277.638 217.31 283.078C232.557 287.845 253.779 289.034 267.215 285.874L271.12 284.956L264.132 292.135C255.028 301.487 251.703 305.924 247.471 314.371C241.763 325.766 240.644 331.325 240.087 351.065C239.641 366.884 239.403 368.815 237.893 368.815C234.369 368.815 223.637 373.127 217.848 376.869C206.782 384.021 199.961 392.597 194.919 405.695C192.4 412.239 192.367 412.701 192.02 446.065L191.668 479.815H136.194H80.7195L81.3665 476.065C85.0325 454.798 95.1805 431.297 108.266 413.765C122.239 395.047 145.166 376.65 165.528 367.818C181.333 360.962 181.692 360.756 185.66 356.248C190.754 350.461 191.81 346.288 191.81 331.949V319.815H183.81H175.81V331.704C175.81 345.754 175.443 346.449 166.06 350.186L159.81 352.675V337.322V321.97L163.441 320.772C167.764 319.345 174.323 313.658 176.499 309.449C178.349 305.871 182.81 292.994 182.81 291.232C182.81 290.101 172.04 285.815 169.198 285.815C168.525 285.815 166.757 289.47 165.269 293.938C163.781 298.406 161.767 302.858 160.792 303.833C159.818 304.807 156.619 306.119 153.683 306.749C150.747 307.378 147.324 308.15 146.077 308.463L143.81 309.032V292.789C143.81 282.96 143.33 274.922 142.594 272.431C140.971 266.938 132.687 258.654 127.194 257.031C124.368 256.196 113.788 255.815 93.4445 255.815H63.8105V239.815V223.815H49.6395C37.8565 223.815 35.1595 223.536 33.6395 222.16C32.6335 221.25 31.8105 219.794 31.8105 218.925C31.8105 218.056 39.5505 197.201 49.0115 172.58L66.2125 127.815H113.094C138.88 127.815 159.823 128.153 159.634 128.565ZM239.81 145.248C239.81 161.089 239.734 161.704 237.699 162.35C234.532 163.355 228.21 169.434 226.806 172.826L225.567 175.815H209.058H192.548L193.087 172.565C193.929 167.487 197.611 158.404 200.595 154.047C208.554 142.423 217.729 135.221 230.259 130.76C240.308 127.182 239.81 126.427 239.81 145.248ZM264.991 130.705C272.64 133.337 276.493 135.423 282.513 140.193L287.715 144.315L287.772 158.815C287.824 171.863 288.065 173.82 290.177 178.356C292.543 183.437 297.103 188.138 300.805 189.313C303.375 190.129 303.368 192.799 300.77 201.21C298.751 207.746 298.692 207.815 295.136 207.815C282.445 207.815 271.81 218.426 271.81 231.089C271.81 234.539 271.649 234.686 265.616 236.723C255.138 240.262 255.81 241.241 255.81 222.436V206.058L258.844 204.801C265.566 202.017 271.81 191.91 271.81 183.815C271.81 175.72 265.566 165.613 258.844 162.829L255.81 161.572V145.194C255.81 126.477 255.254 127.355 264.991 130.705ZM335.74 183.123C335.838 192.61 334.075 202.909 330.745 212.312C328.142 219.663 322.224 231.815 321.247 231.815C321.021 231.815 319.266 228.698 317.347 224.889C315.429 221.08 313.42 217.692 312.883 217.36C312.29 216.994 312.667 214.981 313.843 212.238C316.212 206.712 318.81 196.918 318.81 193.514C318.81 191.66 320.066 190.1 323.612 187.553C326.818 185.25 329.392 182.234 331.357 178.482C334.831 171.846 335.632 172.694 335.74 183.123ZM64.2915 180.534C65.0855 185.832 68.4465 193.04 72.2035 197.506C73.5805 199.142 77.5435 202.011 81.0095 203.88C86.7635 206.983 88.0475 207.278 95.8105 207.278C103.573 207.278 104.857 206.983 110.611 203.88C114.077 202.011 118.04 199.142 119.417 197.506C123.174 193.04 126.535 185.832 127.329 180.534L128.037 175.815H120.131H112.225L111.059 180.175C108.937 188.108 100.787 192.971 92.2895 191.377C87.1985 190.422 81.9655 185.423 80.5615 180.175L79.3955 175.815H71.4895H63.5835L64.2915 180.534ZM253.355 178.27C258.316 183.23 254.801 191.815 247.81 191.815C245.862 191.815 243.812 190.908 242.265 189.36C240.717 187.813 239.81 185.763 239.81 183.815C239.81 181.867 240.717 179.817 242.265 178.27C243.812 176.722 245.862 175.815 247.81 175.815C249.758 175.815 251.808 176.722 253.355 178.27ZM226.345 193.926C227.35 197.093 233.429 203.415 236.821 204.819L239.81 206.058V222.436C239.81 241.237 240.478 240.26 230.031 236.732C214.187 231.382 200.243 217.438 194.893 201.594C191.364 191.145 190.38 191.815 209.243 191.815C225.084 191.815 225.699 191.891 226.345 193.926ZM297.891 224.858C298.964 225.432 303.212 232.632 307.332 240.858L314.823 255.815H397.316H479.81V311.815V367.815H383.81H287.81V298.129V228.444L289.984 226.129C292.341 223.621 294.831 223.22 297.891 224.858ZM125.355 274.27C127.779 276.693 127.81 276.953 127.81 294.613V312.501L110.69 316.283C91.9845 320.416 87.0685 320.518 80.0125 316.918C73.8825 313.791 69.9465 310.003 67.0395 304.435C64.5965 299.756 64.3345 298.132 63.9925 285.565L63.6185 271.815H93.2605H122.901L125.355 274.27ZM319.81 295.815V319.815H327.81H335.81V295.815V271.815H327.81H319.81V295.815ZM351.81 311.815V351.815H383.81H415.81V311.815V271.815H407.81H399.81V287.815V303.815H383.81H367.81V287.815V271.815H359.81H351.81V311.815ZM431.81 295.815V319.815H439.81H447.81V295.815V271.815H439.81H431.81V295.815ZM207.81 311.815V319.815H215.81H223.81V311.815V303.815H215.81H207.81V311.815ZM272.052 348.851L272.31 373.387L266.015 371.101C262.552 369.844 258.839 368.815 257.765 368.815C255.916 368.815 255.811 368.043 255.825 354.565C255.846 334.201 258.759 323.694 267.572 312.193L271.31 307.315L271.552 315.815C271.685 320.49 271.91 335.356 272.052 348.851ZM399.81 327.815V335.815H383.81H367.81V327.815V319.815H383.81H399.81V327.815ZM207.81 343.815V351.815H215.81H223.81V343.815V335.815H215.81H207.81V343.815ZM319.81 343.815V351.815H327.81H335.81V343.815V335.815H327.81H319.81V343.815ZM431.81 343.815V351.815H439.81H447.81V343.815V335.815H439.81H431.81V343.815ZM264.239 387.635C273.259 391.856 279.101 397.6 283.576 406.651L287.31 414.204L287.622 447.01L287.934 479.815H247.81H207.686L207.998 447.065L208.31 414.315L211.475 407.635C215.493 399.153 221.214 392.944 228.676 388.967C236.553 384.769 240.863 383.819 250.059 384.257C256.061 384.543 259.258 385.304 264.239 387.635ZM239.81 401.122C234.902 402.669 226.531 411.337 225.026 416.431C222.256 425.807 224.209 433.282 231.276 440.349C236.455 445.528 241.52 447.815 247.81 447.815C254.1 447.815 259.165 445.528 264.344 440.349C274.116 430.577 274.408 418.146 265.109 407.803C258.637 400.605 249.287 398.135 239.81 401.122ZM253.355 418.27C254.903 419.817 255.81 421.867 255.81 423.815C255.81 425.763 254.903 427.813 253.355 429.36C248.395 434.321 239.81 430.806 239.81 423.815C239.81 419.704 243.699 415.815 247.81 415.815C249.758 415.815 251.808 416.722 253.355 418.27Z" fill="#A241BB"/>
</svg>
