<svg width="801" height="813" viewBox="0 0 801 813" fill="none" xmlns="http://www.w3.org/2000/svg">
<path d="M679.658 406.262C672.637 406.262 666.962 400.587 666.962 393.566C666.962 386.546 672.637 380.871 679.658 380.871C683.149 380.871 686.006 378.014 686.006 374.523C686.006 371.032 683.149 368.175 679.658 368.175C672.637 368.175 666.962 362.5 666.962 355.479C666.962 348.459 672.637 342.784 679.658 342.784C697.165 342.784 711.397 357.016 711.397 374.523C711.397 392.03 697.165 406.262 679.658 406.262Z" fill="#1D13ED"/>
<path d="M686.006 457.045C678.985 457.045 673.31 451.37 673.31 444.349C673.31 437.328 678.985 431.653 686.006 431.653C693.014 431.653 698.701 425.966 698.701 418.958C698.701 411.95 693.014 406.262 686.006 406.262C678.985 406.262 673.31 400.587 673.31 393.566C673.31 386.546 678.985 380.871 686.006 380.871C707.004 380.871 724.093 397.959 724.093 418.958C724.093 439.956 707.004 457.045 686.006 457.045Z" fill="#1D13ED"/>
<path d="M686.006 406.262H647.919C640.898 406.262 635.223 400.587 635.223 393.566C635.223 386.546 640.898 380.871 647.919 380.871H686.006C693.026 380.871 698.701 386.546 698.701 393.566C698.701 400.587 693.026 406.262 686.006 406.262Z" fill="#1D13ED"/>
<path d="M686.006 457.045H635.223C628.202 457.045 622.527 451.37 622.527 444.349C622.527 437.328 628.202 431.653 635.223 431.653H686.006C693.026 431.653 698.701 437.328 698.701 444.349C698.701 451.37 693.026 457.045 686.006 457.045Z" fill="#1D13ED"/>
<path d="M679.658 368.175H635.223C628.202 368.175 622.527 362.5 622.527 355.479C622.527 348.459 628.202 342.784 635.223 342.784H679.658C686.678 342.784 692.353 348.459 692.353 355.479C692.353 362.5 686.678 368.175 679.658 368.175Z" fill="#1D13ED"/>
<path d="M647.919 457.045C640.898 457.045 635.223 451.37 635.223 444.349V355.479C635.223 348.459 640.898 342.784 647.919 342.784C654.939 342.784 660.614 348.459 660.614 355.479V444.349C660.614 451.37 654.939 457.045 647.919 457.045Z" fill="#1D13ED"/>
<path d="M660.614 368.175C653.594 368.175 647.919 362.5 647.919 355.479V342.784C647.919 335.763 653.594 330.088 660.614 330.088C667.635 330.088 673.31 335.763 673.31 342.784V355.479C673.31 362.5 667.635 368.175 660.614 368.175Z" fill="#1D13ED"/>
<path d="M660.614 469.74C653.594 469.74 647.919 464.065 647.919 457.045V444.349C647.919 437.328 653.594 431.653 660.614 431.653C667.635 431.653 673.31 437.328 673.31 444.349V457.045C673.31 464.065 667.635 469.74 660.614 469.74Z" fill="#1D13ED"/>
<path d="M673.31 520.523C610.301 520.523 559.049 469.27 559.049 406.262C559.049 343.253 610.301 292 673.31 292C736.319 292 787.571 343.253 787.571 406.262C787.571 469.27 736.319 520.523 673.31 520.523ZM673.31 317.392C624.317 317.392 584.44 357.269 584.44 406.262C584.44 455.254 624.317 495.131 673.31 495.131C722.303 495.131 762.18 455.254 762.18 406.262C762.18 357.269 722.303 317.392 673.31 317.392Z" fill="#1D13ED"/>
<path d="M400.353 253.913C393.332 253.913 387.657 248.238 387.657 241.218C387.657 234.197 393.332 228.522 400.353 228.522C403.844 228.522 406.701 225.666 406.701 222.174C406.701 218.683 403.844 215.826 400.353 215.826C393.332 215.826 387.657 210.151 387.657 203.131C387.657 196.11 393.332 190.435 400.353 190.435C417.86 190.435 432.092 204.667 432.092 222.174C432.092 239.682 417.86 253.913 400.353 253.913Z" fill="#1D13ED"/>
<path d="M406.701 304.696C399.68 304.696 394.005 299.021 394.005 292.001C394.005 284.98 399.68 279.305 406.701 279.305C413.709 279.305 419.396 273.617 419.396 266.609C419.396 259.601 413.709 253.914 406.701 253.914C399.68 253.914 394.005 248.239 394.005 241.218C394.005 234.197 399.68 228.522 406.701 228.522C427.699 228.522 444.788 245.611 444.788 266.609C444.788 287.608 427.699 304.696 406.701 304.696Z" fill="#1D13ED"/>
<path d="M406.701 253.914H368.614C361.593 253.914 355.918 248.239 355.918 241.218C355.918 234.197 361.593 228.522 368.614 228.522H406.701C413.721 228.522 419.396 234.197 419.396 241.218C419.396 248.239 413.721 253.914 406.701 253.914Z" fill="#1D13ED"/>
<path d="M406.701 304.696H355.918C348.897 304.696 343.222 299.021 343.222 292.001C343.222 284.98 348.897 279.305 355.918 279.305H406.701C413.721 279.305 419.396 284.98 419.396 292.001C419.396 299.021 413.721 304.696 406.701 304.696Z" fill="#1D13ED"/>
<path d="M400.353 215.826H355.918C348.897 215.826 343.222 210.151 343.222 203.131C343.222 196.11 348.897 190.435 355.918 190.435H400.353C407.373 190.435 413.048 196.11 413.048 203.131C413.048 210.151 407.373 215.826 400.353 215.826Z" fill="#1D13ED"/>
<path d="M368.614 304.696C361.593 304.696 355.918 299.021 355.918 292V203.131C355.918 196.11 361.593 190.435 368.614 190.435C375.634 190.435 381.309 196.11 381.309 203.131V292C381.309 299.021 375.634 304.696 368.614 304.696Z" fill="#1D13ED"/>
<path d="M381.309 215.827C374.288 215.827 368.614 210.152 368.614 203.131V190.435C368.614 183.414 374.288 177.74 381.309 177.74C388.33 177.74 394.005 183.414 394.005 190.435V203.131C394.005 210.152 388.33 215.827 381.309 215.827Z" fill="#1D13ED"/>
<path d="M381.309 317.392C374.288 317.392 368.614 311.717 368.614 304.696V292.001C368.614 284.98 374.288 279.305 381.309 279.305C388.33 279.305 394.005 284.98 394.005 292.001V304.696C394.005 311.717 388.33 317.392 381.309 317.392Z" fill="#1D13ED"/>
<path d="M393.993 368.187C330.984 368.187 279.731 316.935 279.731 253.926C279.731 190.917 330.984 139.665 393.993 139.665C457.001 139.665 508.254 190.917 508.254 253.926C508.254 316.935 457.001 368.187 393.993 368.187ZM393.993 165.056C345 165.056 305.123 204.933 305.123 253.926C305.123 302.919 345 342.796 393.993 342.796C442.985 342.796 482.862 302.919 482.862 253.926C482.862 204.933 442.985 165.056 393.993 165.056Z" fill="#1D13ED"/>
<path d="M673.31 584.001C666.289 584.001 660.614 578.326 660.614 571.305V507.827C660.614 500.806 666.289 495.131 673.31 495.131C680.331 495.131 686.006 500.806 686.006 507.827V571.305C686.006 578.326 680.331 584.001 673.31 584.001Z" fill="#1D13ED"/>
<path d="M673.31 317.392C666.289 317.392 660.614 311.717 660.614 304.696V241.218C660.614 234.197 666.289 228.522 673.31 228.522C680.331 228.522 686.006 234.197 686.006 241.218V304.696C686.006 311.717 680.331 317.392 673.31 317.392Z" fill="#1D13ED"/>
<path d="M486.48 224.61C481.91 224.61 477.479 222.134 475.219 217.792C471.969 211.584 474.368 203.916 480.589 200.666L561.435 158.402C567.618 155.126 575.337 157.551 578.562 163.772C581.812 169.98 579.412 177.648 573.191 180.899L492.345 223.162C490.479 224.153 488.461 224.61 486.48 224.61Z" fill="#1D13ED"/>
<path d="M225.8 360.885C221.23 360.885 216.799 358.409 214.539 354.067C211.289 347.859 213.689 340.191 219.909 336.941L300.857 294.626C307.04 291.338 314.746 293.775 317.983 299.996C321.234 306.204 318.834 313.873 312.613 317.123L231.666 359.437C229.787 360.428 227.781 360.885 225.8 360.885Z" fill="#1D13ED"/>
<path d="M400.353 558.61C393.332 558.61 387.657 552.935 387.657 545.915C387.657 538.894 393.332 533.219 400.353 533.219C403.844 533.219 406.701 530.362 406.701 526.871C406.701 523.38 403.844 520.523 400.353 520.523C393.332 520.523 387.657 514.848 387.657 507.828C387.657 500.807 393.332 495.132 400.353 495.132C417.86 495.132 432.092 509.364 432.092 526.871C432.092 544.378 417.86 558.61 400.353 558.61Z" fill="#1D13ED"/>
<path d="M406.701 609.393C399.68 609.393 394.005 603.718 394.005 596.697C394.005 589.676 399.68 584.001 406.701 584.001C413.709 584.001 419.396 578.314 419.396 571.306C419.396 564.298 413.709 558.61 406.701 558.61C399.68 558.61 394.005 552.935 394.005 545.914C394.005 538.894 399.68 533.219 406.701 533.219C427.699 533.219 444.788 550.307 444.788 571.306C444.788 592.304 427.699 609.393 406.701 609.393Z" fill="#1D13ED"/>
<path d="M406.701 558.61H368.614C361.593 558.61 355.918 552.935 355.918 545.914C355.918 538.894 361.593 533.219 368.614 533.219H406.701C413.721 533.219 419.396 538.894 419.396 545.914C419.396 552.935 413.721 558.61 406.701 558.61Z" fill="#1D13ED"/>
<path d="M406.701 609.393H355.918C348.897 609.393 343.222 603.718 343.222 596.697C343.222 589.676 348.897 584.001 355.918 584.001H406.701C413.721 584.001 419.396 589.676 419.396 596.697C419.396 603.718 413.721 609.393 406.701 609.393Z" fill="#1D13ED"/>
<path d="M400.353 520.523H355.918C348.897 520.523 343.222 514.848 343.222 507.828C343.222 500.807 348.897 495.132 355.918 495.132H400.353C407.373 495.132 413.048 500.807 413.048 507.828C413.048 514.848 407.373 520.523 400.353 520.523Z" fill="#1D13ED"/>
<path d="M368.614 609.393C361.593 609.393 355.918 603.718 355.918 596.697V507.828C355.918 500.807 361.593 495.132 368.614 495.132C375.634 495.132 381.309 500.807 381.309 507.828V596.697C381.309 603.718 375.634 609.393 368.614 609.393Z" fill="#1D13ED"/>
<path d="M381.309 520.523C374.288 520.523 368.614 514.848 368.614 507.827V495.132C368.614 488.111 374.288 482.436 381.309 482.436C388.33 482.436 394.005 488.111 394.005 495.132V507.827C394.005 514.848 388.33 520.523 381.309 520.523Z" fill="#1D13ED"/>
<path d="M381.309 622.089C374.288 622.089 368.614 616.414 368.614 609.393V596.697C368.614 589.676 374.288 584.001 381.309 584.001C388.33 584.001 394.005 589.676 394.005 596.697V609.393C394.005 616.414 388.33 622.089 381.309 622.089Z" fill="#1D13ED"/>
<path d="M393.954 672.859C330.945 672.859 279.693 621.606 279.693 558.598C279.693 495.589 330.945 444.336 393.954 444.336C456.962 444.336 508.215 495.589 508.215 558.598C508.215 621.606 456.962 672.859 393.954 672.859ZM393.954 469.728C344.961 469.728 305.084 509.605 305.084 558.598C305.084 607.59 344.961 647.467 393.954 647.467C442.946 647.467 482.823 607.59 482.823 558.598C482.823 509.605 442.946 469.728 393.954 469.728Z" fill="#1D13ED"/>
<path d="M567.263 655.568C565.282 655.568 563.276 655.111 561.397 654.121L480.551 611.857C474.33 608.607 471.931 600.951 475.181 594.73C478.418 588.509 486.099 586.072 492.307 589.36L573.154 631.624C579.374 634.874 581.774 642.529 578.524 648.75C576.264 653.08 571.846 655.568 567.263 655.568Z" fill="#1D13ED"/>
<path d="M306.684 519.345C304.703 519.345 302.697 518.888 300.818 517.898L219.871 475.583C213.65 472.333 211.25 464.677 214.5 458.456C217.738 452.235 225.419 449.798 231.627 453.086L312.574 495.401C318.795 498.651 321.195 506.306 317.945 512.527C315.685 516.869 311.254 519.345 306.684 519.345Z" fill="#1D13ED"/>
<path d="M127.396 533.219C57.3917 533.219 0.438843 476.266 0.438843 406.262C0.438843 336.258 57.3917 279.305 127.396 279.305C197.4 279.305 254.352 336.258 254.352 406.262C254.352 476.266 197.4 533.219 127.396 533.219ZM127.396 304.696C71.395 304.696 25.8302 350.261 25.8302 406.262C25.8302 462.262 71.395 507.827 127.396 507.827C183.396 507.827 228.961 462.262 228.961 406.262C228.961 350.261 183.396 304.696 127.396 304.696Z" fill="#1D13ED"/>
<path d="M127.396 444.349C99.389 444.349 76.6129 421.573 76.6129 393.566C76.6129 365.559 99.389 342.783 127.396 342.783C155.402 342.783 178.178 365.559 178.178 393.566C178.178 421.573 155.402 444.349 127.396 444.349ZM127.396 368.175C113.392 368.175 102.004 379.563 102.004 393.566C102.004 407.569 113.392 418.957 127.396 418.957C141.399 418.957 152.787 407.569 152.787 393.566C152.787 379.563 141.399 368.175 127.396 368.175Z" fill="#1D13ED"/>
<path d="M190.874 507.827C183.853 507.827 178.178 502.152 178.178 495.131C178.178 467.125 155.402 444.349 127.396 444.349C99.389 444.349 76.6129 467.125 76.6129 495.131C76.6129 502.152 70.9379 507.827 63.9172 507.827C56.8965 507.827 51.2216 502.152 51.2216 495.131C51.2216 453.121 85.3856 418.957 127.396 418.957C169.406 418.957 203.57 453.121 203.57 495.131C203.57 502.152 197.895 507.827 190.874 507.827Z" fill="#1D13ED"/>
<path d="M190.874 514.175C183.853 514.175 178.178 508.5 178.178 501.479V495.131C178.178 488.111 183.853 482.436 190.874 482.436C197.895 482.436 203.57 488.111 203.57 495.131V501.479C203.57 508.5 197.895 514.175 190.874 514.175Z" fill="#1D13ED"/>
<path d="M63.9172 513.959C56.8965 513.959 51.2216 508.284 51.2216 501.264V495.131C51.2216 488.111 56.8965 482.436 63.9172 482.436C70.9379 482.436 76.6129 488.111 76.6129 495.131V501.264C76.6129 508.284 70.9379 513.959 63.9172 513.959Z" fill="#1D13ED"/>
<path d="M673.31 253.914C603.306 253.914 546.353 196.961 546.353 126.957C546.353 56.9528 603.306 0 673.31 0C743.314 0 800.267 56.9528 800.267 126.957C800.267 196.961 743.314 253.914 673.31 253.914ZM673.31 25.3914C617.309 25.3914 571.744 70.9562 571.744 126.957C571.744 182.957 617.309 228.522 673.31 228.522C729.31 228.522 774.875 182.957 774.875 126.957C774.875 70.9562 729.31 25.3914 673.31 25.3914Z" fill="#1D13ED"/>
<path d="M673.31 165.044C645.303 165.044 622.527 142.268 622.527 114.261C622.527 86.2546 645.303 63.4785 673.31 63.4785C701.316 63.4785 724.093 86.2546 724.093 114.261C724.093 142.268 701.316 165.044 673.31 165.044ZM673.31 88.8699C659.306 88.8699 647.918 100.258 647.918 114.261C647.918 128.265 659.306 139.653 673.31 139.653C687.313 139.653 698.701 128.265 698.701 114.261C698.701 100.258 687.313 88.8699 673.31 88.8699Z" fill="#1D13ED"/>
<path d="M736.788 228.522C729.768 228.522 724.093 222.847 724.093 215.826C724.093 187.82 701.316 165.044 673.31 165.044C645.303 165.044 622.527 187.82 622.527 215.826C622.527 222.847 616.852 228.522 609.831 228.522C602.811 228.522 597.136 222.847 597.136 215.826C597.136 173.816 631.3 139.652 673.31 139.652C715.32 139.652 749.484 173.816 749.484 215.826C749.484 222.847 743.809 228.522 736.788 228.522Z" fill="#1D13ED"/>
<path d="M736.788 234.87C729.767 234.87 724.093 229.195 724.093 222.174V215.827C724.093 208.806 729.767 203.131 736.788 203.131C743.809 203.131 749.484 208.806 749.484 215.827V222.174C749.484 229.195 743.809 234.87 736.788 234.87Z" fill="#1D13ED"/>
<path d="M609.831 234.654C602.811 234.654 597.136 228.979 597.136 221.959V215.827C597.136 208.806 602.811 203.131 609.831 203.131C616.852 203.131 622.527 208.806 622.527 215.827V221.959C622.527 228.979 616.852 234.654 609.831 234.654Z" fill="#1D13ED"/>
<path d="M673.31 812.523C603.306 812.523 546.353 755.571 546.353 685.567C546.353 615.563 603.306 558.61 673.31 558.61C743.314 558.61 800.267 615.563 800.267 685.567C800.267 755.571 743.314 812.523 673.31 812.523ZM673.31 584.001C617.309 584.001 571.744 629.566 571.744 685.567C571.744 741.567 617.309 787.132 673.31 787.132C729.31 787.132 774.875 741.567 774.875 685.567C774.875 629.566 729.31 584.001 673.31 584.001Z" fill="#1D13ED"/>
<path d="M673.31 723.654C645.303 723.654 622.527 700.878 622.527 672.871C622.527 644.864 645.303 622.088 673.31 622.088C701.316 622.088 724.093 644.864 724.093 672.871C724.093 700.878 701.316 723.654 673.31 723.654ZM673.31 647.479C659.306 647.479 647.918 658.868 647.918 672.871C647.918 686.874 659.306 698.262 673.31 698.262C687.313 698.262 698.701 686.874 698.701 672.871C698.701 658.868 687.313 647.479 673.31 647.479Z" fill="#1D13ED"/>
<path d="M736.788 787.132C729.768 787.132 724.093 781.457 724.093 774.436C724.093 746.43 701.316 723.654 673.31 723.654C645.303 723.654 622.527 746.43 622.527 774.436C622.527 781.457 616.852 787.132 609.831 787.132C602.811 787.132 597.136 781.457 597.136 774.436C597.136 732.426 631.3 698.262 673.31 698.262C715.32 698.262 749.484 732.426 749.484 774.436C749.484 781.457 743.809 787.132 736.788 787.132Z" fill="#1D13ED"/>
<path d="M736.788 793.48C729.767 793.48 724.093 787.805 724.093 780.784V774.436C724.093 767.416 729.767 761.741 736.788 761.741C743.809 761.741 749.484 767.416 749.484 774.436V780.784C749.484 787.805 743.809 793.48 736.788 793.48Z" fill="#1D13ED"/>
<path d="M609.831 793.264C602.811 793.264 597.136 787.589 597.136 780.568V774.436C597.136 767.416 602.811 761.741 609.831 761.741C616.852 761.741 622.527 767.416 622.527 774.436V780.568C622.527 787.589 616.852 793.264 609.831 793.264Z" fill="#1D13ED"/>
</svg>
