<svg xmlns="http://www.w3.org/2000/svg" width="53.82" height="53.82" fill="#4842a8" xmlns:v="https://vecta.io/nano"><path d="M0 0h53.82v53.82H0z" opacity="0"/><path d="M41.206 12.2a12.52 12.52 0 0 0-4.114.686 10.5 10.5 0 0 0-13.069-1.813A12.62 12.62 0 0 0 3.45 23.342a10.51 10.51 0 0 0 6.67 18.288 12.61 12.61 0 0 0 19.938-.3A10.52 10.52 0 0 0 41 37.43h.208c6.967 0 12.614-5.647 12.614-12.614s-5.647-12.614-12.614-12.614zm0 22.075c-.283 0-.575-.013-.868-.04l-.972-.088-.512.831a7.36 7.36 0 0 1-8.882 3.023l-1.227-.467-.682 1.122a9.46 9.46 0 0 1-15.862.491l-.5-.712-.867.038c-.135.006-.236.009-.327.009-3.181-.002-6.001-2.049-6.988-5.073a7.36 7.36 0 0 1 2.647-8.22l.909-.667-.337-1.076A9.46 9.46 0 0 1 22.7 14.181l1 1.073 1.144-.915a7.35 7.35 0 0 1 5.546-1.546c1.982.26 3.773 1.315 4.96 2.923l.761 1.028 1.163-.532a9.46 9.46 0 1 1 3.932 18.068zM13.2 27.999a1.26 1.26 0 0 1-.482 1.046 2.1 2.1 0 0 1-1.33.379A3.17 3.17 0 0 1 10 29.161v-.772a3.77 3.77 0 0 0 .726.253 3.08 3.08 0 0 0 .716.092 1.14 1.14 0 0 0 .716-.185.6.6 0 0 0 .231-.5.62.62 0 0 0-.212-.475 3.19 3.19 0 0 0-.875-.461c-.369-.126-.701-.343-.964-.632a1.34 1.34 0 0 1-.28-.854 1.2 1.2 0 0 1 .444-.984c.344-.255.766-.381 1.193-.359a3.5 3.5 0 0 1 1.429.314l-.26.667a3.12 3.12 0 0 0-1.189-.28c-.214-.015-.427.047-.6.173-.135.112-.211.28-.205.456a.64.64 0 0 0 .082.333.84.84 0 0 0 .27.261c.216.127.443.235.677.325a3.7 3.7 0 0 1 .807.427c.159.118.288.271.376.448.083.186.124.388.118.591zm3.247 1.357l-.161-.526h-.027a1.55 1.55 0 0 1-.55.47 1.74 1.74 0 0 1-.711.125 1.2 1.2 0 0 1-.87-.3c-.219-.227-.333-.536-.313-.851a1 1 0 0 1 .434-.882 2.5 2.5 0 0 1 1.327-.326l.653-.021v-.2c.015-.196-.045-.39-.169-.542a.69.69 0 0 0-.525-.179c-.19-.001-.378.027-.559.084a4.2 4.2 0 0 0-.513.2l-.26-.574a2.8 2.8 0 0 1 .673-.244 3.1 3.1 0 0 1 .69-.084c.389-.029.775.083 1.089.314a1.23 1.23 0 0 1 .367.988v2.548zm-1.2-.547a1 1 0 0 0 .7-.244c.183-.179.28-.429.265-.685v-.324l-.485.021a1.66 1.66 0 0 0-.825.19c-.173.114-.271.312-.258.518a.5.5 0 0 0 .15.391c.13.101.293.148.457.133zm3.7.547h-.8v-5.318h.8zm2.8.068a1.83 1.83 0 0 1-1.381-.514c-.349-.387-.529-.897-.5-1.417a2.14 2.14 0 0 1 .461-1.456c.321-.359.787-.554 1.268-.53a1.56 1.56 0 0 1 1.181.455 1.74 1.74 0 0 1 .434 1.251v.434h-2.515a1.24 1.24 0 0 0 .3.846c.209.208.496.317.79.3a2.88 2.88 0 0 0 .621-.068 3.27 3.27 0 0 0 .62-.21v.653c-.189.092-.389.159-.595.2-.226.04-.456.059-.686.056zm-.149-3.308c-.23-.011-.453.076-.614.24-.169.198-.266.448-.275.708h1.716c.014-.256-.067-.508-.226-.708a.77.77 0 0 0-.6-.24zm5.069 2.163a.99.99 0 0 1-.4.849 1.93 1.93 0 0 1-1.155.3 2.73 2.73 0 0 1-1.217-.233v-.693a2.98 2.98 0 0 0 1.241.308q.742 0 .742-.448c.003-.087-.026-.172-.082-.239a.97.97 0 0 0-.27-.2c-.169-.088-.344-.165-.523-.232a2.42 2.42 0 0 1-.884-.506.94.94 0 0 1-.231-.656.86.86 0 0 1 .388-.753c.32-.195.691-.288 1.065-.268.435-.002.865.09 1.261.27l-.26.6a2.8 2.8 0 0 0-1.029-.253q-.636 0-.636.362c.002.121.064.234.166.3.228.139.47.252.723.338a3.3 3.3 0 0 1 .68.331.99.99 0 0 1 .314.347 1 1 0 0 1 .107.475zm2.765-2.1h-.923v3.177h-.807v-3.172h-.626v-.376l.622-.246v-.246c-.03-.359.083-.716.314-.993.263-.236.612-.352.964-.323.284 0 .566.047.834.14l-.212.608a1.85 1.85 0 0 0-.567-.1.46.46 0 0 0-.4.169.85.85 0 0 0-.125.508v.246h.923zm4 1.275a2.06 2.06 0 0 1-.48 1.451 1.7 1.7 0 0 1-1.323.52 1.81 1.81 0 0 1-.937-.239 1.58 1.58 0 0 1-.625-.687 2.34 2.34 0 0 1-.218-1.043 2.05 2.05 0 0 1 .472-1.436 1.71 1.71 0 0 1 1.33-.516c.49-.024.966.169 1.3.528a2.04 2.04 0 0 1 .476 1.424zm-2.756.002q0 1.309.967 1.309.967 0 .957-1.309 0-1.3-.964-1.3a.82.82 0 0 0-.733.335 1.7 1.7 0 0 0-.227.965zm5.592-1.949a1.92 1.92 0 0 1 .4.034l-.079.749a1.52 1.52 0 0 0-.355-.041 1.03 1.03 0 0 0-.781.314 1.14 1.14 0 0 0-.3.817v1.976h-.8v-3.78h.623l.106.667h.044a1.5 1.5 0 0 1 .49-.537 1.17 1.17 0 0 1 .652-.2zm2.625 3.917c-.486.033-.961-.15-1.3-.5a2.09 2.09 0 0 1-.446-1.437 2.1 2.1 0 0 1 .467-1.466 1.73 1.73 0 0 1 1.348-.513c.371-.006.739.07 1.077.222l-.243.646a2.44 2.44 0 0 0-.841-.2q-.979 0-.979 1.3a1.56 1.56 0 0 0 .244.955c.172.218.439.337.716.32.356 0 .705-.092 1.015-.267v.7a1.59 1.59 0 0 1-.46.181 2.76 2.76 0 0 1-.6.059zm3.592 0a1.83 1.83 0 0 1-1.379-.514c-.349-.387-.529-.897-.5-1.417a2.14 2.14 0 0 1 .461-1.456c.321-.359.787-.554 1.268-.53a1.56 1.56 0 0 1 1.183.455 1.74 1.74 0 0 1 .434 1.251v.434h-2.516a1.24 1.24 0 0 0 .3.846c.209.208.496.317.79.3.21.002.419-.02.624-.063a3.27 3.27 0 0 0 .62-.21v.653c-.189.092-.389.159-.595.2-.228.039-.459.056-.69.051zm-.147-3.308a.81.81 0 0 0-.613.24c-.169.198-.266.448-.275.708h1.716c.014-.256-.067-.508-.226-.708a.77.77 0 0 0-.6-.24z"/></svg>