<?xml version="1.0" encoding="utf-8"?>
<!-- Generator: Adobe Illustrator 22.0.1, SVG Export Plug-In . SVG Version: 6.00 Build 0)  -->
<svg version="1.1" id="Layer_1" xmlns="http://www.w3.org/2000/svg" xmlns:xlink="http://www.w3.org/1999/xlink" x="0px" y="0px"
	 viewBox="0 0 50 50" style="enable-background:new 0 0 50 50;" xml:space="preserve">
<style type="text/css">
	.st0{fill:#7CBA3D;}
	.st1{fill:#C5D83E;}
	.st2{fill:url(#SVGID_1_);}
	.st3{fill:url(#SVGID_2_);}
	.st4{fill:url(#SVGID_3_);}
</style>
<g>
	<path class="st0" d="M40.9,29.9L40.9,29.9c-0.9-4.6-3.7-8.5-7.5-10.8c0,0,0,0,0,0c0,0,0,0,0,0c0,0,0,0,0,0c0,0,0,0,0,0
		c-0.4-0.2-0.7-0.4-1.1-0.6L22,13.2l0,0l0,0l0,0L21.5,13c0,0-0.1,0-0.1,0h0c0,0,0,0,0,0l0,0c0,0,0,0,0,0c0,0,0,0,0,0c0,0,0,0,0,0
		c0,0,0,0,0,0c0,0,0,0,0,0c0,0,0,0,0,0c0,0,0,0,0,0c0,0,0,0,0,0c0,0,0,0,0,0c0,0,0,0,0,0c0,0,0,0,0,0c0,0,0,0,0,0c0,0,0,0,0,0
		c-1.1-0.5-2-1.4-2.6-2.4c-0.8-1.1-1.2-2.5-1.2-3.9c0-2.7,1.5-5.1,3.8-6.2l-3.3,1.7c-5.5,2.7-9.2,8.4-9.2,14.9L9,19.8h0c0,0,0,0,0,0
		c0,0,0,0,0,0c0,0,0,0,0,0c0.9,5.2,4.2,9.5,8.6,11.9l0,0c0,0,0,0,0,0c0,0,0,0,0,0c0,0,0,0,0,0c0,0,0,0,0,0c0,0,0,0,0,0c0,0,0,0,0,0
		c0,0,0,0,0,0c0,0,0,0,0,0c0,0,0,0,0,0c0,0,0,0,0,0c0,0,0,0,0,0c0,0,0,0,0,0c0,0,0,0,0,0c0,0,0,0,0,0c0,0,0,0,0,0c0,0,0,0,0,0l1,0.5
		c0,0,0,0,0,0c0,0,0,0,0,0l0,0c0,0,0,0,0,0l1.2,0.6l8.6,4.3c2.4,1.1,4,3.6,4,6.4v0c0,0,0,0,0,0v0c0,0,0,0,0,0v0c0,0,0,0,0,0v0
		c0,0,0,0,0,0v0c0,0,0,0,0,0v0c0,0,0,0,0,0v0c0,1.8-0.7,3.5-1.9,4.7c-0.5,0.6-1.2,1-1.8,1.4l2.1-1.1L32,48c5.5-2.7,9.2-8.4,9.2-14.9
		L40.9,29.9"/>
	<path class="st1" d="M8.7,16.9c0-6.5,3.7-12.1,9.2-14.9l3.3-1.7c-2.2,1.2-3.8,3.5-3.8,6.2c0,1.5,0.4,2.8,1.2,3.9
		c-1.1,2.8-1.8,5.7-2,8.6c-1.4,0.7-3,1.1-4.7,1.1c-0.2,0-0.3,0-0.5,0c-0.9,0-1.7-0.2-2.5-0.4L8.7,16.9L8.7,16.9z M32.5,43.5
		L32.5,43.5L32.5,43.5L32.5,43.5z M32.5,43.5L32.5,43.5L32.5,43.5L32.5,43.5z M32.5,43.5C32.5,43.5,32.5,43.5,32.5,43.5
		C32.5,43.5,32.5,43.5,32.5,43.5L32.5,43.5z M32.5,43.5L32.5,43.5L32.5,43.5L32.5,43.5z M32.5,43.5L32.5,43.5L32.5,43.5L32.5,43.5z
		 M32.5,43.5L32.5,43.5L32.5,43.5L32.5,43.5z M32.5,43.5C32.5,43.5,32.5,43.5,32.5,43.5C32.5,43.5,32.5,43.5,32.5,43.5L32.5,43.5z
		 M32.5,43.5L32.5,43.5L32.5,43.5L32.5,43.5z M32.5,43.5C32.5,43.5,32.5,43.5,32.5,43.5C32.5,43.5,32.5,43.5,32.5,43.5L32.5,43.5z
		 M32.5,43.6L32.5,43.6L32.5,43.6L32.5,43.6z M32.5,43.6C32.5,43.6,32.5,43.6,32.5,43.6C32.5,43.6,32.5,43.6,32.5,43.6L32.5,43.6z
		 M32.5,43.6L32.5,43.6L32.5,43.6L32.5,43.6z M32.5,43.6L32.5,43.6L32.5,43.6L32.5,43.6z M32.5,43.6L32.5,43.6L32.5,43.6L32.5,43.6z
		"/>
	
		<linearGradient id="SVGID_1_" gradientUnits="userSpaceOnUse" x1="-220.9109" y1="275.0221" x2="-220.9334" y2="274.9515" gradientTransform="matrix(76.5487 0 0 -102.8184 16924.8496 28300.9453)">
		<stop  offset="0" style="stop-color:#AACE36"/>
		<stop  offset="1" style="stop-color:#2FA042"/>
	</linearGradient>
	<path class="st2" d="M18.7,32.2l-1-0.5c0,0,0,0,0,0c0,0,0,0,0,0c0,0,0,0,0,0c0,0,0,0,0,0c0,0,0,0,0,0c0,0,0,0,0,0c0,0,0,0,0,0
		c0,0,0,0,0,0c0,0,0,0,0,0c0,0,0,0,0,0c0,0,0,0,0,0c0,0,0,0,0,0c0,0,0,0,0,0c0,0,0,0,0,0c0,0,0,0,0,0c0,0,0,0,0,0l0,0
		C13.1,29.3,9.8,25,9,19.8c0.8,0.2,1.6,0.4,2.5,0.4c0.2,0,0.3,0,0.5,0c1.7,0,3.3-0.4,4.7-1.1C16.3,23.6,17.1,28.1,18.7,32.2"/>
	
		<linearGradient id="SVGID_2_" gradientUnits="userSpaceOnUse" x1="-223.0794" y1="275.439" x2="-222.952" y2="275.4198" gradientTransform="matrix(192.9304 0 0 -307.456 43054.9023 84713.6797)">
		<stop  offset="0" style="stop-color:#79A933"/>
		<stop  offset="0.13" style="stop-color:#70A333"/>
		<stop  offset="0.34" style="stop-color:#559332"/>
		<stop  offset="0.58" style="stop-color:#277B2F"/>
		<stop  offset="0.86" style="stop-color:#005F27"/>
		<stop  offset="1" style="stop-color:#005020"/>
	</linearGradient>
	<path class="st3" d="M22,13.2L21.5,13c0,0-0.1,0-0.1,0h0c0,0,0,0,0,0l0,0c0,0,0,0,0,0c0,0,0,0,0,0c0,0,0,0,0,0c0,0,0,0,0,0
		c0,0,0,0,0,0c0,0,0,0,0,0c0,0,0,0,0,0c0,0,0,0,0,0c0,0,0,0,0,0c0,0,0,0,0,0c0,0,0,0,0,0c0,0,0,0,0,0c0,0,0,0,0,0
		c-1.1-0.5-2-1.4-2.6-2.4c-1.1,2.8-1.8,5.7-2,8.6c1.9-1,3.5-2.5,4.5-4.4L22,13.2L22,13.2z M40.9,29.9C37,32.5,32.3,34,27.3,34
		c-0.4,0-0.8,0-1.1,0c-2.2-0.1-4.3-0.5-6.3-1.1l8.6,4.3c2.4,1.1,4,3.6,4,6.4v0c0,0,0,0,0,0v0c0,0,0,0,0,0v0c0,0,0,0,0,0v0
		c0,0,0,0,0,0v0c0,0,0,0,0,0v0c0,0,0,0,0,0v0c0,1.8-0.7,3.5-1.9,4.7c-0.5,0.6-1.2,1-1.8,1.4l2.1-1.1L32,48c5.5-2.7,9.2-8.4,9.2-14.9
		L40.9,29.9L40.9,29.9z"/>
	
		<linearGradient id="SVGID_3_" gradientUnits="userSpaceOnUse" x1="-223.0475" y1="275.1617" x2="-222.9829" y2="275.0343" gradientTransform="matrix(191.0404 0 0 -162.56 42630.8867 44743.5938)">
		<stop  offset="0" style="stop-color:#79AB35"/>
		<stop  offset="0.53" style="stop-color:#7CBA3D"/>
		<stop  offset="1" style="stop-color:#00AA4B"/>
	</linearGradient>
	<path class="st4" d="M27.3,34c-0.4,0-0.8,0-1.1,0c-2.2-0.1-4.3-0.5-6.3-1.1l-1.2-0.6c-1.7-4.1-2.4-8.6-2-13.1
		c1.9-1,3.5-2.5,4.5-4.4l0.8-1.5l10.3,5.1c0.4,0.2,0.7,0.4,1.1,0.6c0,0,0,0,0,0c0,0,0,0,0,0c0,0,0,0,0,0c0,0,0,0,0,0
		c3.8,2.4,6.6,6.3,7.5,10.8C37,32.5,32.3,34,27.3,34"/>
</g>
</svg>
