<?xml version="1.0" encoding="utf-8"?>
<!-- Generator: Adobe Illustrator 22.0.1, SVG Export Plug-In . SVG Version: 6.00 Build 0)  -->
<svg version="1.1" id="Laag_1" xmlns="http://www.w3.org/2000/svg" xmlns:xlink="http://www.w3.org/1999/xlink" x="0px" y="0px"
	 viewBox="0 0 50 50" style="enable-background:new 0 0 50 50;" xml:space="preserve">
<style type="text/css">
	.st0{fill:#E43026;}
	.st1{fill-rule:evenodd;clip-rule:evenodd;fill:#231F20;}
	.st2{fill:#231F20;}
</style>
<g>
	<g>
		<path class="st0" d="M24.3,7C18.6,7,14,11.6,14,17.4c0,5.7,4.6,10.4,10.3,10.4c5.7,0,10.3-4.6,10.3-10.4C34.6,11.6,29.9,7,24.3,7z
			 M24.4,24.9c-4.2,0-7.5-3.4-7.5-7.6c0-4.2,3.4-7.6,7.5-7.6c4.2,0,7.5,3.4,7.5,7.6C31.9,21.5,28.5,24.9,24.4,24.9z"/>
		<path class="st0" d="M17.4,19.2c0,0,1.2,4.8,6.1,5.3c4.8,0.5,7.2-3.7,7.2-3.7l-1.3-0.8c0,0-2,3.4-5.6,3.3
			C20.2,23.2,18.4,21.1,17.4,19.2z"/>
		<path class="st0" d="M19.9,21.9c1.1,0.8,2.4,1.2,3.9,1.2c3.4,0.1,5.4-3.1,5.4-3.2l0.1-0.2l0.2,0.1l1.2,0.8
			c1.1-1.8,0.8-3.9,0.8-3.9l-2.2,0c0,0,0.2,3.3-3.8,5.2c-1.6,0.8-4.4,0.6-6.1-0.7C19.4,21.3,19.6,21.6,19.9,21.9z"/>
		<path class="st0" d="M28.9,16.7l0-0.2l0.2,0l2.4,0C31.4,14.6,30,13,30,13l-2.6,1.6c0,0,1.7,1.3,0.2,4.2c-0.5,1-1.7,2.1-2.7,2.6
			c-1.3,0.6-2.3,0.6-2.3,0.6c0.1,0.1,1.4,0.3,3.1-0.5C29.1,20.2,29,16.8,28.9,16.7z"/>
	</g>
	<g>
		<g>
			<path class="st1" d="M10.7,33.3c0,0-0.1,4.4,0,6.3c0,0.5,0,1.2,0.5,1.8c0.5,0.6,1.4,0.7,1.6,0.7c0.3,0,0.7,0,1.2,0
				c0.1,0,0.2,0,0.3-0.2l0-0.8c0-0.1-0.3-0.1-0.4-0.1c-0.5,0-1.1,0-1.4-0.3c-0.2-0.2-0.3-0.5-0.3-0.7l0-1.9c0-0.8,0-1.6,0-2.2l1.1,0
				c0.1,0,0.2,0,0.2,0c0.1,0,0.1-0.2,0.1-0.2c0-0.2,0-0.5,0-0.7c0,0,0-0.2-0.2-0.2l-1.2,0c0-0.3,0-1.5,0-1.5c0-0.1,0-0.2,0-0.3
				c0-0.1-0.1-0.1-0.2-0.1C11.5,33,11,33.1,10.7,33.3z"/>
			<path class="st1" d="M7.6,35c0,0-0.1,0.1-0.1,0.2c0,2.3,0,4.5,0,6.8c0,0,0.1,0,0.7,0C8.8,42,8.8,42,8.8,42s0-6.8,0-7
				c0-0.1,0-0.3-0.2-0.3C8.3,34.8,7.9,34.9,7.6,35z"/>
			<path class="st1" d="M40.4,35.9c0.4,0,0.5-0.1,0.6-0.3c0-0.1,0-0.5,0-0.5c0-0.1,0-0.2-0.2-0.2c-0.2,0-0.4,0-0.9,0
				c-0.2,0-0.5,0-0.7,0c-1.8,0.3-1.7,1.9-1.7,1.9c0,1.8,0,3.5,0,5.3c0,0,0.1,0,0.7,0c0.6,0,0.7-0.1,0.7-0.1s0-2.8,0-4.9
				C38.9,36,39.6,35.8,40.4,35.9z"/>
			<path class="st1" d="M5.3,35.8c0.1-0.2,0.2-0.5,0.1-0.6C5,34.9,4.2,34.8,4,34.8c-1.6-0.2-3.3,0.3-3.5,1.6
				c-0.2,1.3,0.9,1.8,1.9,2.2c0.9,0.4,2.1,0.7,1.9,1.6c-0.2,1.1-2.2,0.6-2.8,0.5c-0.3-0.1-0.5-0.2-0.7-0.2c-0.1,0-0.2,0.2-0.3,0.2
				c-0.1,0.2-0.2,0.4-0.2,0.7C0.4,41.8,1.5,42,1.6,42c3.1,0.5,3.8-0.7,3.9-1c1.1-1.9-1.3-2.8-1.4-2.9c-0.8-0.5-2.2-0.6-2-1.6
				c0.1-0.6,0.7-0.7,1.2-0.7c0.7,0,1.5,0.3,1.7,0.3C5.1,36.1,5.2,36,5.3,35.8z"/>
			<path class="st2" d="M20.5,38.8c0.3,0,0.5,0,0.8,0c0.1,0,0.3-0.2,0.3-0.4c-0.1-0.7-0.1-2.1-1.2-3c-0.8-0.6-1.8-0.7-2.6-0.6
				c-0.4,0.1-1.6,0.4-2.2,1.5c-0.4,0.7-0.6,1.8-0.5,2.8c0.3,2.1,2,2.7,2.2,2.7c0.3,0.1,0.7,0.2,1,0.2c0.5,0.1,1.1,0.1,1.6,0
				c0.3,0,0.7-0.1,1-0.3c0.1-0.1,0.1-0.2,0.1-0.4c0-0.1-0.1-0.2-0.1-0.3c-0.1-0.3-0.5-0.2-0.7-0.2c-0.5,0.1-1.7,0.1-1.7,0.1
				c-0.4,0-0.8-0.1-1-0.3c-1-0.9-0.9-1.9-0.9-1.9L20.5,38.8z M16.5,37.9c0-0.1,0-0.7,0.3-1.2c0,0,0.1-0.1,0.1-0.1
				c0.3-0.4,0.7-0.8,1.4-0.8c0,0,0,0,0.1,0c0,0,0,0,0,0c0,0,0,0,0,0l0,0c0.3,0,0.6,0.1,0.8,0.2c0.2,0.1,0.4,0.3,0.5,0.5
				c0.4,0.6,0.4,1.4,0.4,1.4H16.5z"/>
			<path class="st2" d="M46.8,38.8c0.3,0,0.5,0,0.8,0c0.1,0,0.3-0.2,0.3-0.4c-0.1-0.7-0.1-2.1-1.2-3c-0.8-0.6-1.8-0.7-2.6-0.6
				c-0.4,0.1-1.6,0.4-2.2,1.5c-0.4,0.7-0.6,1.8-0.5,2.8c0.3,2.1,2,2.7,2.2,2.7c0.3,0.1,0.7,0.2,1,0.2c0.5,0.1,1.1,0.1,1.6,0
				c0.3,0,0.7-0.1,1-0.3c0.1-0.1,0.1-0.2,0.1-0.4c0-0.1-0.1-0.2-0.1-0.3c-0.1-0.3-0.5-0.2-0.7-0.2C46,41.1,44.7,41,44.7,41
				c-0.4,0-0.8-0.1-1-0.3c-1-0.9-0.9-1.9-0.9-1.9L46.8,38.8z M42.9,37.9c0-0.1,0-0.7,0.3-1.2c0,0,0.1-0.1,0.1-0.1
				c0.3-0.4,0.7-0.8,1.4-0.8c0,0,0,0,0.1,0c0,0,0,0,0,0c0,0,0,0,0,0l0,0c0.3,0,0.6,0.1,0.8,0.2c0.2,0.1,0.4,0.3,0.5,0.5
				c0.4,0.6,0.4,1.4,0.4,1.4H42.9z"/>
			<g>
				<g>
					<path class="st2" d="M35.6,36.7c-0.6-1.2-1.8-2-3.2-2c-1.5,0-2.7,0.9-3.2,2.2c-0.2,0.4-0.3,1-0.3,1.5c0,0.6,0.1,1.3,0.4,1.8
						c0.6,1.1,1.8,1.9,3.1,1.9c1.4,0,2.6-0.7,3.2-1.9c0.2-0.5,0.3-1.1,0.3-1.6C35.9,37.9,35.9,37.2,35.6,36.7z M33.9,40.4
						c-0.4,0.5-1,0.8-1.5,0.8c-0.4,0-1-0.2-1.3-0.6c-0.5-0.5-0.7-1.3-0.7-2.1c0-0.9,0.2-1.6,0.7-2.1c0.3-0.4,0.9-0.6,1.3-0.6
						c0.6,0,1.2,0.2,1.6,0.9c0.3,0.5,0.3,1.1,0.3,1.8C34.4,39.2,34.3,39.9,33.9,40.4z"/>
				</g>
			</g>
			<path class="st1" d="M25,36.3c0,0-0.6,0.5-0.7,1.8c-0.1,1.3,0.4,2.6,1.4,2.9c1,0.2,1.6,0,1.6,0s0,0,0.1,0
				c0.2-0.1,0.5-0.2,0.6,0.1c0.1,0.1,0.2,0.4,0.2,0.5c0,0.2-0.1,0.4-0.4,0.4c-0.7,0.2-2.4,0.4-3.8-0.6c-1.4-1-1.7-3.8-0.6-5.1
				c1.1-1.3,2.4-1.7,4.2-1.3l0.4,0.2c0,0,0.3,0.1,0.1,0.5c-0.2,0.4-0.3,0.5-0.8,0.3C26.8,35.8,25.6,35.7,25,36.3z"/>
		</g>
		<g>
			<path class="st2" d="M48.8,35.3c-0.2,0-0.4-0.1-0.6-0.2c-0.2-0.2-0.2-0.3-0.2-0.6c0-0.2,0.1-0.4,0.2-0.6c0.2-0.2,0.3-0.2,0.6-0.2
				c0.2,0,0.4,0.1,0.6,0.2c0.2,0.2,0.2,0.3,0.2,0.6c0,0.2-0.1,0.4-0.2,0.6C49.3,35.2,49.1,35.3,48.8,35.3z M48.8,35.1
				c0.2,0,0.3-0.1,0.4-0.2c0.1-0.1,0.2-0.3,0.2-0.4c0-0.2-0.1-0.3-0.2-0.4c-0.1-0.1-0.3-0.2-0.4-0.2c-0.2,0-0.3,0.1-0.4,0.2
				c-0.1,0.1-0.2,0.3-0.2,0.4c0,0.2,0.1,0.3,0.2,0.4C48.5,35.1,48.7,35.1,48.8,35.1z M48.7,35h-0.2c0,0,0,0,0,0V34h0.3
				c0.2,0,0.3,0.1,0.3,0.3c0,0.1,0,0.2-0.2,0.2l0.2,0.4c0,0,0,0,0,0c0,0-0.2,0-0.2,0c0,0,0,0,0,0l-0.2-0.4h-0.1L48.7,35
				C48.7,35,48.7,35,48.7,35z M48.7,34.5L48.7,34.5c0.2,0,0.3-0.1,0.3-0.2c0-0.1-0.1-0.1-0.2-0.1h-0.1V34.5z"/>
		</g>
	</g>
</g>
</svg>
