<svg width="727" height="813" viewBox="0 0 727 813" fill="none" xmlns="http://www.w3.org/2000/svg">
<path d="M691.282 293.242C675.04 293.242 661.752 304.315 657.322 319.08H603.43V375.187L568.733 340.49L559.874 349.349V166.263H657.322C662.49 184.719 680.946 196.531 700.141 191.363C718.597 186.196 729.671 167.739 725.241 148.545C720.074 130.089 701.617 119.015 682.423 123.444C669.873 126.397 660.275 135.995 657.322 148.545H559.874V0.156738H167.125V148.545H83.7028V99.8204C102.159 94.6526 113.971 76.1964 108.803 57.0019C103.636 38.5457 85.1793 26.7337 65.9848 31.9015C47.5286 37.0692 36.4548 55.5254 40.8843 74.7199C43.8373 87.2701 53.4346 96.8674 65.9848 99.8204V166.263H166.387V319.08H69.6761C64.5083 300.624 46.0521 288.812 26.8576 293.98C8.40137 299.148 -2.67237 317.604 1.75713 336.798C6.92487 355.255 25.3811 366.328 44.5756 361.899C57.1258 358.946 66.7231 349.349 69.6761 336.798H167.125V476.327H119.139V542.032H69.6761C64.5083 523.575 46.0521 511.763 26.8576 516.931C8.40137 522.099 -2.67237 540.555 1.75713 559.75C6.92487 578.206 25.3811 590.018 44.5756 584.85C57.1258 581.897 66.7231 572.3 69.6761 559.75H136.118V494.045H166.387V616.595H277.124C282.292 609.951 288.198 604.045 294.842 598.877H184.105V118.277H542.156V366.328L411.485 497.737L448.398 534.649L542.156 440.891V598.877H431.418C438.062 604.045 443.968 609.951 449.136 616.595H559.874V506.596H655.846V581.897C637.39 587.065 625.578 605.521 630.745 624.716C635.913 643.172 654.369 654.246 673.564 649.816C692.02 644.648 703.832 626.192 698.664 606.998C695.711 594.447 686.114 584.85 673.564 581.897V489.616H559.874V423.174L580.545 401.764H620.41V336.06H656.584C661.752 354.516 680.208 365.59 699.403 361.161C717.859 355.993 728.933 337.537 724.503 318.342C720.812 303.577 706.785 292.503 691.282 293.242ZM691.282 139.686C700.879 139.686 709 147.807 709 157.404C709 167.001 700.879 175.122 691.282 175.122C681.685 175.122 673.564 167.001 673.564 157.404C673.564 147.807 681.685 139.686 691.282 139.686ZM57.8641 65.8609C57.8641 56.2637 65.9848 48.1429 75.582 48.1429C85.1793 48.1429 93.3 56.2637 93.3 65.8609C93.3 75.4582 85.1793 83.5789 75.582 83.5789C65.9848 83.5789 57.8641 75.4582 57.8641 65.8609ZM35.7166 344.919C26.1194 344.919 17.9986 336.798 17.9986 327.201C17.9986 317.604 26.1194 309.483 35.7166 309.483C45.3138 309.483 53.4346 318.342 53.4346 327.939C53.4346 337.537 45.3138 344.919 35.7166 344.919ZM35.7166 567.87C26.1194 567.87 17.9986 559.75 17.9986 550.152C17.9986 540.555 26.1194 532.434 35.7166 532.434C45.3138 532.434 53.4346 540.555 53.4346 550.152C53.4346 560.488 45.3138 567.87 35.7166 567.87ZM682.423 615.857C682.423 625.454 674.302 633.575 664.705 633.575C655.108 633.575 646.987 625.454 646.987 615.857C646.987 606.259 655.108 598.139 664.705 598.139C674.302 598.877 682.423 606.259 682.423 615.857ZM184.105 100.559V17.8747H542.156V100.559H184.105ZM573.9 384.785L560.612 398.811L448.398 509.549L435.848 496.998L546.585 386.261L548.8 384.046L559.874 372.973L568.733 364.114L581.283 376.664L573.9 384.785ZM691.282 344.919C681.685 344.919 673.564 336.798 673.564 327.201C673.564 317.604 681.685 309.483 691.282 309.483C700.879 309.483 709 317.604 709 327.201C708.262 337.537 700.879 344.919 691.282 344.919Z" fill="#DC2E3D"/>
<path d="M480.88 227.536H245.379V245.254H480.88V227.536Z" fill="#DC2E3D"/>
<path d="M480.88 293.241H245.379V310.959H480.88V293.241Z" fill="#DC2E3D"/>
<path d="M480.88 358.207H245.379V375.925H480.88V358.207Z" fill="#DC2E3D"/>
<path d="M363.499 502.168H245.379V519.886H363.499V502.168Z" fill="#DC2E3D"/>
<path d="M520.745 39.282H468.33V65.1207H520.745V39.282Z" fill="#DC2E3D"/>
<path d="M393.767 552.367L444.706 538.341L407.793 501.428L393.767 552.367Z" fill="#DC2E3D"/>
<path d="M391.554 679.349C395.245 674.181 398.198 668.275 398.198 661.631C398.198 646.128 385.648 633.577 370.145 633.577C370.145 629.148 366.453 625.457 362.024 625.457C357.594 625.457 353.903 629.148 353.903 633.577H353.165C353.165 629.148 349.474 625.457 345.044 625.457C340.615 625.457 336.923 629.148 336.923 633.577H328.803C324.373 633.577 320.682 637.269 320.682 641.698C320.682 644.651 322.158 646.866 325.111 648.342V724.382C322.897 725.858 320.682 728.073 320.682 731.026C320.682 735.456 324.373 739.147 328.803 739.147H336.923C336.923 743.576 340.615 747.268 345.044 747.268C349.474 747.268 353.165 743.576 353.165 739.147H353.903C353.903 743.576 357.594 747.268 362.024 747.268C366.453 747.268 370.145 743.576 370.145 739.147H374.574C392.292 739.147 407.057 724.382 407.057 706.664C406.319 694.852 400.413 685.255 391.554 679.349ZM373.836 722.905H340.615V689.684H373.836C382.695 689.684 390.077 697.067 390.077 705.926C390.077 715.523 382.695 722.905 373.836 722.905ZM369.406 649.081C376.051 649.081 381.957 654.987 381.957 661.631C381.957 668.275 376.051 674.181 369.406 674.181H340.615V649.081H369.406Z" fill="#DC2E3D"/>
<path d="M468.33 615.853C463.901 609.947 459.471 604.041 454.303 598.135C431.418 574.511 398.935 559.746 363.499 559.746C328.063 559.746 295.58 574.511 272.694 598.135C267.526 603.302 263.097 609.208 258.667 615.853C245.379 635.785 237.258 660.147 237.258 685.986C237.258 755.382 294.103 812.227 363.499 812.227C432.894 812.227 489.739 755.382 489.739 685.986C489.739 660.147 481.619 635.785 468.33 615.853ZM363.499 796.724C302.224 796.724 252.761 747.261 252.761 685.986C252.761 659.409 262.359 635.047 277.862 615.853C283.03 609.208 288.935 603.302 295.58 598.135C314.036 583.37 338.398 574.511 363.499 574.511C388.599 574.511 412.961 583.37 431.418 598.135C438.062 603.302 443.968 609.208 449.136 615.853C464.639 635.047 474.236 659.409 474.236 685.986C474.236 747.261 424.773 796.724 363.499 796.724Z" fill="#DC2E3D"/>
</svg>
