<svg width="472" height="496" viewBox="0 0 472 496" fill="none" xmlns="http://www.w3.org/2000/svg">
<path fill-rule="evenodd" clip-rule="evenodd" d="M42.2419 1.04601C27.4614 3.87107 12.5307 15.5288 5.84486 29.4662C3.79989 33.7289 1.661 39.8034 1.09166 42.9656C-0.378167 51.1279 -0.356866 444.905 1.11393 452.902C4.86014 473.279 22.7149 491.144 43.0804 494.892C51.1025 496.369 261.76 496.369 269.782 494.892C289.95 491.18 307.023 474.302 311.343 453.806C312.537 448.143 312.775 433.717 312.789 366.267C312.802 302.047 313.054 285.612 314.016 286.008C314.682 286.282 329.585 292.693 347.133 300.254C377.977 313.545 379.161 313.966 382.682 312.91C389.664 310.817 389.299 314.506 389.299 245.996C389.299 177.531 389.656 181.167 382.728 179.101C379.272 178.071 377.889 178.565 347.179 191.764C329.605 199.318 314.682 205.719 314.016 205.99C313.054 206.381 312.802 190.329 312.789 127.662C312.771 40.9127 312.785 41.1655 306.84 28.9817C302.388 19.8575 291.872 9.57447 282.634 5.31169C278.726 3.50776 272.942 1.55657 269.782 0.975285C262.476 -0.369428 49.3035 -0.30258 42.2419 1.04601ZM273.223 22.3308C280.877 25.9222 286.127 31.0463 289.8 38.511L292.956 44.9245L293.225 126.084L293.494 207.243H283.811H274.128L273.859 159.388C273.605 113.941 273.498 111.431 271.751 109.5C270.74 108.382 268.343 107.03 266.426 106.497C261.569 105.148 51.1974 105.174 46.3348 106.526C44.3624 107.074 41.8575 108.656 40.7672 110.041C38.7929 112.554 38.7871 112.981 38.7871 253.877V395.193H29.0938H19.4015L19.6533 220.08L19.906 44.9672L22.6994 38.915C26.7749 30.0862 35.8785 22.4723 45.0809 20.1946C46.6785 19.7993 97.4397 19.5436 157.884 19.6269L267.782 19.778L273.223 22.3308ZM56.1413 51.1899C52.2847 55.0486 52.276 59.7629 56.1171 64.0635C63.413 72.2344 75.9481 63.7844 71.2443 53.8657C68.357 47.7777 60.8761 46.4524 56.1413 51.1899ZM94.8719 51.1899C89.9802 56.0843 91.3774 64.0819 97.5714 66.6492C99.5554 67.4717 120.657 67.7004 177.087 67.5095L253.901 67.2499L256.726 64.0857C258.28 62.3457 259.551 59.8171 259.551 58.4676C259.551 55.255 257.112 50.6134 254.763 49.3559C253.531 48.6952 226.672 48.358 175.302 48.358H97.7021L94.8719 51.1899ZM254.71 260.044V395.193H156.431H58.1524V260.044V124.894H156.431H254.71V260.044ZM82.9351 155.428C78.9604 157.516 77.5835 159.698 77.5487 163.964C77.5254 166.794 78.1868 168.341 80.3479 170.503L83.1782 173.335H156.431H229.684L232.514 170.503C236.379 166.637 236.381 161.931 232.519 157.607L229.695 154.443L157.721 154.197C94.7625 153.981 85.3955 154.136 82.9351 155.428ZM442.335 199.066C436.064 202.471 436.012 208.725 442.187 216.573C451.144 227.955 454.585 240.24 452.396 253.015C450.914 261.656 448.022 268.005 442.187 275.419C438.591 279.989 437.712 281.854 437.712 284.909C437.712 291.785 444.574 296.141 450.758 293.191C456.789 290.313 465.04 278.155 469.309 265.857C471.694 258.986 472 256.732 472 245.996C472 235.26 471.694 233.006 469.309 226.135C463.9 210.553 453.522 197.443 446.717 197.594C445.758 197.615 443.787 198.278 442.335 199.066ZM82.1412 203.91C76.6143 206.911 75.7293 214.323 80.3479 218.944L83.1782 221.776H156.431H229.684L232.514 218.944C237.065 214.389 235.745 206.154 230.046 203.557C228.149 202.692 209.481 202.409 156.144 202.438C95.052 202.471 84.4001 202.683 82.1412 203.91ZM369.933 246.076C369.933 273.09 369.59 288.666 368.999 288.462C368.485 288.285 357.817 283.78 345.292 278.451L322.518 268.763L322.521 245.996L322.523 223.229L345.502 213.366C358.141 207.942 368.807 203.473 369.207 203.436C369.607 203.398 369.933 222.587 369.933 246.076ZM412.333 225.552C408.245 229.206 408.082 234.118 411.867 239.592C413.301 241.664 414.474 244.547 414.474 245.996C414.474 247.445 413.301 250.328 411.867 252.4C408.082 257.874 408.245 262.786 412.333 266.44C418.498 271.951 424.924 269.46 430.494 259.398C433.033 254.811 433.355 253.306 433.355 245.996C433.355 238.686 433.033 237.181 430.494 232.594C424.924 222.532 418.498 220.04 412.333 225.552ZM303.123 245.996V265.372H288.599H274.075V245.996V226.62H288.599H303.123V245.996ZM82.7047 251.801C78.2168 253.613 76.0188 260.761 78.515 265.426C81.1129 270.284 80.01 270.216 156.337 270.216C209.453 270.216 228.151 269.923 230.046 269.059C232.821 267.793 235.345 263.731 235.345 260.528C235.345 257.325 232.821 253.263 230.046 251.998C227.011 250.613 86.111 250.425 82.7047 251.801ZM293.441 339.971V395.193H283.758H274.075V339.971V284.749H283.758H293.441V339.971ZM80.3479 302.113C75.6499 306.813 76.9338 314.333 82.9206 317.176C85.7499 318.518 94.3771 318.664 157.906 318.433L229.695 318.173L232.519 315.008C236.381 310.685 236.379 305.979 232.514 302.113L229.684 299.281H156.431H83.1782L80.3479 302.113ZM80.0245 350.702C76.563 354.819 76.6753 359.342 80.3421 363.449L83.1665 366.613L128.029 366.916C152.703 367.081 174.815 366.935 177.165 366.59C186.263 365.254 190.048 356.504 184.101 350.553L181.271 347.721H131.901H82.5314L80.0245 350.702ZM293.289 432.758L292.956 450.948L289.8 457.359C286.126 464.821 280.874 469.946 273.223 473.536L267.782 476.089H156.431H45.0809L39.586 473.512C31.8757 469.896 26.0264 464.159 22.6994 456.952C19.9844 451.07 19.8973 450.391 19.5884 432.735L19.2708 414.57H156.447H293.622L293.289 432.758ZM116.03 439.331C110.504 442.333 109.619 449.744 114.237 454.365L117.067 457.197H156.431H195.795L198.625 454.365C203.376 449.612 202.065 442.032 195.952 438.903C194.498 438.159 182.098 437.834 156.253 437.86C124.973 437.892 118.226 438.139 116.03 439.331Z" fill="#DC2E3D"/>
</svg>
