<svg class="mr-2" xmlns="http://www.w3.org/2000/svg" xmlns:xlink="http://www.w3.org/1999/xlink" version="1.1" x="0px" y="0px" viewBox="0 0 512 512" style="enable-background:new 0 0 512 512;" xml:space="preserve"> <path style="fill:#EA4820;" d="M444.484,61.715H67.516c-18.567,0-33.758,14.842-33.758,32.984v33.758h444.484V94.699  C478.242,76.557,463.051,61.715,444.484,61.715z"/> <polygon style="fill:#D92622;" points="211.75,333.758 189.244,427.78 322.756,427.78 300.25,333.758 "/> <path style="fill:#F76720;" d="M0,105.951v344.334h189.577l30.666-80.62c5.158-13.561,21.249-24.655,35.757-24.655  c14.508,0,30.598,11.094,35.757,24.655l30.666,80.62H512V105.951C512,105.951,0,105.951,0,105.951z"/> <g> <circle style="fill:#A0DDDF;" cx="141.785" cy="278.123" r="67.516"/> <circle style="fill:#A0DDDF;" cx="370.215" cy="278.123" r="67.516"/> </g> <path style="fill:#D0EEEF;" d="M165.655,254.248l-31.827,15.914l-15.914,31.827c13.184,13.184,34.558,13.184,47.741,0  C178.839,288.805,178.839,267.431,165.655,254.248z"/> <path style="fill:#FFFFFF;" d="M117.914,254.248c-13.184,13.184-13.184,34.558,0,47.741l47.741-47.741  C152.471,241.064,131.098,241.064,117.914,254.248z"/> <path style="fill:#D0EEEF;" d="M394.086,254.248l-31.827,15.914l-15.914,31.827c13.184,13.184,34.558,13.184,47.741,0  C407.268,288.805,407.27,267.431,394.086,254.248z"/> <path style="fill:#FFFFFF;" d="M346.345,254.248c-13.184,13.184-13.184,34.558,0,47.741l47.741-47.741  C380.902,241.064,359.529,241.064,346.345,254.248z"/> <g> </g> <g> </g> <g> </g> <g> </g> <g> </g> <g> </g> <g> </g> <g> </g> <g> </g> <g> </g> <g> </g> <g> </g> <g> </g> <g> </g> <g> </g> </svg>