<svg xmlns="http://www.w3.org/2000/svg" width="53.82" height="53.82" fill="#4842a8" xmlns:v="https://vecta.io/nano"><path d="M0 0h53.82v53.82H0z" opacity="0"/><path d="M48.438 1H5.382A5.39 5.39 0 0 0 0 6.382v32.292a5.39 5.39 0 0 0 5.382 5.382h13.455v5.382H14.8c-.743 0-1.346.602-1.346 1.346s.602 1.346 1.346 1.346h24.219c.729-.02 1.309-.616 1.309-1.346s-.58-1.326-1.309-1.346h-4.036v-5.382h13.455a5.39 5.39 0 0 0 5.382-5.382V6.382A5.39 5.39 0 0 0 48.438 1zM32.292 49.438H21.528v-5.382h10.764zm18.837-10.764a2.69 2.69 0 0 1-2.691 2.691H5.382a2.69 2.69 0 0 1-2.691-2.691v-5.382h48.438zm0-8.073H2.691V6.382a2.69 2.69 0 0 1 2.691-2.691h43.056a2.69 2.69 0 0 1 2.691 2.691V30.6zm-23.771 5.382h-.9c-.489-.013-.948.24-1.196.662s-.249.945 0 1.367.707.675 1.196.662h.9c.743 0 1.345-.602 1.345-1.345s-.602-1.346-1.345-1.346z"/></svg>