<?xml version="1.0" encoding="utf-8"?>
<!-- Generator: Adobe Illustrator 22.0.1, SVG Export Plug-In . SVG Version: 6.00 Build 0)  -->
<svg version="1.1" id="Layer_1" xmlns="http://www.w3.org/2000/svg" xmlns:xlink="http://www.w3.org/1999/xlink" x="0px" y="0px"
	 viewBox="0 0 50 50" style="enable-background:new 0 0 50 50;" xml:space="preserve">
<style type="text/css">
	.st0{fill:#21759b;}
</style>
<g>
	<path class="st0" d="M3.7,25.2c0,8.3,4.8,15.5,11.8,18.8l-10-27.4C4.4,19.2,3.7,22.1,3.7,25.2L3.7,25.2z M38.8,24.1
		c0-2.6-0.9-4.4-1.7-5.8C36,16.6,35,15.1,35,13.4c0-1.9,1.5-3.7,3.5-3.7c0.1,0,0.2,0,0.3,0c-3.7-3.4-8.7-5.5-14.1-5.5
		c-7.3,0-13.8,3.8-17.5,9.4c0.5,0,1,0,1.3,0c2.2,0,5.6-0.3,5.6-0.3c1.1-0.1,1.3,1.6,0.1,1.7c0,0-1.1,0.1-2.4,0.2L19.5,38L24,24.3
		l-3.3-8.9c-1.1-0.1-2.2-0.2-2.2-0.2c-1.1-0.1-1-1.8,0.1-1.7c0,0,3.5,0.3,5.5,0.3c2.2,0,5.6-0.3,5.6-0.3c1.1-0.1,1.3,1.6,0.1,1.7
		c0,0-1.1,0.1-2.4,0.2l7.6,22.5l2.1-7C38.1,28,38.8,25.9,38.8,24.1L38.8,24.1z M25,27l-6.3,18.3c1.9,0.6,3.9,0.9,5.9,0.9
		c2.4,0,4.8-0.4,7-1.2c-0.1-0.1-0.1-0.2-0.1-0.3L25,27L25,27z M43,15.1c0.1,0.7,0.1,1.4,0.1,2.2c0,2.1-0.4,4.5-1.6,7.5l-6.4,18.5
		c6.2-3.6,10.4-10.4,10.4-18.1C45.6,21.5,44.7,18.1,43,15.1L43,15.1z M24.7,0.8c-13.5,0-24.4,11-24.4,24.4c0,13.5,11,24.4,24.4,24.4
		c13.5,0,24.4-11,24.4-24.4C49.1,11.7,38.1,0.8,24.7,0.8L24.7,0.8z M24.7,48.5C11.8,48.5,1.4,38,1.4,25.2
		c0-12.8,10.5-23.3,23.3-23.3C37.5,1.9,48,12.3,48,25.2C48,38,37.5,48.5,24.7,48.5L24.7,48.5z"/>
</g>
</svg>
